<svg xmlns="http://www.w3.org/2000/svg" xmlns:xlink="http://www.w3.org/1999/xlink" id="Layer_1" x="0px" y="0px" viewBox="0 0 100 100" style="enable-background:new 0 0 100 100;" xml:space="preserve"><style type="text/css">	.st0{fill:#E2E2E2;}	.st1{fill:#414042;}	.st2{fill:#FFFFFF;}	.st3{fill:#333333;}	.st4{fill:none;stroke:#333333;stroke-width:6.3584;stroke-linecap:round;stroke-miterlimit:10;}	.st5{fill:none;stroke:#59595C;stroke-width:5;stroke-miterlimit:10;}	.st6{fill:none;stroke:#59595C;stroke-width:5.45;stroke-miterlimit:10;}	.st7{fill:#333333;stroke:#333333;stroke-width:0.5;stroke-miterlimit:10;}	.st8{fill:none;stroke:#333333;stroke-width:5;stroke-miterlimit:10;}	.st9{fill:none;stroke:#333333;stroke-width:3.7565;stroke-linecap:round;stroke-linejoin:round;stroke-miterlimit:10;}	.st10{fill:#59595C;}	.st11{fill:#808184;}	.st12{fill:none;stroke:#404041;stroke-width:2.7935;stroke-miterlimit:10;}	.st13{fill:none;stroke:#404041;stroke-width:2.7935;stroke-linecap:round;stroke-miterlimit:10;}	.st14{fill:#FFFFFF;stroke:#000000;stroke-width:5.9967;stroke-linecap:round;stroke-miterlimit:10;}	.st15{fill:none;stroke:#000000;stroke-width:4.4976;stroke-linecap:round;stroke-miterlimit:10;}	.st16{fill:none;stroke:#000000;stroke-width:2.9984;stroke-linecap:round;stroke-miterlimit:10;}	.st17{fill:none;stroke:#333333;stroke-width:6.155;stroke-miterlimit:10;}	.st18{fill:none;stroke:#333333;stroke-width:3.0775;stroke-linecap:round;stroke-miterlimit:10;}	.st19{fill:none;stroke:#333333;stroke-width:6.155;stroke-linecap:round;stroke-miterlimit:10;}	.st20{fill:none;stroke:#000000;stroke-width:6.155;stroke-linecap:round;stroke-miterlimit:10;}	.st21{fill:#FFFFFF;stroke:#58595B;stroke-width:5.415;stroke-miterlimit:10;}	.st22{fill:none;stroke:#58595B;stroke-width:5.415;stroke-miterlimit:10;}	.st23{fill:#58595B;}	.st24{fill:#FEFEFE;}	.st25{fill:none;stroke:#000000;stroke-width:3.5761;stroke-miterlimit:10;}	.st26{stroke:#000000;stroke-width:2.5836;stroke-miterlimit:10;}	.st27{fill:none;stroke:#58595B;stroke-width:5.4;stroke-miterlimit:10;}	.st28{fill:#808285;}	.st29{fill:#FFFFFF;stroke:#414042;stroke-width:5.5602;stroke-linecap:round;stroke-miterlimit:10;}	.st30{fill:none;stroke:#000000;stroke-width:4.1701;stroke-linecap:round;stroke-miterlimit:10;}	.st31{fill:none;stroke:#414042;stroke-width:2.7801;stroke-linecap:round;stroke-miterlimit:10;}	.st32{fill:none;stroke:#414042;stroke-width:4.1701;stroke-linecap:round;stroke-miterlimit:10;}	.st33{fill:#FFFFFF;stroke:#414042;stroke-width:3;stroke-linecap:round;stroke-linejoin:round;stroke-miterlimit:10;}	.st34{fill:#FDFEFD;}	.st35{fill:none;stroke:#1A1A1A;stroke-width:4.2092;stroke-miterlimit:10;}	.st36{fill:#1A1A1A;}</style><g>	<circle class="st0" cx="49.9" cy="50.6" r="48.9"></circle>	<g>		<path class="st1" d="M44.7,45.6c1.8,2,3.6,3.9,5.4,5.8c1.7-1.9,3.4-3.8,5.1-5.8c-0.5,0-0.9,0-1.3,0c-1,0-1.4-0.5-1.4-1.4   c0-4.8,0-9.6,0-14.4c0-0.7,0.3-1.2,0.9-1.4c0.6-0.2,1.2,0,1.4,0.5c0.2,0.3,0.2,0.7,0.2,1c0,4.1,0,8.2,0,12.4c0,0.2,0,0.5,0,0.8   c0.9,0,1.8,0,2.7,0c0.7,0,1.2,0.1,1.5,0.8c0.3,0.6,0,1.1-0.4,1.6c-2.5,2.9-5.1,5.7-7.6,8.6c-0.7,0.8-1.5,0.8-2.3,0   c-2.7-2.9-5.3-5.8-8-8.7c-0.5-0.6-0.6-1.1-0.3-1.6c0.3-0.5,0.7-0.7,1.2-0.7c0.9,0,1.9,0,2.9,0c0-0.3,0-0.5,0-0.7   c0-4.1,0-8.3,0-12.4c0-0.4,0.1-0.8,0.3-1.1c0.3-0.4,0.8-0.5,1.3-0.4c0.5,0.2,0.8,0.5,0.9,1.1c0,0.2,0,0.4,0,0.5   c0,4.6,0,9.3,0,13.9c0,1.3-0.4,1.7-1.7,1.7C45.4,45.6,45.2,45.6,44.7,45.6z"></path>		<path class="st1" d="M50.5,59c-6.4,0-12.5-1.3-18.4-3.5c-3.7-1.4-7.2-3.1-10.6-5.1c-0.1-0.1-0.3-0.2-0.4-0.2   c-0.7-0.4-0.9-1.2-0.5-1.8c0.4-0.6,1.1-0.8,1.8-0.4c1.1,0.6,2.2,1.2,3.3,1.8c6.2,3.2,12.7,5.5,19.7,6.3c6.5,0.7,12.8,0.1,19-1.9   c4.6-1.5,8.9-3.6,13-6.1c0.5-0.3,1.1-0.5,1.7-0.1c0.5,0.3,0.6,0.8,0.5,1.3c-0.1,0.5-0.5,0.8-0.9,1.1c-2.2,1.2-4.3,2.5-6.5,3.6   c-4.1,2-8.4,3.4-12.8,4.2C56.3,58.7,53.4,59,50.5,59z"></path>		<path class="st1" d="M50.8,63.5c-9.4,0-17.7-1.4-25.8-4c-1.2-0.4-2.4-0.8-3.6-1.3c-0.9-0.3-1.2-1-1-1.7c0.3-0.7,1-1,1.8-0.7   c3.9,1.5,7.8,2.6,11.9,3.5c6.6,1.4,13.3,2,20,1.6c7.7-0.5,15.1-2,22.3-4.6c0.4-0.2,0.8-0.3,1.3-0.5c0.8-0.3,1.5,0,1.7,0.7   c0.2,0.7-0.1,1.4-0.9,1.7c-5,1.9-10.2,3.3-15.4,4.2C58.8,63.2,54.4,63.6,50.8,63.5z"></path>		<path class="st1" d="M50,70.3c9.3,0,18.6,0,28,0c0.5,0,0.9,0,1.3,0.4c0.6,0.7,0.3,1.9-0.7,2.1c-0.3,0.1-0.5,0-0.8,0   c-18.6,0-37.2,0-55.8,0c-0.3,0-0.7-0.1-1-0.2c-0.5-0.2-0.7-0.8-0.6-1.4c0.1-0.5,0.5-0.9,1.1-1c0.5,0,1,0,1.5,0   C32,70.3,41,70.3,50,70.3z"></path>		<path class="st1" d="M48.5,68.4c-5.8,0-12.2-0.5-18.6-1.5c-2.8-0.4-5.6-1-8.4-1.5c-0.8-0.2-1.3-0.8-1.1-1.6c0.1-0.7,0.8-1.1,1.6-1   c5.6,1.2,11.2,2,16.9,2.5c6.5,0.5,12.9,0.6,19.4,0.2c5.2-0.3,10.3-1,15.4-1.9c1.4-0.2,2.8-0.5,4.1-0.8c0.8-0.2,1.5,0.2,1.6,1   c0.2,0.8-0.3,1.4-1.1,1.6c-4.6,0.9-9.2,1.7-13.8,2.2C59.5,68.2,54.4,68.5,48.5,68.4z"></path>	</g></g></svg>