<svg xmlns="http://www.w3.org/2000/svg" xmlns:xlink="http://www.w3.org/1999/xlink" id="Layer_1" x="0px" y="0px" viewBox="0 0 100 100" style="enable-background:new 0 0 100 100;" xml:space="preserve"><style type="text/css">	.st0{fill:#E2E2E2;}	.st1{fill:#414042;}	.st2{fill:#FFFFFF;}	.st3{fill:#333333;}	.st4{fill:none;stroke:#333333;stroke-width:6.3584;stroke-linecap:round;stroke-miterlimit:10;}	.st5{fill:none;stroke:#59595C;stroke-width:5;stroke-miterlimit:10;}	.st6{fill:none;stroke:#59595C;stroke-width:5.45;stroke-miterlimit:10;}	.st7{fill:#333333;stroke:#333333;stroke-width:0.5;stroke-miterlimit:10;}	.st8{fill:none;stroke:#333333;stroke-width:5;stroke-miterlimit:10;}	.st9{fill:none;stroke:#333333;stroke-width:3.7565;stroke-linecap:round;stroke-linejoin:round;stroke-miterlimit:10;}	.st10{fill:#59595C;}	.st11{fill:#808184;}	.st12{fill:none;stroke:#404041;stroke-width:2.7935;stroke-miterlimit:10;}	.st13{fill:none;stroke:#404041;stroke-width:2.7935;stroke-linecap:round;stroke-miterlimit:10;}	.st14{fill:#FFFFFF;stroke:#000000;stroke-width:5.9967;stroke-linecap:round;stroke-miterlimit:10;}	.st15{fill:none;stroke:#000000;stroke-width:4.4976;stroke-linecap:round;stroke-miterlimit:10;}	.st16{fill:none;stroke:#000000;stroke-width:2.9984;stroke-linecap:round;stroke-miterlimit:10;}	.st17{fill:none;stroke:#333333;stroke-width:6.155;stroke-miterlimit:10;}	.st18{fill:none;stroke:#333333;stroke-width:3.0775;stroke-linecap:round;stroke-miterlimit:10;}	.st19{fill:none;stroke:#333333;stroke-width:6.155;stroke-linecap:round;stroke-miterlimit:10;}	.st20{fill:none;stroke:#000000;stroke-width:6.155;stroke-linecap:round;stroke-miterlimit:10;}	.st21{fill:#FFFFFF;stroke:#58595B;stroke-width:5.415;stroke-miterlimit:10;}	.st22{fill:none;stroke:#58595B;stroke-width:5.415;stroke-miterlimit:10;}	.st23{fill:#58595B;}	.st24{fill:#FEFEFE;}	.st25{fill:none;stroke:#000000;stroke-width:3.5761;stroke-miterlimit:10;}	.st26{stroke:#000000;stroke-width:2.5836;stroke-miterlimit:10;}	.st27{fill:none;stroke:#58595B;stroke-width:5.4;stroke-miterlimit:10;}	.st28{fill:#808285;}	.st29{fill:#FFFFFF;stroke:#414042;stroke-width:5.5602;stroke-linecap:round;stroke-miterlimit:10;}	.st30{fill:none;stroke:#000000;stroke-width:4.1701;stroke-linecap:round;stroke-miterlimit:10;}	.st31{fill:none;stroke:#414042;stroke-width:2.7801;stroke-linecap:round;stroke-miterlimit:10;}	.st32{fill:none;stroke:#414042;stroke-width:4.1701;stroke-linecap:round;stroke-miterlimit:10;}	.st33{fill:#FFFFFF;stroke:#414042;stroke-width:3;stroke-linecap:round;stroke-linejoin:round;stroke-miterlimit:10;}	.st34{fill:#FDFEFD;}	.st35{fill:none;stroke:#1A1A1A;stroke-width:4.2092;stroke-miterlimit:10;}	.st36{fill:#1A1A1A;}</style><g>	<circle class="st0" cx="49.9" cy="50.2" r="48.9"></circle>	<g>		<path class="st1" d="M23.3,53.9c2.3-0.2,4.5,0.1,6.3,1.6c0.6,0.4,1.1,0.9,1.5,1.5c3.4,4.2,9.2,4.2,12.6,0c3.3-4.2,9.3-4.2,12.6,0   c3.3,4.1,9.1,4.2,12.4,0.1c1.8-2.2,4-3.3,6.8-3.2c0.3,0,0.7,0,1,0c0,0,0.1,0,0.1,0c0,7.2,0,14.5,0,21.8c-0.2,0-0.5,0-0.7,0   c-17.3,0-34.6,0-51.9,0c-0.2,0-0.5,0-0.7,0C23.3,68.5,23.3,61.2,23.3,53.9z M73.5,57.2c-0.5,0.3-0.9,0.4-1.2,0.7   c-0.5,0.4-0.9,0.9-1.3,1.3c-2.7,3.1-6.2,4.4-10.3,3.8c-2.8-0.4-5-1.8-6.8-4c-0.4-0.5-0.9-1-1.4-1.4c-2-1.3-4.8-0.9-6.6,1.3   c-3.9,5-10.9,5.6-15.7,1.5c-0.6-0.5-1.1-1.2-1.7-1.8c-0.6-0.7-1.3-1.2-2.1-1.5c0,3.1,0,6.1,0,9.1c15.7,0,31.4,0,47.1,0   C73.5,63.4,73.5,60.4,73.5,57.2z M73.5,69.6c-15.7,0-31.4,0-47.1,0c0,1,0,2,0,3c15.7,0,31.4,0,47.1,0   C73.5,71.6,73.5,70.6,73.5,69.6z"></path>		<path class="st1" d="M37.4,30.8c2.8,4.1,5.5,8.1,7.3,12.7c1.9,4.9-1.7,10.2-7,10.4c-4.4,0.2-8.3-3.7-8.1-8.1   c0.1-1.4,0.6-2.7,1.2-4c1.5-3.3,3.4-6.3,5.4-9.3C36.6,32,37,31.4,37.4,30.8z M37.4,36.4c-0.6,0.9-1.1,1.8-1.6,2.6   c-1,1.9-1.9,3.8-2.8,5.7c-0.3,0.7-0.3,1.5-0.2,2.2c0.5,2.6,3.2,4.3,5.8,3.6c2.5-0.6,4.2-3.5,3.3-5.9   C40.7,41.8,39.1,39.1,37.4,36.4z"></path>		<path class="st1" d="M62.5,30.8c1,1.5,2,2.9,2.9,4.4c1.7,2.6,3.2,5.3,4.3,8.2c1.9,4.8-1.7,10.2-7,10.5c-4.4,0.2-8.4-3.7-8.1-8.1   c0.1-1.4,0.6-2.7,1.2-4c1.5-3.4,3.5-6.5,5.6-9.6C61.8,31.8,62.1,31.4,62.5,30.8z M62.5,36.4c-1.6,2.6-3.2,5.1-4.2,7.9   c-0.2,0.6-0.4,1.3-0.4,1.9c0.1,2,1,3.4,2.8,4.2c1.8,0.8,3.5,0.5,5-0.9c1.4-1.3,2-3,1.2-4.8C66,42.8,65,40.9,64,39   C63.6,38.1,63,37.3,62.5,36.4z"></path>		<path class="st1" d="M50,24.5c1,1.6,2,3.1,2.9,4.6c0.6,1,1,2,1.4,3c1,2.4-0.6,5.4-3.4,6c-2.9,0.6-5.8-1.6-5.7-4.6   c0-0.8,0.3-1.6,0.6-2.4C46.9,28.8,48.4,26.7,50,24.5z M50.1,30.3c-0.1,0-0.1,0-0.2,0c-0.4,0.9-0.9,1.8-1.3,2.7   c-0.3,0.7-0.1,1.4,0.5,1.8c0.6,0.4,1.3,0.4,1.8,0c0.6-0.4,0.8-1.1,0.5-1.8C51,32.1,50.5,31.2,50.1,30.3z"></path>	</g></g></svg>