<svg xmlns="http://www.w3.org/2000/svg" xmlns:xlink="http://www.w3.org/1999/xlink" id="Layer_1" x="0px" y="0px" viewBox="0 0 100 100" style="enable-background:new 0 0 100 100;" xml:space="preserve"><style type="text/css">	.st0{fill:#E2E2E2;}	.st1{fill:#414042;}	.st2{fill:#FFFFFF;}	.st3{fill:#333333;}	.st4{fill:none;stroke:#333333;stroke-width:6.3584;stroke-linecap:round;stroke-miterlimit:10;}	.st5{fill:none;stroke:#59595C;stroke-width:5;stroke-miterlimit:10;}	.st6{fill:none;stroke:#59595C;stroke-width:5.45;stroke-miterlimit:10;}	.st7{fill:#333333;stroke:#333333;stroke-width:0.5;stroke-miterlimit:10;}	.st8{fill:none;stroke:#333333;stroke-width:5;stroke-miterlimit:10;}	.st9{fill:none;stroke:#333333;stroke-width:3.7565;stroke-linecap:round;stroke-linejoin:round;stroke-miterlimit:10;}	.st10{fill:#59595C;}	.st11{fill:#808184;}	.st12{fill:none;stroke:#404041;stroke-width:2.7935;stroke-miterlimit:10;}	.st13{fill:none;stroke:#404041;stroke-width:2.7935;stroke-linecap:round;stroke-miterlimit:10;}	.st14{fill:#FFFFFF;stroke:#000000;stroke-width:5.9967;stroke-linecap:round;stroke-miterlimit:10;}	.st15{fill:none;stroke:#000000;stroke-width:4.4976;stroke-linecap:round;stroke-miterlimit:10;}	.st16{fill:none;stroke:#000000;stroke-width:2.9984;stroke-linecap:round;stroke-miterlimit:10;}	.st17{fill:none;stroke:#333333;stroke-width:6.155;stroke-miterlimit:10;}	.st18{fill:none;stroke:#333333;stroke-width:3.0775;stroke-linecap:round;stroke-miterlimit:10;}	.st19{fill:none;stroke:#333333;stroke-width:6.155;stroke-linecap:round;stroke-miterlimit:10;}	.st20{fill:none;stroke:#000000;stroke-width:6.155;stroke-linecap:round;stroke-miterlimit:10;}	.st21{fill:#FFFFFF;stroke:#58595B;stroke-width:5.415;stroke-miterlimit:10;}	.st22{fill:none;stroke:#58595B;stroke-width:5.415;stroke-miterlimit:10;}	.st23{fill:#58595B;}	.st24{fill:#FEFEFE;}	.st25{fill:none;stroke:#000000;stroke-width:3.5761;stroke-miterlimit:10;}	.st26{stroke:#000000;stroke-width:2.5836;stroke-miterlimit:10;}	.st27{fill:none;stroke:#58595B;stroke-width:5.4;stroke-miterlimit:10;}	.st28{fill:#808285;}	.st29{fill:#FFFFFF;stroke:#414042;stroke-width:5.5602;stroke-linecap:round;stroke-miterlimit:10;}	.st30{fill:none;stroke:#000000;stroke-width:4.1701;stroke-linecap:round;stroke-miterlimit:10;}	.st31{fill:none;stroke:#414042;stroke-width:2.7801;stroke-linecap:round;stroke-miterlimit:10;}	.st32{fill:none;stroke:#414042;stroke-width:4.1701;stroke-linecap:round;stroke-miterlimit:10;}	.st33{fill:#FFFFFF;stroke:#414042;stroke-width:3;stroke-linecap:round;stroke-linejoin:round;stroke-miterlimit:10;}	.st34{fill:#FDFEFD;}	.st35{fill:none;stroke:#1A1A1A;stroke-width:4.2092;stroke-miterlimit:10;}	.st36{fill:#1A1A1A;}</style><g>	<circle class="st0" cx="49.9" cy="49.9" r="48.9"></circle>	<g>		<path class="st3" d="M39.9,26.4c0.8,0.2,1.7,0.4,2.6,0.5c3.5,0.8,7,1.5,10.6,2.3c0.2,0,0.5,0,0.7-0.2c1.4-0.9,2.9-1.8,4.3-2.8   c0.9-0.6,1.2-0.5,1.7,0.4c0.9,1.4,1.8,2.8,2.7,4.2c0.2,0.3,0.4,0.5,0.8,0.5c1.7,0.4,3.5,0.7,5.2,1.1c0.7,0.2,0.9,0.5,0.8,1.2   c-0.4,1.7-0.7,3.4-1.1,5.2c-0.1,0.4,0,0.7,0.2,1c2.3,3.5,4.6,7.1,6.9,10.7c0.6,0.9,0.5,1.1-0.3,1.7c-3.6,2.3-7.2,4.6-10.7,6.9   c-0.2,0.1-0.4,0.4-0.5,0.7c-0.9,4.2-1.9,8.5-2.8,12.7c-0.2,0.7-0.5,0.9-1.2,0.8c-4.2-0.9-8.4-1.8-12.6-2.7c-0.4-0.1-0.7,0-1,0.2   c-1.4,0.9-2.9,1.9-4.3,2.8c-0.7,0.5-1.1,0.4-1.5-0.3c-1-1.5-1.9-3-2.9-4.4c-0.1-0.2-0.4-0.4-0.6-0.4c-1.7-0.4-3.5-0.8-5.3-1.2   c-0.7-0.2-0.9-0.5-0.8-1.2c0.4-1.7,0.7-3.4,1.1-5.2c0.1-0.4,0-0.6-0.2-1c-2.3-3.6-4.6-7.1-6.9-10.7c-0.5-0.8-0.5-1.1,0.3-1.6   c3.6-2.3,7.2-4.6,10.8-7c0.2-0.1,0.4-0.4,0.4-0.6c0.9-4.2,1.9-8.5,2.8-12.7C39.2,26.8,39.4,26.5,39.9,26.4z M40.5,28.2   c-2.7,12.6-5.4,25.1-8.2,37.6c9,2,18,3.9,27,5.9c2.7-12.6,5.4-25,8.2-37.6C58.5,32.1,49.5,30.2,40.5,28.2z M35.1,45.3   c0.2-0.9,0.4-1.7,0.6-2.7c-3.2,2.1-6.3,4.1-9.4,6.1c2,3.1,4,6.2,6.1,9.4c0.2-0.9,0.4-1.6,0.5-2.4c0-0.1,0-0.3-0.1-0.4   c-0.4-0.5-0.3-1,0.3-1.3c0.1-0.1,0.3-0.2,0.3-0.4c0.2-0.7,0.3-1.4,0.4-2.1c0-0.1-0.1-0.3-0.2-0.5c-0.1-0.3-0.3-0.6-0.3-0.9   c0-0.2,0.4-0.4,0.6-0.6c0.1-0.1,0.3-0.2,0.4-0.3c0.2-0.8,0.3-1.6,0.5-2.4c-0.5-0.2-0.9-0.5-0.7-1C34.2,45.4,34.6,45.3,35.1,45.3z    M64.2,57.2c3.2-2.1,6.3-4.1,9.4-6.1c-2-3.2-4-6.2-6.1-9.4c-0.2,0.8-0.4,1.5-0.5,2.2c0,0.2,0.1,0.4,0.2,0.5c0.4,0.5,0.2,1-0.3,1.3   c-0.2,0.1-0.3,0.2-0.4,0.4c-0.2,0.7-0.3,1.4-0.4,2.1c0,0.1,0,0.4,0.2,0.5c0.3,0.2,0.5,0.6,0.3,0.9c-0.1,0.2-0.4,0.4-0.6,0.6   c-0.1,0.1-0.3,0.2-0.3,0.3c-0.2,0.8-0.4,1.6-0.5,2.4c0.5,0.1,0.8,0.4,0.7,1c-0.1,0.6-0.6,0.7-1.1,0.7   C64.5,55.5,64.4,56.3,64.2,57.2z M44.3,70c-1.7-0.4-3.3-0.7-5-1.1c0.7,1.1,1.3,2,1.9,3C42.2,71.3,43.2,70.7,44.3,70z M55.6,29.8   c1.7,0.4,3.3,0.7,5,1.1c-0.7-1.1-1.3-2-1.9-3C57.6,28.5,56.7,29.1,55.6,29.8z"></path>		<path class="st2" d="M40.5,28.2c9,2,18,3.9,27,5.9c-2.7,12.5-5.4,25-8.2,37.6c-9-2-18-3.9-27-5.9C35.1,53.3,37.8,40.8,40.5,28.2z    M55.7,47.3c0.4,0,0.8-0.3,0.8-0.8c0-0.4-0.4-0.8-0.8-0.8c-0.4,0-0.8,0.4-0.8,0.8C54.9,47,55.2,47.3,55.7,47.3z M46.3,47.5   c0-0.4-0.3-0.8-0.7-0.9c-0.4,0-0.8,0.3-0.9,0.7c-0.1,0.5,0.3,0.8,0.7,0.9C45.9,48.2,46.2,47.9,46.3,47.5z M53.7,56.2   c0.4,0,0.8-0.4,0.8-0.8c0-0.4-0.3-0.8-0.8-0.8c-0.4,0-0.8,0.4-0.8,0.8C53,55.9,53.3,56.2,53.7,56.2z M38,55c0-0.4-0.3-0.8-0.8-0.8   c-0.5,0-0.8,0.4-0.8,0.8c0,0.4,0.4,0.8,0.8,0.8C37.6,55.7,38,55.4,38,55z M62.7,45.7c0.4,0,0.8-0.4,0.8-0.8c0-0.4-0.4-0.8-0.8-0.8   c-0.4,0-0.8,0.4-0.8,0.8C61.9,45.4,62.3,45.7,62.7,45.7z M55,48.7c-0.4,0-0.8,0.4-0.8,0.8c0,0.4,0.3,0.8,0.8,0.8   c0.5,0,0.8-0.4,0.8-0.8C55.8,49,55.5,48.7,55,48.7z M59,65.7c0-0.4-0.4-0.8-0.8-0.8c-0.4,0-0.8,0.3-0.8,0.8c0,0.5,0.4,0.8,0.8,0.8   C58.6,66.5,59,66.1,59,65.7z M40.4,56.4c0.4,0,0.8-0.3,0.8-0.8c0-0.5-0.3-0.8-0.8-0.8c-0.4,0-0.8,0.4-0.8,0.8   C39.6,56,39.9,56.4,40.4,56.4z M50.1,45.2c0-0.4-0.3-0.8-0.8-0.8c-0.4,0-0.8,0.3-0.8,0.7c0,0.4,0.3,0.8,0.8,0.8   C49.7,45.9,50.1,45.6,50.1,45.2z M51.4,54.7c0-0.4-0.4-0.8-0.9-0.8c-0.4,0-0.8,0.4-0.7,0.8c0,0.4,0.4,0.8,0.8,0.8   C51,55.5,51.4,55.1,51.4,54.7z M44.2,52.5c-0.4,0-0.8,0.4-0.8,0.8c0,0.5,0.4,0.8,0.8,0.8c0.4,0,0.8-0.4,0.8-0.8   C45,52.9,44.6,52.5,44.2,52.5z M41,51.9c-0.4,0-0.8,0.3-0.8,0.8c0,0.4,0.3,0.8,0.8,0.8c0.4,0,0.8-0.4,0.8-0.8   C41.8,52.2,41.5,51.9,41,51.9z M55.2,52.4c0-0.4-0.4-0.8-0.8-0.8c-0.4,0-0.8,0.4-0.8,0.8c0,0.4,0.4,0.8,0.8,0.8   C54.8,53.2,55.2,52.9,55.2,52.4z M46.9,44.4c0-0.4-0.4-0.8-0.8-0.8c-0.4,0-0.8,0.4-0.8,0.9c0,0.4,0.4,0.8,0.8,0.8   C46.6,45.2,46.9,44.9,46.9,44.4z M40.6,43.1c0-0.4-0.3-0.8-0.8-0.8c-0.4,0-0.8,0.4-0.8,0.8c0,0.4,0.4,0.8,0.8,0.8   C40.2,43.9,40.6,43.5,40.6,43.1z M45.6,50.4c0-0.4-0.4-0.8-0.8-0.8c-0.4,0-0.8,0.3-0.8,0.8c0,0.4,0.4,0.8,0.8,0.8   C45.3,51.2,45.7,50.8,45.6,50.4z M59.5,60.6c0.4,0,0.8-0.4,0.8-0.8c0-0.4-0.3-0.8-0.8-0.8c-0.4,0-0.8,0.4-0.8,0.8   C58.7,60.2,59,60.6,59.5,60.6z M62.2,50.9c0-0.4-0.4-0.8-0.8-0.8c-0.4,0-0.8,0.4-0.8,0.8c0,0.4,0.4,0.8,0.8,0.8   C61.8,51.7,62.2,51.3,62.2,50.9z M48,51.9c0.4,0,0.8-0.4,0.8-0.8c0-0.5-0.4-0.8-0.8-0.8c-0.4,0-0.8,0.4-0.8,0.8   C47.2,51.5,47.6,51.9,48,51.9z M46.3,31.9c0-0.4-0.3-0.8-0.8-0.8c-0.4,0-0.8,0.4-0.8,0.8c0,0.4,0.4,0.8,0.8,0.8   C46,32.7,46.3,32.3,46.3,31.9z M39.3,49c0-0.4-0.3-0.8-0.8-0.8c-0.4,0-0.8,0.3-0.8,0.8c0,0.5,0.3,0.8,0.8,0.8   C38.9,49.8,39.3,49.5,39.3,49z M62.2,35.4c0-0.4-0.3-0.8-0.8-0.8c-0.4,0-0.8,0.4-0.8,0.8c0,0.4,0.4,0.8,0.8,0.8   C61.8,36.2,62.2,35.8,62.2,35.4z M45.6,65.9c0-0.4-0.4-0.8-0.8-0.8c-0.5,0-0.8,0.4-0.8,0.8c0,0.4,0.4,0.8,0.8,0.8   C45.3,66.7,45.6,66.3,45.6,65.9z M51.1,48.8c0,0.4,0.4,0.8,0.8,0.8c0.4,0,0.8-0.4,0.8-0.8c0-0.5-0.4-0.8-0.8-0.8   C51.4,48,51.1,48.4,51.1,48.8z M55.1,68c0-0.4-0.3-0.8-0.8-0.8c-0.4,0-0.8,0.3-0.8,0.8c0,0.5,0.3,0.8,0.8,0.8   C54.8,68.8,55.1,68.4,55.1,68z M60.3,44.3c0-0.4-0.4-0.8-0.8-0.8c-0.4,0-0.8,0.3-0.8,0.8c0,0.5,0.4,0.8,0.8,0.8   C59.9,45,60.3,44.7,60.3,44.3z M42.3,61.5c-0.4,0-0.8,0.4-0.8,0.8c0,0.4,0.4,0.8,0.8,0.8c0.4,0,0.8-0.4,0.8-0.8   C43.1,61.8,42.7,61.4,42.3,61.5z M57.6,52.3c-0.4,0-0.8,0.3-0.8,0.8c0,0.5,0.4,0.8,0.8,0.8c0.4,0,0.8-0.4,0.8-0.8   C58.3,52.7,58,52.3,57.6,52.3z M58.4,37.6c0-0.4-0.4-0.8-0.8-0.8c-0.4,0-0.8,0.4-0.8,0.8c0,0.4,0.4,0.8,0.8,0.8   C58,38.4,58.4,38,58.4,37.6z M51.9,34.1c0.4,0,0.8-0.4,0.8-0.8c0-0.5-0.4-0.8-0.8-0.8c-0.4,0-0.8,0.4-0.8,0.8   C51.1,33.7,51.5,34.1,51.9,34.1z M60.9,56.8c0-0.4-0.4-0.8-0.8-0.8c-0.4,0-0.8,0.3-0.8,0.8c0,0.4,0.4,0.8,0.8,0.8   C60.5,57.6,60.9,57.2,60.9,56.8z M46.7,56.2c-0.4,0-0.8,0.4-0.8,0.8c0,0.4,0.4,0.8,0.8,0.8c0.4,0,0.8-0.4,0.8-0.8   C47.5,56.6,47.2,56.2,46.7,56.2z M59.7,47.2c0-0.4-0.4-0.8-0.8-0.8c-0.4,0-0.8,0.4-0.8,0.8c0,0.4,0.4,0.8,0.8,0.8   C59.3,48,59.7,47.6,59.7,47.2z M43.1,46.8c0-0.4-0.3-0.8-0.7-0.8c-0.4,0-0.8,0.3-0.8,0.7c0,0.5,0.3,0.9,0.8,0.9   C42.7,47.5,43.1,47.2,43.1,46.8z M51.2,37c0.4,0,0.8-0.3,0.8-0.8c0-0.4-0.3-0.8-0.8-0.8c-0.4,0-0.8,0.4-0.8,0.8   C50.5,36.7,50.8,37,51.2,37z M58.3,68.7c0-0.4-0.4-0.8-0.8-0.8c-0.4,0-0.8,0.4-0.8,0.8c0,0.4,0.4,0.8,0.8,0.8   C58,69.5,58.3,69.1,58.3,68.7z M55.1,33.2c-0.4,0-0.8,0.4-0.8,0.8c0,0.5,0.4,0.8,0.8,0.8c0.4,0,0.8-0.4,0.8-0.8   C55.8,33.5,55.5,33.2,55.1,33.2z M48,67.4c0.4,0,0.8-0.4,0.8-0.8c0-0.4-0.4-0.8-0.8-0.8c-0.4,0-0.8,0.4-0.8,0.8   C47.2,67,47.6,67.4,48,67.4z M42.5,34.2c0-0.4-0.3-0.8-0.7-0.8c-0.4,0-0.8,0.3-0.8,0.8c0,0.4,0.3,0.8,0.8,0.8   C42.1,35,42.5,34.6,42.5,34.2z M42.5,49.7c0-0.4-0.4-0.8-0.8-0.8c-0.5,0-0.8,0.4-0.8,0.8c0,0.4,0.4,0.8,0.8,0.8   C42.1,50.5,42.5,50.1,42.5,49.7z M49.5,32.6c0-0.4-0.4-0.8-0.8-0.8c-0.4,0-0.8,0.4-0.8,0.8c0,0.5,0.4,0.8,0.8,0.8   C49.2,33.4,49.5,33,49.5,32.6z M51.8,63.5c-0.4,0-0.8,0.4-0.8,0.8c0,0.4,0.4,0.8,0.8,0.8c0.4,0,0.8-0.4,0.8-0.8   C52.6,63.9,52.2,63.5,51.8,63.5z M35.3,64.6c0.4,0,0.8-0.3,0.8-0.8c0-0.5-0.3-0.8-0.8-0.8c-0.4,0-0.8,0.3-0.8,0.8   C34.5,64.3,34.8,64.6,35.3,64.6z M46.2,62.9c0-0.4-0.3-0.8-0.8-0.8c-0.5,0-0.8,0.4-0.8,0.8c0,0.4,0.4,0.8,0.8,0.8   C45.9,63.7,46.2,63.4,46.2,62.9z M56.4,62.1c0-0.4-0.3-0.8-0.8-0.8c-0.4,0-0.8,0.4-0.8,0.8c0,0.4,0.4,0.8,0.8,0.8   C56.1,62.8,56.4,62.5,56.4,62.1z M49.3,61.5c0.4,0,0.8-0.3,0.8-0.8c0-0.5-0.4-0.8-0.8-0.8c-0.4,0-0.8,0.4-0.8,0.8   C48.5,61.1,48.8,61.5,49.3,61.5z M56.3,58.3c-0.4,0-0.8,0.3-0.8,0.8c0,0.4,0.3,0.8,0.8,0.8c0.4,0,0.8-0.3,0.8-0.8   C57.1,58.7,56.7,58.3,56.3,58.3z M64.6,35.2c-0.4,0-0.8,0.4-0.8,0.8c0,0.5,0.4,0.8,0.8,0.8c0.4,0,0.8-0.4,0.8-0.8   C65.4,35.6,65,35.2,64.6,35.2z M52,67.3c0-0.4-0.4-0.8-0.8-0.8c-0.4,0-0.8,0.4-0.8,0.8c0,0.4,0.4,0.8,0.8,0.8   C51.6,68.1,52,67.7,52,67.3z M53.1,42.1c-0.4,0-0.8,0.4-0.8,0.8c0,0.4,0.4,0.8,0.9,0.8c0.4,0,0.8-0.4,0.7-0.8   C53.9,42.4,53.5,42.1,53.1,42.1z M42.3,30.4c-0.4,0-0.8,0.4-0.8,0.8c0,0.4,0.4,0.8,0.8,0.8c0.4,0,0.8-0.4,0.7-0.8   C43.1,30.7,42.8,30.4,42.3,30.4z M58.3,33.9c-0.4,0-0.8,0.3-0.8,0.8c0,0.5,0.3,0.8,0.8,0.8c0.4,0,0.8-0.4,0.8-0.8   C59,34.2,58.7,33.9,58.3,33.9z M41.6,64.4c-0.4,0-0.8,0.3-0.8,0.8c0,0.4,0.4,0.8,0.8,0.8c0.4,0,0.8-0.4,0.8-0.8   C42.4,64.8,42.1,64.4,41.6,64.4z M55.8,65c0-0.4-0.3-0.8-0.8-0.8c-0.5,0-0.8,0.3-0.8,0.8c0,0.4,0.4,0.8,0.8,0.8   C55.4,65.8,55.8,65.5,55.8,65z M43.6,41.6c0.4,0,0.8-0.3,0.8-0.8c0-0.4-0.4-0.8-0.8-0.8c-0.4,0-0.8,0.4-0.8,0.8   C42.8,41.2,43.2,41.6,43.6,41.6z M49.4,63.6c0-0.4-0.4-0.8-0.8-0.8c-0.5,0-0.8,0.4-0.8,0.8c0,0.4,0.4,0.8,0.8,0.8   C49.1,64.4,49.4,64.1,49.4,63.6z M40.4,40.9c0.4,0,0.8-0.4,0.8-0.8c0-0.4-0.4-0.8-0.8-0.8c-0.4,0-0.8,0.4-0.8,0.8   C39.6,40.6,40,40.9,40.4,40.9z M45.7,34.9c0-0.4-0.4-0.8-0.8-0.8c-0.4,0-0.8,0.4-0.7,0.8c0,0.4,0.4,0.8,0.8,0.8   C45.3,35.6,45.7,35.3,45.7,34.9z M39.9,61.6c0-0.4-0.4-0.8-0.8-0.8c-0.4,0-0.8,0.3-0.8,0.8c0,0.5,0.4,0.8,0.8,0.8   C39.5,62.4,39.9,62,39.9,61.6z M52.4,60.6c-0.4,0-0.8,0.3-0.8,0.8c0,0.4,0.3,0.8,0.8,0.8c0.4,0,0.8-0.4,0.8-0.8   C53.2,60.9,52.9,60.6,52.4,60.6z M48.9,35.6c0-0.4-0.3-0.8-0.8-0.8c-0.4,0-0.8,0.3-0.8,0.8c0,0.4,0.4,0.8,0.8,0.8   C48.5,36.4,48.8,36,48.9,35.6z M45,37.8c0-0.4-0.4-0.8-0.8-0.8c-0.4,0-0.8,0.3-0.8,0.8c0,0.4,0.4,0.8,0.8,0.8   C44.7,38.6,45,38.2,45,37.8z M37.3,57.9c0-0.4-0.3-0.8-0.8-0.8c-0.4,0-0.8,0.4-0.8,0.8c0,0.4,0.4,0.8,0.8,0.8   C37,58.7,37.3,58.4,37.3,57.9z M56.9,55.3c-0.4,0-0.8,0.3-0.8,0.8c0,0.4,0.3,0.8,0.7,0.8c0.5,0,0.8-0.3,0.8-0.8   C57.7,55.7,57.4,55.3,56.9,55.3z M53.8,39.1c-0.4,0-0.8,0.4-0.8,0.8c0,0.4,0.4,0.8,0.8,0.8c0.4,0,0.8-0.4,0.8-0.8   C54.6,39.5,54.2,39.1,53.8,39.1z M59,50.2c0-0.4-0.3-0.8-0.8-0.8c-0.4,0-0.8,0.3-0.8,0.8c0,0.4,0.4,0.8,0.8,0.8   C58.7,51,59,50.6,59,50.2z M54.4,37.7c0.4,0,0.8-0.3,0.8-0.7c0-0.5-0.3-0.8-0.8-0.8c-0.4,0-0.8,0.3-0.8,0.8   C53.6,37.4,54,37.7,54.4,37.7z M50.7,57.7c0-0.4-0.3-0.8-0.8-0.8c-0.4,0-0.8,0.4-0.8,0.8c0,0.4,0.4,0.8,0.8,0.8   C50.3,58.5,50.7,58.1,50.7,57.7z M41.1,36.4c-0.4,0-0.8,0.3-0.8,0.8c0,0.4,0.3,0.8,0.8,0.8c0.5,0,0.8-0.3,0.8-0.8   C41.9,36.7,41.5,36.4,41.1,36.4z M53.9,58.4c0-0.4-0.4-0.8-0.8-0.8c-0.4,0-0.8,0.3-0.8,0.8c0,0.5,0.4,0.8,0.8,0.8   C53.6,59.2,53.9,58.8,53.9,58.4z M42.9,43c-0.4,0-0.8,0.3-0.8,0.8c0,0.5,0.4,0.8,0.8,0.8c0.4,0,0.8-0.4,0.8-0.8   C43.7,43.3,43.4,43,42.9,43z M60.8,39.1c0.4,0,0.8-0.4,0.8-0.8c0-0.4-0.4-0.8-0.8-0.8c-0.4,0-0.8,0.4-0.8,0.8   C60,38.8,60.4,39.1,60.8,39.1z M42.9,58.5c-0.4,0-0.8,0.3-0.8,0.8c0,0.4,0.3,0.8,0.7,0.8c0.4,0,0.8-0.3,0.8-0.8   C43.7,58.9,43.4,58.5,42.9,58.5z M48.7,47.3c-0.4,0-0.8,0.3-0.8,0.8c0,0.4,0.3,0.8,0.8,0.8c0.5,0,0.8-0.3,0.8-0.8   C49.5,47.7,49.1,47.3,48.7,47.3z M46.9,60c0-0.4-0.4-0.8-0.8-0.8c-0.4,0-0.8,0.4-0.8,0.8c0,0.4,0.4,0.8,0.8,0.8   C46.5,60.8,46.9,60.4,46.9,60z M60.7,53c-0.4,0-0.8,0.3-0.8,0.8c0,0.4,0.3,0.8,0.8,0.8c0.5,0,0.8-0.3,0.8-0.8   C61.5,53.4,61.2,53,60.7,53z M36.7,60.9c0-0.4-0.3-0.8-0.8-0.8c-0.5,0-0.8,0.3-0.8,0.8c0,0.4,0.4,0.8,0.8,0.8   C36.3,61.7,36.7,61.3,36.7,60.9z M63.4,42.8c0.4,0,0.8-0.4,0.8-0.8c0-0.4-0.4-0.8-0.8-0.8c-0.4,0-0.8,0.4-0.8,0.8   C62.5,42.4,62.9,42.8,63.4,42.8z M64.8,39c0-0.4-0.3-0.8-0.8-0.8c-0.4,0-0.8,0.3-0.8,0.7c0,0.5,0.3,0.8,0.8,0.8   C64.4,39.8,64.7,39.5,64.8,39z M51.4,39.2c0-0.4-0.4-0.8-0.8-0.8c-0.5,0-0.8,0.4-0.8,0.8c0,0.4,0.4,0.8,0.8,0.7   C51.1,40,51.4,39.6,51.4,39.2z M47.6,41.5c0-0.4-0.3-0.8-0.8-0.8c-0.4,0-0.8,0.3-0.8,0.8c0,0.5,0.4,0.8,0.8,0.8   C47.2,42.3,47.6,41.9,47.6,41.5z M39.2,64.5c0-0.4-0.3-0.8-0.8-0.8c-0.4,0-0.8,0.4-0.8,0.8c0,0.4,0.4,0.8,0.8,0.8   C38.9,65.3,39.2,65,39.2,64.5z M51.2,52.6c0.4,0,0.8-0.3,0.8-0.8c0-0.4-0.4-0.8-0.8-0.8c-0.4,0-0.8,0.4-0.8,0.8   C50.4,52.2,50.7,52.5,51.2,52.6z M37.8,52.8c0.4,0,0.8-0.3,0.9-0.7c0-0.4-0.3-0.8-0.8-0.9c-0.4,0-0.8,0.3-0.8,0.7   C37,52.4,37.3,52.7,37.8,52.8z M43.5,55.5c-0.4,0-0.8,0.4-0.8,0.8c0,0.5,0.4,0.8,0.8,0.8c0.4,0,0.8-0.4,0.7-0.8   C44.3,55.9,44,55.5,43.5,55.5z M60.9,41.3c0-0.4-0.3-0.8-0.8-0.8c-0.5,0-0.8,0.3-0.8,0.8c0,0.4,0.4,0.8,0.8,0.8   C60.6,42.1,60.9,41.7,60.9,41.3z M59.6,62.7c0-0.4-0.3-0.8-0.8-0.8c-0.5,0-0.8,0.4-0.8,0.8c0,0.4,0.4,0.8,0.8,0.8   C59.3,63.5,59.6,63.2,59.6,62.7z M48.2,38.5c0-0.4-0.3-0.8-0.7-0.8c-0.4,0-0.8,0.3-0.8,0.8c0,0.4,0.3,0.8,0.8,0.8   C47.9,39.3,48.2,39,48.2,38.5z M48.2,54.1c0-0.4-0.3-0.8-0.8-0.8c-0.5,0-0.8,0.3-0.8,0.8c0,0.4,0.3,0.8,0.8,0.8   C47.8,54.8,48.2,54.5,48.2,54.1z M62.8,47.9c0-0.4-0.3-0.8-0.8-0.8c-0.5,0-0.8,0.3-0.8,0.8c0,0.4,0.4,0.8,0.8,0.8   C62.5,48.7,62.8,48.4,62.8,47.9z M40.5,58.6c0-0.4-0.4-0.8-0.8-0.8c-0.4,0-0.8,0.4-0.8,0.8c0,0.5,0.4,0.8,0.8,0.8   C40.2,59.4,40.5,59,40.5,58.6z M51.7,45.8c0,0.4,0.3,0.8,0.7,0.9c0.4,0,0.8-0.3,0.9-0.7c0.1-0.5-0.3-0.8-0.7-0.9   C52.1,45,51.7,45.3,51.7,45.8z M39.1,46.8c0.4,0,0.8-0.3,0.8-0.8c0-0.4-0.3-0.8-0.7-0.8c-0.5,0-0.8,0.3-0.8,0.8   C38.3,46.5,38.7,46.8,39.1,46.8z M57.7,40.6c0-0.4-0.4-0.8-0.8-0.8c-0.4,0-0.8,0.4-0.8,0.8c0,0.4,0.4,0.8,0.8,0.8   C57.4,41.4,57.8,41,57.7,40.6z M50,43c0.4,0,0.8-0.4,0.8-0.8c0-0.4-0.4-0.8-0.8-0.8c-0.4,0-0.8,0.4-0.8,0.8   C49.2,42.6,49.5,43,50,43z M56.3,44.4c0.4,0,0.8-0.3,0.8-0.8c0-0.4-0.3-0.8-0.8-0.8c-0.5,0-0.8,0.3-0.8,0.8   C55.5,44,55.9,44.3,56.3,44.4z"></path>		<path class="st2" d="M35.1,45.3c-0.6-0.1-1,0.1-1.1,0.6c-0.1,0.6,0.2,0.9,0.7,1c-0.2,0.8-0.3,1.6-0.5,2.4c0,0.1-0.2,0.2-0.4,0.3   c-0.2,0.2-0.6,0.4-0.6,0.6c0,0.3,0.2,0.6,0.3,0.9c0.1,0.2,0.2,0.3,0.2,0.5c-0.1,0.7-0.3,1.4-0.4,2.1c0,0.1-0.2,0.3-0.3,0.4   c-0.6,0.3-0.7,0.8-0.3,1.3c0.1,0.1,0.1,0.3,0.1,0.4c-0.1,0.7-0.3,1.5-0.5,2.4c-2.1-3.2-4.1-6.3-6.1-9.4c3.1-2,6.2-4,9.4-6.1   C35.5,43.6,35.3,44.4,35.1,45.3z M31.6,52.9c0.5,0,0.8-0.4,0.8-0.8c0-0.4-0.4-0.8-0.8-0.8c-0.4,0-0.8,0.4-0.8,0.8   C30.8,52.5,31.2,52.9,31.6,52.9z M33.1,47.8c0-0.4-0.4-0.8-0.8-0.8c-0.5,0-0.8,0.4-0.8,0.8c0,0.5,0.4,0.8,0.8,0.8   C32.7,48.6,33.1,48.2,33.1,47.8z M29.9,50.1c0.4,0,0.8-0.4,0.8-0.8c0-0.4-0.3-0.8-0.8-0.8c-0.5,0-0.8,0.3-0.9,0.8   C29.1,49.7,29.4,50.1,29.9,50.1z"></path>		<path class="st2" d="M64.2,57.2c0.2-1,0.4-1.8,0.6-2.6c0.5,0,1-0.1,1.1-0.7c0.1-0.5-0.2-0.8-0.7-1c0.2-0.8,0.3-1.6,0.5-2.4   c0-0.1,0.2-0.2,0.3-0.3c0.2-0.2,0.5-0.3,0.6-0.6c0.2-0.3,0-0.7-0.3-0.9c-0.1-0.1-0.2-0.3-0.2-0.5c0.1-0.7,0.3-1.4,0.4-2.1   c0-0.2,0.2-0.3,0.4-0.4c0.5-0.3,0.6-0.8,0.3-1.3c-0.1-0.1-0.2-0.4-0.2-0.5c0.1-0.7,0.3-1.4,0.5-2.2c2.1,3.2,4.1,6.3,6.1,9.4   C70.5,53.2,67.4,55.2,64.2,57.2z M69.2,47.8c0-0.4-0.4-0.8-0.8-0.8c-0.5,0-0.8,0.3-0.8,0.8c0,0.4,0.4,0.8,0.8,0.8   C68.8,48.6,69.2,48.2,69.2,47.8z M70.1,49.7c-0.4,0-0.8,0.4-0.8,0.8c0,0.4,0.4,0.8,0.8,0.8c0.5,0,0.8-0.4,0.8-0.8   C71,50.1,70.6,49.7,70.1,49.7z M68.4,52.1c0-0.5-0.4-0.8-0.8-0.8c-0.4,0-0.8,0.4-0.8,0.8c0,0.4,0.4,0.8,0.8,0.8   C68.1,52.9,68.4,52.6,68.4,52.1z"></path>		<path class="st2" d="M44.3,70c-1.1,0.7-2,1.3-3,1.9c-0.6-1-1.3-2-1.9-3C41,69.3,42.6,69.7,44.3,70z"></path>		<path class="st2" d="M55.6,29.8c1.1-0.7,2-1.3,3-1.9c0.6,1,1.2,1.9,1.9,3C58.9,30.6,57.3,30.2,55.6,29.8z"></path>		<path class="st3" d="M55.7,47.3c-0.4,0-0.8-0.4-0.8-0.8c0-0.4,0.3-0.8,0.8-0.8c0.4,0,0.8,0.4,0.8,0.8C56.5,47,56.1,47.3,55.7,47.3   z"></path>		<path class="st3" d="M46.3,47.5c0,0.4-0.4,0.8-0.9,0.7c-0.5,0-0.8-0.4-0.7-0.9c0.1-0.4,0.4-0.7,0.9-0.7   C46,46.7,46.3,47.1,46.3,47.5z"></path>		<path class="st3" d="M53.7,56.2c-0.4,0-0.8-0.4-0.8-0.8c0-0.4,0.4-0.8,0.8-0.8c0.4,0,0.8,0.4,0.8,0.8   C54.5,55.9,54.2,56.2,53.7,56.2z"></path>		<path class="st3" d="M38,55c0,0.4-0.4,0.8-0.8,0.8c-0.4,0-0.8-0.4-0.8-0.8c0-0.4,0.4-0.8,0.8-0.8C37.7,54.2,38,54.5,38,55z"></path>		<path class="st3" d="M62.7,45.7c-0.4,0-0.8-0.3-0.8-0.8c0-0.4,0.4-0.8,0.8-0.8c0.4,0,0.8,0.4,0.8,0.8   C63.5,45.4,63.1,45.7,62.7,45.7z"></path>		<path class="st3" d="M55,48.7c0.4,0,0.8,0.4,0.8,0.8c0,0.4-0.4,0.8-0.8,0.8c-0.4,0-0.8-0.4-0.8-0.8C54.2,49.1,54.6,48.7,55,48.7z"></path>		<path class="st3" d="M59,65.7c0,0.4-0.3,0.8-0.8,0.8c-0.4,0-0.8-0.4-0.8-0.8c0-0.4,0.4-0.8,0.8-0.8C58.6,64.9,59,65.3,59,65.7z"></path>		<path class="st3" d="M40.4,56.4c-0.4,0-0.8-0.4-0.8-0.8c0-0.4,0.4-0.8,0.8-0.8c0.4,0,0.8,0.4,0.8,0.8   C41.1,56.1,40.8,56.4,40.4,56.4z"></path>		<path class="st3" d="M50.1,45.2c0,0.4-0.4,0.8-0.8,0.8c-0.5,0-0.8-0.4-0.8-0.8c0-0.4,0.4-0.8,0.8-0.7   C49.8,44.4,50.1,44.7,50.1,45.2z"></path>		<path class="st3" d="M51.4,54.7c0,0.4-0.3,0.8-0.8,0.8c-0.4,0-0.8-0.3-0.8-0.8c0-0.4,0.3-0.8,0.7-0.8C51,53.9,51.3,54.3,51.4,54.7   z"></path>		<path class="st3" d="M44.2,52.5c0.4,0,0.8,0.3,0.8,0.8c0,0.4-0.3,0.8-0.8,0.8c-0.4,0-0.8-0.4-0.8-0.8   C43.4,52.9,43.8,52.6,44.2,52.5z"></path>		<path class="st3" d="M41,51.9c0.4,0,0.8,0.4,0.8,0.8c0,0.4-0.4,0.8-0.8,0.8c-0.4,0-0.8-0.4-0.8-0.8C40.2,52.2,40.6,51.9,41,51.9z"></path>		<path class="st3" d="M55.2,52.4c0,0.4-0.3,0.8-0.8,0.8c-0.5,0-0.8-0.4-0.8-0.8c0-0.4,0.4-0.8,0.8-0.8C54.8,51.7,55.2,52,55.2,52.4   z"></path>		<path class="st3" d="M46.9,44.4c0,0.4-0.3,0.8-0.8,0.8c-0.4,0-0.8-0.3-0.8-0.8c0-0.5,0.3-0.8,0.8-0.9C46.5,43.6,46.9,44,46.9,44.4   z"></path>		<path class="st3" d="M40.6,43.1c0,0.4-0.4,0.8-0.8,0.8c-0.4,0-0.8-0.4-0.8-0.8c0-0.4,0.4-0.8,0.8-0.8   C40.2,42.3,40.6,42.7,40.6,43.1z"></path>		<path class="st3" d="M45.6,50.4c0,0.4-0.4,0.8-0.8,0.8c-0.4,0-0.8-0.4-0.8-0.8c0-0.4,0.4-0.8,0.8-0.8   C45.3,49.6,45.6,49.9,45.6,50.4z"></path>		<path class="st3" d="M59.5,60.6c-0.4,0-0.8-0.4-0.8-0.8c0-0.4,0.4-0.8,0.8-0.8c0.4,0,0.8,0.4,0.8,0.8   C60.2,60.2,59.9,60.6,59.5,60.6z"></path>		<path class="st3" d="M62.2,50.9c0,0.4-0.3,0.8-0.8,0.8c-0.4,0-0.8-0.3-0.8-0.8c0-0.5,0.3-0.8,0.8-0.8   C61.8,50.1,62.2,50.4,62.2,50.9z"></path>		<path class="st3" d="M48,51.9c-0.4,0-0.8-0.3-0.8-0.8c0-0.4,0.3-0.8,0.8-0.8c0.4,0,0.8,0.3,0.8,0.8C48.8,51.5,48.5,51.9,48,51.9z"></path>		<path class="st3" d="M46.3,31.9c0,0.4-0.3,0.8-0.8,0.8c-0.4,0-0.8-0.3-0.8-0.8c0-0.5,0.4-0.8,0.8-0.8C46,31.1,46.3,31.5,46.3,31.9   z"></path>		<path class="st3" d="M39.3,49c0,0.4-0.4,0.8-0.8,0.8c-0.4,0-0.8-0.4-0.8-0.8c0-0.4,0.4-0.8,0.8-0.8C38.9,48.2,39.3,48.6,39.3,49z"></path>		<path class="st3" d="M62.2,35.4c0,0.4-0.4,0.8-0.8,0.8c-0.4,0-0.8-0.4-0.8-0.8c0-0.4,0.4-0.8,0.8-0.8   C61.9,34.6,62.2,34.9,62.2,35.4z"></path>		<path class="st3" d="M45.6,65.9c0,0.4-0.3,0.8-0.8,0.8c-0.4,0-0.8-0.3-0.8-0.8c0-0.5,0.3-0.8,0.8-0.8   C45.2,65.1,45.6,65.5,45.6,65.9z"></path>		<path class="st3" d="M51.1,48.8c0-0.4,0.3-0.8,0.8-0.8c0.4,0,0.8,0.4,0.8,0.8c0,0.4-0.4,0.8-0.8,0.8   C51.4,49.6,51.1,49.3,51.1,48.8z"></path>		<path class="st3" d="M55.1,68c0,0.4-0.4,0.8-0.8,0.8c-0.5,0-0.8-0.4-0.8-0.8c0-0.4,0.4-0.8,0.8-0.8C54.8,67.2,55.1,67.6,55.1,68z"></path>		<path class="st3" d="M60.3,44.3c0,0.4-0.4,0.8-0.8,0.8c-0.4,0-0.8-0.4-0.8-0.8c0-0.4,0.4-0.8,0.8-0.8   C59.9,43.5,60.3,43.8,60.3,44.3z"></path>		<path class="st3" d="M42.3,61.5c0.4,0,0.8,0.4,0.8,0.8c0,0.4-0.4,0.8-0.8,0.8c-0.4,0-0.8-0.4-0.8-0.8   C41.5,61.8,41.8,61.5,42.3,61.5z"></path>		<path class="st3" d="M57.6,52.3c0.4,0,0.8,0.4,0.8,0.8c0,0.4-0.3,0.8-0.8,0.8c-0.4,0-0.8-0.4-0.8-0.8   C56.8,52.7,57.2,52.3,57.6,52.3z"></path>		<path class="st3" d="M58.4,37.6c0,0.4-0.4,0.8-0.8,0.8c-0.4,0-0.8-0.4-0.8-0.8c0-0.4,0.4-0.8,0.8-0.8C58,36.8,58.4,37.2,58.4,37.6   z"></path>		<path class="st3" d="M51.9,34.1c-0.4,0-0.8-0.3-0.8-0.8c0-0.4,0.3-0.8,0.8-0.8c0.5,0,0.8,0.3,0.8,0.8   C52.7,33.7,52.3,34.1,51.9,34.1z"></path>		<path class="st3" d="M60.9,56.8c0,0.4-0.4,0.8-0.8,0.8c-0.4,0-0.8-0.4-0.8-0.8c0-0.4,0.4-0.8,0.8-0.8C60.5,56,60.9,56.4,60.9,56.8   z"></path>		<path class="st3" d="M46.7,56.2c0.4,0,0.8,0.3,0.8,0.8c0,0.4-0.4,0.8-0.8,0.8c-0.4,0-0.8-0.4-0.8-0.8   C45.9,56.6,46.3,56.2,46.7,56.2z"></path>		<path class="st3" d="M59.7,47.2c0,0.4-0.3,0.8-0.8,0.8c-0.5,0-0.8-0.4-0.8-0.8c0-0.4,0.4-0.8,0.8-0.8   C59.3,46.4,59.6,46.8,59.7,47.2z"></path>		<path class="st3" d="M43.1,46.8c0,0.4-0.4,0.8-0.8,0.8c-0.4,0-0.8-0.4-0.8-0.9c0-0.4,0.4-0.8,0.8-0.7C42.8,46,43.1,46.3,43.1,46.8   z"></path>		<path class="st3" d="M51.2,37c-0.4,0-0.8-0.4-0.8-0.8c0-0.5,0.4-0.8,0.8-0.8c0.4,0,0.8,0.4,0.8,0.8C52,36.7,51.7,37,51.2,37z"></path>		<path class="st3" d="M58.3,68.7c0,0.4-0.4,0.8-0.8,0.8c-0.4,0-0.8-0.3-0.8-0.8c0-0.5,0.4-0.8,0.8-0.8C58,67.9,58.3,68.2,58.3,68.7   z"></path>		<path class="st3" d="M55.1,33.2c0.4,0,0.8,0.4,0.8,0.8c0,0.4-0.3,0.8-0.8,0.8c-0.5,0-0.8-0.4-0.8-0.8   C54.3,33.5,54.6,33.2,55.1,33.2z"></path>		<path class="st3" d="M48,67.4c-0.4,0-0.8-0.3-0.8-0.8c0-0.4,0.3-0.8,0.8-0.8c0.4,0,0.8,0.4,0.8,0.8C48.8,67,48.4,67.4,48,67.4z"></path>		<path class="st3" d="M42.5,34.2c0,0.4-0.4,0.8-0.8,0.8c-0.4,0-0.8-0.4-0.8-0.8c0-0.5,0.4-0.8,0.8-0.8   C42.2,33.4,42.5,33.8,42.5,34.2z"></path>		<path class="st3" d="M42.5,49.7c0,0.4-0.4,0.8-0.8,0.8c-0.4,0-0.8-0.3-0.8-0.8c0-0.5,0.4-0.8,0.8-0.8   C42.1,48.9,42.5,49.3,42.5,49.7z"></path>		<path class="st3" d="M49.5,32.6c0,0.4-0.3,0.8-0.8,0.8c-0.5,0-0.8-0.3-0.8-0.8c0-0.4,0.3-0.8,0.8-0.8   C49.1,31.8,49.5,32.1,49.5,32.6z"></path>		<path class="st3" d="M51.8,63.5c0.4,0,0.8,0.4,0.8,0.8c0,0.4-0.4,0.8-0.8,0.8c-0.4,0-0.8-0.4-0.8-0.8C51,63.9,51.4,63.5,51.8,63.5   z"></path>		<path class="st3" d="M35.3,64.6c-0.4,0-0.8-0.4-0.8-0.8c0-0.4,0.3-0.8,0.8-0.8c0.5,0,0.8,0.4,0.8,0.8C36,64.3,35.7,64.6,35.3,64.6   z"></path>		<path class="st3" d="M46.2,62.9c0,0.4-0.3,0.8-0.8,0.8c-0.4,0-0.8-0.3-0.8-0.8c0-0.5,0.3-0.8,0.8-0.8   C45.9,62.2,46.2,62.5,46.2,62.9z"></path>		<path class="st3" d="M56.4,62.1c0,0.4-0.4,0.8-0.8,0.8c-0.4,0-0.8-0.4-0.8-0.8c0-0.4,0.4-0.8,0.8-0.8   C56.1,61.3,56.4,61.6,56.4,62.1z"></path>		<path class="st3" d="M49.3,61.5c-0.4,0-0.8-0.3-0.8-0.8c0-0.4,0.3-0.8,0.8-0.8c0.5,0,0.8,0.3,0.8,0.8   C50.1,61.1,49.7,61.5,49.3,61.5z"></path>		<path class="st3" d="M56.3,58.3c0.4,0,0.8,0.4,0.8,0.8c0,0.4-0.4,0.8-0.8,0.8c-0.4,0-0.8-0.4-0.8-0.8   C55.5,58.6,55.9,58.3,56.3,58.3z"></path>		<path class="st3" d="M64.6,35.2c0.4,0,0.8,0.4,0.8,0.8c0,0.4-0.3,0.8-0.8,0.8c-0.5,0-0.8-0.4-0.8-0.8   C63.8,35.6,64.2,35.2,64.6,35.2z"></path>		<path class="st3" d="M52,67.3c0,0.4-0.3,0.8-0.8,0.8c-0.5,0-0.8-0.3-0.8-0.8c0-0.4,0.4-0.8,0.8-0.8C51.6,66.5,51.9,66.8,52,67.3z"></path>		<path class="st3" d="M53.1,42.1c0.4,0,0.8,0.3,0.8,0.8c0,0.4-0.3,0.8-0.7,0.8c-0.5,0-0.8-0.3-0.9-0.8   C52.3,42.5,52.7,42.1,53.1,42.1z"></path>		<path class="st3" d="M42.3,30.4c0.4,0,0.8,0.3,0.8,0.8c0,0.4-0.3,0.8-0.7,0.8c-0.4,0-0.8-0.3-0.8-0.8   C41.5,30.8,41.9,30.4,42.3,30.4z"></path>		<path class="st3" d="M58.3,33.9c0.4,0,0.8,0.4,0.8,0.8c0,0.4-0.4,0.8-0.8,0.8c-0.5,0-0.8-0.3-0.8-0.8   C57.5,34.2,57.8,33.9,58.3,33.9z"></path>		<path class="st3" d="M41.6,64.4c0.4,0,0.8,0.3,0.8,0.8c0,0.4-0.3,0.8-0.8,0.8c-0.5,0-0.8-0.4-0.8-0.8   C40.8,64.8,41.2,64.4,41.6,64.4z"></path>		<path class="st3" d="M55.8,65c0,0.4-0.3,0.8-0.8,0.8c-0.4,0-0.8-0.3-0.8-0.8c0-0.5,0.4-0.8,0.8-0.8C55.5,64.2,55.8,64.6,55.8,65z"></path>		<path class="st3" d="M43.6,41.6c-0.4,0-0.8-0.3-0.8-0.8c0-0.4,0.4-0.8,0.8-0.8c0.4,0,0.8,0.4,0.8,0.8C44.4,41.2,44,41.6,43.6,41.6   z"></path>		<path class="st3" d="M49.4,63.6c0,0.4-0.3,0.8-0.8,0.8c-0.4,0-0.8-0.3-0.8-0.8c0-0.5,0.3-0.8,0.8-0.8   C49.1,62.8,49.4,63.2,49.4,63.6z"></path>		<path class="st3" d="M40.4,40.9c-0.4,0-0.8-0.4-0.8-0.8c0-0.4,0.3-0.8,0.8-0.8c0.4,0,0.8,0.4,0.8,0.8   C41.2,40.5,40.8,40.9,40.4,40.9z"></path>		<path class="st3" d="M45.7,34.9c0,0.4-0.3,0.8-0.8,0.8c-0.4,0-0.8-0.3-0.8-0.8c0-0.4,0.3-0.8,0.7-0.8   C45.3,34.1,45.7,34.4,45.7,34.9z"></path>		<path class="st3" d="M39.9,61.6c0,0.4-0.3,0.8-0.8,0.8c-0.4,0-0.8-0.4-0.8-0.8c0-0.4,0.4-0.8,0.8-0.8   C39.5,60.8,39.9,61.1,39.9,61.6z"></path>		<path class="st3" d="M52.4,60.6c0.4,0,0.8,0.3,0.8,0.8c0,0.4-0.4,0.8-0.8,0.8c-0.4,0-0.8-0.4-0.8-0.8C51.7,60.9,52,60.6,52.4,60.6   z"></path>		<path class="st3" d="M48.9,35.6c0,0.4-0.4,0.8-0.8,0.8c-0.4,0-0.8-0.4-0.8-0.8c0-0.4,0.4-0.8,0.8-0.8   C48.5,34.8,48.9,35.2,48.9,35.6z"></path>		<path class="st3" d="M45,37.8c0,0.4-0.4,0.8-0.8,0.8c-0.4,0-0.8-0.4-0.8-0.8c0-0.4,0.4-0.8,0.8-0.8C44.7,37,45,37.4,45,37.8z"></path>		<path class="st3" d="M37.3,57.9c0,0.4-0.4,0.8-0.8,0.8c-0.4,0-0.8-0.4-0.8-0.8c0-0.4,0.4-0.8,0.8-0.8C37,57.1,37.4,57.5,37.3,57.9   z"></path>		<path class="st3" d="M56.9,55.3c0.4,0,0.8,0.4,0.8,0.8c0,0.5-0.4,0.8-0.8,0.8c-0.4,0-0.8-0.4-0.7-0.8   C56.2,55.6,56.5,55.3,56.9,55.3z"></path>		<path class="st3" d="M53.8,39.1c0.4,0,0.8,0.4,0.8,0.8c0,0.4-0.4,0.8-0.8,0.8c-0.4,0-0.8-0.4-0.8-0.8C53,39.5,53.3,39.1,53.8,39.1   z"></path>		<path class="st3" d="M59,50.2c0,0.4-0.3,0.8-0.8,0.8c-0.4,0-0.8-0.4-0.8-0.8c0-0.4,0.4-0.8,0.8-0.8C58.7,49.4,59,49.7,59,50.2z"></path>		<path class="st3" d="M54.4,37.7c-0.4,0-0.8-0.4-0.8-0.8c0-0.4,0.3-0.8,0.8-0.8c0.5,0,0.8,0.4,0.8,0.8   C55.2,37.4,54.8,37.7,54.4,37.7z"></path>		<path class="st3" d="M50.7,57.7c0,0.4-0.4,0.8-0.8,0.8c-0.4,0-0.8-0.4-0.8-0.8c0-0.4,0.4-0.8,0.8-0.8   C50.4,56.9,50.7,57.3,50.7,57.7z"></path>		<path class="st3" d="M41.1,36.4c0.4,0,0.8,0.3,0.8,0.8c0,0.5-0.4,0.8-0.8,0.8c-0.4,0-0.8-0.4-0.8-0.8   C40.3,36.7,40.6,36.4,41.1,36.4z"></path>		<path class="st3" d="M53.9,58.4c0,0.4-0.3,0.8-0.8,0.8c-0.5,0-0.8-0.3-0.8-0.8c0-0.4,0.3-0.8,0.8-0.8   C53.5,57.6,53.9,57.9,53.9,58.4z"></path>		<path class="st3" d="M42.9,43c0.4,0,0.8,0.3,0.8,0.8c0,0.4-0.3,0.8-0.8,0.8c-0.5,0-0.8-0.3-0.8-0.8C42.2,43.3,42.5,43,42.9,43z"></path>		<path class="st3" d="M60.8,39.1c-0.4,0-0.8-0.3-0.8-0.8c0-0.5,0.3-0.8,0.8-0.8c0.4,0,0.8,0.4,0.8,0.8   C61.6,38.8,61.2,39.1,60.8,39.1z"></path>		<path class="st3" d="M42.9,58.5c0.4,0,0.8,0.4,0.8,0.8c0,0.4-0.4,0.8-0.8,0.8c-0.4,0-0.8-0.4-0.7-0.8   C42.1,58.8,42.5,58.5,42.9,58.5z"></path>		<path class="st3" d="M48.7,47.3c0.4,0,0.8,0.4,0.8,0.8c0,0.5-0.4,0.8-0.8,0.8c-0.4,0-0.8-0.4-0.8-0.8   C47.9,47.7,48.3,47.3,48.7,47.3z"></path>		<path class="st3" d="M46.9,60c0,0.4-0.4,0.8-0.8,0.8c-0.4,0-0.8-0.4-0.8-0.8c0-0.4,0.4-0.8,0.8-0.8C46.5,59.2,46.9,59.6,46.9,60z"></path>		<path class="st3" d="M60.7,53c0.4,0,0.8,0.3,0.8,0.8c0,0.5-0.4,0.8-0.8,0.8c-0.4,0-0.8-0.4-0.8-0.8C60,53.4,60.3,53,60.7,53z"></path>		<path class="st3" d="M36.7,60.9c0,0.4-0.4,0.8-0.8,0.8c-0.4,0-0.8-0.3-0.8-0.8c0-0.5,0.4-0.8,0.8-0.8   C36.4,60.1,36.7,60.4,36.7,60.9z"></path>		<path class="st3" d="M63.4,42.8c-0.4,0-0.8-0.3-0.8-0.8c0-0.4,0.3-0.8,0.8-0.8c0.4,0,0.8,0.4,0.8,0.8   C64.1,42.4,63.8,42.8,63.4,42.8z"></path>		<path class="st3" d="M64.8,39c0,0.4-0.4,0.8-0.8,0.8c-0.5,0-0.8-0.4-0.8-0.8c0-0.4,0.4-0.8,0.8-0.7C64.4,38.2,64.8,38.6,64.8,39z"></path>		<path class="st3" d="M51.4,39.2c0,0.4-0.3,0.8-0.8,0.8c-0.4,0-0.8-0.3-0.8-0.7c0-0.5,0.3-0.8,0.8-0.8C51,38.4,51.4,38.8,51.4,39.2   z"></path>		<path class="st3" d="M47.6,41.5c0,0.4-0.3,0.8-0.8,0.8c-0.5,0-0.8-0.3-0.8-0.8c0-0.4,0.3-0.8,0.8-0.8C47.2,40.7,47.6,41,47.6,41.5   z"></path>		<path class="st3" d="M39.2,64.5c0,0.4-0.4,0.8-0.8,0.8c-0.4,0-0.8-0.4-0.8-0.8c0-0.4,0.4-0.8,0.8-0.8   C38.9,63.8,39.3,64.1,39.2,64.5z"></path>		<path class="st3" d="M51.2,52.6c-0.4,0-0.8-0.3-0.8-0.8c0-0.4,0.3-0.8,0.8-0.8c0.5,0,0.8,0.4,0.8,0.8C52,52.2,51.6,52.6,51.2,52.6   z"></path>		<path class="st3" d="M37.8,52.8c-0.4,0-0.7-0.4-0.7-0.8c0-0.4,0.4-0.8,0.8-0.7c0.5,0,0.8,0.4,0.8,0.9   C38.6,52.5,38.2,52.8,37.8,52.8z"></path>		<path class="st3" d="M43.5,55.5c0.4,0,0.8,0.3,0.8,0.8c0,0.4-0.3,0.8-0.7,0.8c-0.5,0-0.8-0.3-0.8-0.8   C42.8,55.9,43.1,55.5,43.5,55.5z"></path>		<path class="st3" d="M60.9,41.3c0,0.4-0.3,0.8-0.8,0.8c-0.4,0-0.8-0.3-0.8-0.8c0-0.5,0.3-0.8,0.8-0.8   C60.6,40.5,60.9,40.8,60.9,41.3z"></path>		<path class="st3" d="M59.6,62.7c0,0.4-0.3,0.8-0.8,0.8c-0.4,0-0.8-0.3-0.8-0.8c0-0.5,0.3-0.8,0.8-0.8C59.3,62,59.6,62.3,59.6,62.7   z"></path>		<path class="st3" d="M48.2,38.5c0,0.4-0.4,0.8-0.8,0.8c-0.4,0-0.8-0.4-0.8-0.8c0-0.4,0.4-0.8,0.8-0.8   C47.9,37.7,48.2,38.1,48.2,38.5z"></path>		<path class="st3" d="M48.2,54.1c0,0.4-0.4,0.8-0.8,0.8c-0.4,0-0.8-0.3-0.8-0.8c0-0.5,0.4-0.8,0.8-0.8   C47.8,53.3,48.2,53.6,48.2,54.1z"></path>		<path class="st3" d="M62.8,47.9c0,0.4-0.4,0.8-0.8,0.8c-0.4,0-0.8-0.4-0.8-0.8c0-0.5,0.4-0.8,0.8-0.8   C62.5,47.1,62.8,47.5,62.8,47.9z"></path>		<path class="st3" d="M40.5,58.6c0,0.4-0.3,0.8-0.8,0.8c-0.5,0-0.8-0.3-0.8-0.8c0-0.4,0.3-0.8,0.8-0.8   C40.2,57.8,40.5,58.1,40.5,58.6z"></path>		<path class="st3" d="M51.7,45.8c0-0.4,0.4-0.7,0.8-0.7c0.5,0,0.8,0.4,0.7,0.9c0,0.4-0.4,0.7-0.9,0.7C52,46.6,51.7,46.2,51.7,45.8z   "></path>		<path class="st3" d="M39.1,46.8c-0.4,0-0.8-0.4-0.8-0.8c0-0.5,0.4-0.8,0.8-0.8c0.4,0,0.8,0.4,0.7,0.8   C39.9,46.5,39.5,46.8,39.1,46.8z"></path>		<path class="st3" d="M57.7,40.6c0,0.4-0.3,0.8-0.8,0.8c-0.5,0-0.8-0.3-0.8-0.8c0-0.4,0.4-0.8,0.8-0.8   C57.4,39.8,57.7,40.1,57.7,40.6z"></path>		<path class="st3" d="M50,43c-0.4,0-0.8-0.4-0.8-0.8c0-0.4,0.3-0.8,0.8-0.8c0.4,0,0.8,0.4,0.8,0.8C50.8,42.6,50.4,43,50,43z"></path>		<path class="st3" d="M56.3,44.4c-0.4,0-0.8-0.4-0.8-0.8c0-0.5,0.4-0.8,0.8-0.8c0.4,0,0.8,0.4,0.8,0.8C57.1,44,56.7,44.4,56.3,44.4   z"></path>		<path class="st3" d="M31.6,52.9c-0.5,0-0.8-0.3-0.8-0.8c0-0.4,0.4-0.8,0.8-0.8c0.5,0,0.8,0.3,0.8,0.8   C32.4,52.5,32.1,52.9,31.6,52.9z"></path>		<path class="st3" d="M33.1,47.8c0,0.4-0.4,0.8-0.8,0.8c-0.4,0-0.8-0.4-0.8-0.8c0-0.5,0.3-0.8,0.8-0.8   C32.7,46.9,33.1,47.3,33.1,47.8z"></path>		<path class="st3" d="M29.9,50.1c-0.4,0-0.8-0.4-0.8-0.9c0-0.4,0.4-0.8,0.9-0.8c0.4,0,0.8,0.4,0.8,0.8   C30.7,49.8,30.3,50.1,29.9,50.1z"></path>		<path class="st3" d="M69.2,47.8c0,0.4-0.4,0.8-0.8,0.8c-0.4,0-0.8-0.4-0.8-0.8c0-0.4,0.4-0.8,0.8-0.8   C68.9,46.9,69.2,47.3,69.2,47.8z"></path>		<path class="st3" d="M70.1,49.7c0.4,0,0.8,0.4,0.8,0.8c0,0.4-0.4,0.8-0.8,0.8c-0.5,0-0.8-0.4-0.8-0.8C69.3,50,69.7,49.7,70.1,49.7   z"></path>		<path class="st3" d="M68.4,52.1c0,0.5-0.3,0.8-0.8,0.8c-0.4,0-0.8-0.4-0.8-0.8c0-0.4,0.4-0.8,0.8-0.8C68,51.3,68.4,51.7,68.4,52.1   z"></path>	</g></g></svg>