<svg xmlns="http://www.w3.org/2000/svg" xmlns:xlink="http://www.w3.org/1999/xlink" id="Layer_1" x="0px" y="0px" viewBox="0 0 100 100" style="enable-background:new 0 0 100 100;" xml:space="preserve"><style type="text/css">	.st0{fill:#E2E2E2;}	.st1{fill:#414042;}	.st2{fill:#FFFFFF;}	.st3{fill:#333333;}	.st4{fill:none;stroke:#333333;stroke-width:6.3584;stroke-linecap:round;stroke-miterlimit:10;}	.st5{fill:none;stroke:#59595C;stroke-width:5;stroke-miterlimit:10;}	.st6{fill:none;stroke:#59595C;stroke-width:5.45;stroke-miterlimit:10;}	.st7{fill:#333333;stroke:#333333;stroke-width:0.5;stroke-miterlimit:10;}	.st8{fill:none;stroke:#333333;stroke-width:5;stroke-miterlimit:10;}	.st9{fill:none;stroke:#333333;stroke-width:3.7565;stroke-linecap:round;stroke-linejoin:round;stroke-miterlimit:10;}	.st10{fill:#59595C;}	.st11{fill:#808184;}	.st12{fill:none;stroke:#404041;stroke-width:2.7935;stroke-miterlimit:10;}	.st13{fill:none;stroke:#404041;stroke-width:2.7935;stroke-linecap:round;stroke-miterlimit:10;}	.st14{fill:#FFFFFF;stroke:#000000;stroke-width:5.9967;stroke-linecap:round;stroke-miterlimit:10;}	.st15{fill:none;stroke:#000000;stroke-width:4.4976;stroke-linecap:round;stroke-miterlimit:10;}	.st16{fill:none;stroke:#000000;stroke-width:2.9984;stroke-linecap:round;stroke-miterlimit:10;}	.st17{fill:none;stroke:#333333;stroke-width:6.155;stroke-miterlimit:10;}	.st18{fill:none;stroke:#333333;stroke-width:3.0775;stroke-linecap:round;stroke-miterlimit:10;}	.st19{fill:none;stroke:#333333;stroke-width:6.155;stroke-linecap:round;stroke-miterlimit:10;}	.st20{fill:none;stroke:#000000;stroke-width:6.155;stroke-linecap:round;stroke-miterlimit:10;}	.st21{fill:#FFFFFF;stroke:#58595B;stroke-width:5.415;stroke-miterlimit:10;}	.st22{fill:none;stroke:#58595B;stroke-width:5.415;stroke-miterlimit:10;}	.st23{fill:#58595B;}	.st24{fill:#FEFEFE;}	.st25{fill:none;stroke:#000000;stroke-width:3.5761;stroke-miterlimit:10;}	.st26{stroke:#000000;stroke-width:2.5836;stroke-miterlimit:10;}	.st27{fill:none;stroke:#58595B;stroke-width:5.4;stroke-miterlimit:10;}	.st28{fill:#808285;}	.st29{fill:#FFFFFF;stroke:#414042;stroke-width:5.5602;stroke-linecap:round;stroke-miterlimit:10;}	.st30{fill:none;stroke:#000000;stroke-width:4.1701;stroke-linecap:round;stroke-miterlimit:10;}	.st31{fill:none;stroke:#414042;stroke-width:2.7801;stroke-linecap:round;stroke-miterlimit:10;}	.st32{fill:none;stroke:#414042;stroke-width:4.1701;stroke-linecap:round;stroke-miterlimit:10;}	.st33{fill:#FFFFFF;stroke:#414042;stroke-width:3;stroke-linecap:round;stroke-linejoin:round;stroke-miterlimit:10;}	.st34{fill:#FDFEFD;}	.st35{fill:none;stroke:#1A1A1A;stroke-width:4.2092;stroke-miterlimit:10;}	.st36{fill:#1A1A1A;}</style><g>	<g>		<circle class="st0" cx="50.5" cy="49.8" r="48.5"></circle>	</g>	<g>		<g>			<path class="st2" d="M76.7,68.9c-0.9-2.3-1.7-4.5-2.6-6.8c-2.2-5.9-4.5-11.7-6.7-17.6c-0.9-2.4-1.9-4.9-2.8-7.3    c-0.3-0.7-0.5-1.9-1.1-2.5c-1.2-1.3-8.2-2.6-6.3,0.6c0.4,0.7,1.1,1.2,1.5,1.9c0.8,1.3,0.5,3-0.3,4.2c-0.8,1.3-2,2.2-3.2,3.1    c-2,1.5-4,3-6,4.5c-1.1-3-3.1-5.6-5.5-7.6c-0.5-0.4-0.9-0.7-1.2-1.3c-0.3-0.5-0.3-1.1-0.3-1.6c-0.1-1.6-0.1-3.2-0.2-4.8    c-1.9-0.2-4.1,0.2-5.2,2c-0.8,1.3-1.2,3-1.7,4.3c-3.7,9.4-7.3,18.8-11,28.3l2.5,3.9L71.6,73L76.7,68.9z"></path>		</g>		<g>			<path class="st3" d="M50.5,73c-6.7,0-13.4,0-20.1,0c-1.3,0-2.5-0.2-3.6-0.8c-1.5-0.8-2.5-2.1-2.5-3.9c-0.1-3.1,1.2-5.8,1.9-7.7    c2.9-8,5.8-16.1,8.7-24.1c0.3-0.9,0.9-1.7,1.4-2.5c0.3-0.5,0.9-0.5,1.4-0.1c0.5,0.3,0.6,0.9,0.2,1.3c-1.2,1.4-1.5,3.1-2.1,4.7    c-3,8.4-6,16.7-9,25.1c-0.2,0.5-0.3,0.9-0.4,1.4c-0.4,2.3,0.9,3.7,3.6,3.9c0.2,0,0.5,0,0.7,0c13.3,0,26.6,0,39.9,0    c0.7,0,1.5-0.1,2.1-0.3c1.9-0.6,2.6-2.1,2-4c-0.7-2.2-1.5-4.3-2.2-6.5c-2.7-7.4-5.3-14.8-8-22.2c-0.3-0.7-0.7-1.3-1.1-2    c-0.4-0.5-0.4-1,0-1.5c0.4-0.4,1.2-0.4,1.5,0.1c0.6,1,1.3,2,1.7,3.1c3.3,9,6.5,17.9,9.7,26.9c0.4,1.1,0.6,2.3,0.6,3.5    c0.1,2.2,0-2.6,0-0.4c0.1,4-2.7,5.4-5.2,5.7c-0.4,0-0.8,0-1.2,0C63.8,73,57.1,73,50.5,73z"></path>		</g>		<g>			<path class="st3" d="M34.5,59.1c0-1.4,0.6-2.4,1.9-2.7c1.6-0.4,3.3-0.7,4.9-1c1.9-0.3,3.9-0.4,5.7-1.3c0.5-0.2,1-0.6,1.5-0.9    c0.5-0.4,1.1-0.4,1.5,0.1c0.4,0.4,0.3,1.1-0.3,1.6c-1.3,1.1-2.9,1.7-4.6,2c-2.2,0.4-4.5,0.6-6.7,1c-0.5,0.1-0.9,0.2-1.3,0.4    c-0.7,0.4-0.7,1.2,0.1,1.4c1.2,0.3,2.4,0.6,3.6,0.7c4.1,0.3,8.2,0.4,12.3,0.7c5.5,0.4,10.9,1.4,16,3.6c0.1,0.1,0.3,0.1,0.4,0.2    c0.6,0.3,0.9,0.9,0.6,1.4c-0.3,0.6-0.9,0.7-1.5,0.5c-0.8-0.3-1.6-0.7-2.4-0.9c-4.6-1.6-9.3-2.4-14.1-2.7c-4-0.3-8.1-0.4-12.1-0.7    c-1.3-0.1-2.7-0.5-3.9-0.9C35,61.1,34.5,60.1,34.5,59.1z"></path>		</g>		<g>			<path class="st3" d="M50.5,47.6c2.3-2.3,4.6-4.6,6.9-6.9c0.2-0.2,0.3-0.5,0.3-0.8c0.1-2.5,0.1-2.5-1.7-4.3    c-0.1-0.1-0.3-0.3-0.4-0.4c-0.5-0.5-0.6-1.2,0-1.6c1.8-1.3,2.5-9.9,2.1-12.1c-0.1-0.6,0.5-1.2,1-1.1c0.6,0.1,1,0.4,1,1.1    c0,1.1,0,9.1,0,10.3c0,0.3-0.2,0.7-0.4,1c-0.5,0.5-1,1-1.7,1.6c0.6,0.6,1,1,1.5,1.5c0.4,0.4,0.6,0.8,0.6,1.4c0,1.1,0,2.3,0,3.4    c0,0.4-0.2,0.8-0.5,1.1c-2.6,2.6-5.2,5.2-7.8,7.9c-0.7,0.7-1.2,0.7-1.9,0c-2.6-2.6-5.2-5.2-7.8-7.8c-0.3-0.3-0.5-0.8-0.5-1.2    c0-4,0-14.9,0-18.8c0-0.8,0.4-1.2,1-1.3c0.6,0,1.1,0.5,1.1,1.3c0,3.7,0,14.2,0,17.9c0,0.5,0.1,0.9,0.5,1.3c2,2,4,4,6.1,6.1    C50.1,47.2,50.3,47.4,50.5,47.6z"></path>		</g>		<g>			<path class="st1" d="M49.4,34c0-1.7,0-10.3,0-12.1c0-0.9,0.4-1.4,1-1.4c0.7,0,1.1,0.5,1.1,1.4c0,3.4,0,13.7,0,17.1    c0,0.9-0.4,1.4-1,1.4c-0.7,0-1.1-0.5-1.1-1.4C49.4,37.4,49.4,35.7,49.4,34z"></path>		</g>	</g></g></svg>