<svg xmlns="http://www.w3.org/2000/svg" xmlns:xlink="http://www.w3.org/1999/xlink" id="Layer_1" x="0px" y="0px" viewBox="0 0 97.1 97.1" style="enable-background:new 0 0 97.1 97.1;" xml:space="preserve"><style type="text/css">	.st0{fill:#E2E2E2;}	.st1{fill:#414042;}	.st2{fill:#FFFFFF;}	.st3{fill:#333333;}	.st4{fill:none;stroke:#333333;stroke-width:6.3584;stroke-linecap:round;stroke-miterlimit:10;}	.st5{fill:none;stroke:#59595C;stroke-width:5;stroke-miterlimit:10;}	.st6{fill:none;stroke:#59595C;stroke-width:5.45;stroke-miterlimit:10;}	.st7{fill:#333333;stroke:#333333;stroke-width:0.5;stroke-miterlimit:10;}	.st8{fill:none;stroke:#333333;stroke-width:5;stroke-miterlimit:10;}	.st9{fill:none;stroke:#333333;stroke-width:3.7565;stroke-linecap:round;stroke-linejoin:round;stroke-miterlimit:10;}	.st10{fill:#59595C;}	.st11{fill:#808184;}	.st12{fill:none;stroke:#404041;stroke-width:2.7935;stroke-miterlimit:10;}	.st13{fill:none;stroke:#404041;stroke-width:2.7935;stroke-linecap:round;stroke-miterlimit:10;}	.st14{fill:#FFFFFF;stroke:#000000;stroke-width:5.9967;stroke-linecap:round;stroke-miterlimit:10;}	.st15{fill:none;stroke:#000000;stroke-width:4.4976;stroke-linecap:round;stroke-miterlimit:10;}	.st16{fill:none;stroke:#000000;stroke-width:2.9984;stroke-linecap:round;stroke-miterlimit:10;}	.st17{fill:none;stroke:#333333;stroke-width:6.155;stroke-miterlimit:10;}	.st18{fill:none;stroke:#333333;stroke-width:3.0775;stroke-linecap:round;stroke-miterlimit:10;}	.st19{fill:none;stroke:#333333;stroke-width:6.155;stroke-linecap:round;stroke-miterlimit:10;}	.st20{fill:none;stroke:#000000;stroke-width:6.155;stroke-linecap:round;stroke-miterlimit:10;}	.st21{fill:#FFFFFF;stroke:#58595B;stroke-width:5.415;stroke-miterlimit:10;}	.st22{fill:none;stroke:#58595B;stroke-width:5.415;stroke-miterlimit:10;}	.st23{fill:#58595B;}	.st24{fill:#FEFEFE;}	.st25{fill:none;stroke:#000000;stroke-width:3.5761;stroke-miterlimit:10;}	.st26{stroke:#000000;stroke-width:2.5836;stroke-miterlimit:10;}	.st27{fill:none;stroke:#58595B;stroke-width:5.4;stroke-miterlimit:10;}	.st28{fill:#808285;}	.st29{fill:#FFFFFF;stroke:#414042;stroke-width:5.5602;stroke-linecap:round;stroke-miterlimit:10;}	.st30{fill:none;stroke:#000000;stroke-width:4.1701;stroke-linecap:round;stroke-miterlimit:10;}	.st31{fill:none;stroke:#414042;stroke-width:2.7801;stroke-linecap:round;stroke-miterlimit:10;}	.st32{fill:none;stroke:#414042;stroke-width:4.1701;stroke-linecap:round;stroke-miterlimit:10;}	.st33{fill:#FFFFFF;stroke:#414042;stroke-width:3;stroke-linecap:round;stroke-linejoin:round;stroke-miterlimit:10;}	.st34{fill:#FDFEFD;}	.st35{fill:none;stroke:#1A1A1A;stroke-width:4.2092;stroke-miterlimit:10;}	.st36{fill:#1A1A1A;}</style><g>	<g>		<circle class="st0" cx="48.5" cy="48.5" r="48.5"></circle>	</g>	<g>		<g>			<path class="st3" d="M65.2,42c-0.4-1.6-1.3-2.7-2.7-3.3c-2-0.8-4.3-0.2-5.7,1.4c-0.9,1.1-1.9,2.2-2.8,3.2    c-0.2,0.2-0.5,0.4-0.8,0.5c-1,0.2-1.8-0.7-1.5-1.7c0.3-1,0.7-1.9,1-2.8c0,0,0,0,0,0c1.9-3.7,1.2-6.1,0.8-6.9c0-0.1,0-0.1-0.1-0.1    c0-0.1-0.1-0.1-0.1-0.1v0c0,0,0,0,0-0.1c-1.2-1.8-3.5-2.6-5.5-1.8c-2.1,0.8-3.5,3.1-3.2,5.3c0.3,2.1,0.7,4.3,1,6.4    c0.1,0.6-0.1,1.1-0.6,1.2c-0.5,0.2-0.9-0.1-1.2-0.7c-0.2-0.6-0.5-1.2-0.7-1.8c-0.8-1.8-2.9-2.7-4.6-2c-2.2,0.9-2.8,3.7-1.1,5.3    c0.9,0.9,1.9,1.8,2.9,2.7c0.1,0.1,0.3,0.4,0.3,0.6c0,0.4-0.4,0.5-0.8,0.3c-1.2-0.6-2.4-1.1-3.7-1.7c-1.7-0.7-3.8-0.3-5,1.2    c-1.3,1.4-1.5,3.5-0.6,5.2c1.1,2,3.6,3,5.9,2.3c1.2-0.4,2.4-0.8,3.6-1.1c0.2-0.1,0.4-0.1,0.6,0c0.3,0.1,0.4,0.3,0.5,0.6    c0,0.3-0.1,0.6-0.4,0.7c-0.7,0.4-1.5,0.7-2.2,1.1c-1.4,0.7-2.2,1.9-2.5,3.4c-0.4,2.4,1.1,4.6,3.4,5.2c2.3,0.5,4.6-0.8,5.3-3.1    c0.3-0.9,0.5-1.8,0.7-2.7c0.1-0.3,0.2-0.5,0.6-0.5c0.4,0,0.5,0.3,0.5,0.6c0.3,1.5,0.5,3,0.8,4.5c0.3,1.7,1.1,3,2.7,3.8    c0.5,0.2,1,0.3,1.5,0.5c0,0,0.1,0,0.1,0l1,0c0,0,0.1,0,0.1-0.1c1.8-0.3,3-1.4,3.6-3.1c0.6-1.8,0.1-3.3-1.1-4.7    c-0.7-0.7-1.4-1.4-2-2.1c-0.3-0.3-0.4-0.6-0.2-0.9c0.2-0.3,0.5-0.3,0.9-0.1c0.7,0.4,1.4,0.8,2.2,1.2c1.2,0.6,2.3,0.7,3.5,0.1    c1.2-0.5,1.8-1.7,1.7-3c-0.1-1.2-0.9-2.2-2.1-2.6c-0.6-0.2-1.3-0.3-1.9-0.5c-0.7-0.2-1.1-0.7-1.1-1.4c0-0.7,0.4-1.2,1.1-1.3    c1.4-0.4,2.8-0.7,4.2-1C64,47.3,65.8,44.6,65.2,42z"></path>			<path class="st3" d="M51.4,67.4l-0.1,0c-0.2,0-0.3-0.1-0.4-0.1c-0.4-0.1-0.8-0.2-1.1-0.4c-1.5-0.8-2.5-2.1-2.8-3.9    c-0.2-1-0.3-1.9-0.5-2.9c-0.1-0.5-0.2-1-0.3-1.6c-0.1-0.3-0.1-0.5-0.4-0.5c-0.2,0-0.3,0.1-0.4,0.4c-0.1,0.2-0.1,0.4-0.2,0.7    c-0.2,0.7-0.3,1.4-0.5,2c-0.7,2.4-3.1,3.8-5.5,3.2c-2.4-0.6-3.9-2.9-3.5-5.3c0.3-1.6,1.1-2.8,2.6-3.5c0.4-0.2,0.8-0.4,1.3-0.6    c0.3-0.2,0.6-0.3,1-0.5c0.3-0.1,0.4-0.3,0.4-0.6c0-0.2-0.1-0.4-0.4-0.5c-0.2,0-0.4,0-0.6,0c-0.6,0.2-1.2,0.4-1.8,0.6    c-0.6,0.2-1.2,0.4-1.8,0.6c-2.4,0.7-4.9-0.3-6.1-2.4c-0.9-1.7-0.7-3.9,0.6-5.3c1.3-1.5,3.4-1.9,5.2-1.2c0.8,0.3,1.6,0.7,2.4,1.1    c0.4,0.2,0.9,0.4,1.3,0.6c0.2,0.1,0.4,0.1,0.5,0c0.1-0.1,0.1-0.1,0.1-0.2c0-0.1-0.1-0.4-0.2-0.5c-0.4-0.3-0.7-0.7-1.1-1    c-0.6-0.5-1.2-1.1-1.8-1.7c-0.8-0.8-1.1-1.9-0.9-3.1c0.2-1.1,1-2.1,2.1-2.5c1.8-0.7,3.9,0.2,4.8,2.1c0.2,0.4,0.4,0.9,0.5,1.3    c0.1,0.2,0.1,0.4,0.2,0.6c0.1,0.3,0.4,0.8,1,0.6c0.6-0.2,0.6-0.7,0.6-1.1c-0.1-0.7-0.2-1.5-0.4-2.2c-0.2-1.4-0.5-2.8-0.7-4.2    c-0.3-2.3,1.1-4.6,3.3-5.4c2.1-0.8,4.5,0,5.7,1.9l0.1,0.1l0,0c0,0,0,0.1,0.1,0.1c0,0,0.1,0.1,0.1,0.1c0.3,0.7,1.2,3.2-0.8,7    c-0.1,0.4-0.3,0.8-0.4,1.2c-0.2,0.6-0.4,1.1-0.6,1.7c-0.1,0.4-0.1,0.9,0.2,1.2c0.3,0.3,0.7,0.4,1.1,0.3c0.2-0.1,0.5-0.2,0.7-0.5    c0.5-0.6,1-1.2,1.5-1.7c0.4-0.5,0.9-1,1.3-1.5c1.5-1.7,3.9-2.3,5.8-1.4c1.4,0.6,2.4,1.8,2.7,3.4l0,0c0.6,2.7-1.2,5.5-4,6.2    c-0.7,0.2-1.4,0.3-2.1,0.5c-0.7,0.2-1.4,0.3-2.1,0.5c-0.6,0.2-1,0.6-1,1.2c0,0.6,0.4,1.1,1,1.2c0.3,0.1,0.5,0.1,0.8,0.2    c0.4,0.1,0.8,0.2,1.2,0.3c1.2,0.3,2.1,1.4,2.2,2.7c0.1,1.4-0.6,2.5-1.8,3.1c-1.2,0.5-2.4,0.5-3.6-0.1c-0.5-0.3-1-0.5-1.5-0.8    c-0.2-0.1-0.4-0.2-0.7-0.4c-0.4-0.2-0.6-0.1-0.7,0c-0.1,0.2-0.2,0.4,0.1,0.7c0.3,0.3,0.5,0.6,0.8,0.8c0.4,0.4,0.8,0.8,1.2,1.3    c1.3,1.4,1.7,3,1.1,4.8c-0.6,1.8-1.8,2.8-3.7,3.2c0,0,0,0,0,0c0,0-0.1,0-0.1,0L51.4,67.4z M45.8,57.8    C45.8,57.8,45.8,57.8,45.8,57.8c0.5,0,0.6,0.5,0.6,0.7c0.1,0.5,0.2,1,0.3,1.6c0.2,1,0.3,1.9,0.5,2.9c0.3,1.7,1.2,3,2.6,3.7    c0.3,0.2,0.7,0.3,1.1,0.4c0.1,0,0.3,0.1,0.4,0.1l0.1,0l1,0c0,0,0,0,0,0c0,0,0.1,0,0.1,0c1.8-0.3,3-1.3,3.5-3    c0.5-1.7,0.2-3.2-1.1-4.5c-0.4-0.4-0.8-0.9-1.2-1.3c-0.3-0.3-0.5-0.6-0.8-0.8c-0.4-0.4-0.4-0.7-0.2-1c0.2-0.3,0.6-0.3,1-0.1    c0.2,0.1,0.4,0.2,0.7,0.4c0.5,0.3,1,0.5,1.5,0.8c1.1,0.6,2.3,0.6,3.4,0.1c1.1-0.5,1.8-1.6,1.7-2.8c-0.1-1.1-0.9-2.1-2-2.5    c-0.4-0.1-0.8-0.2-1.1-0.3c-0.3-0.1-0.5-0.1-0.8-0.2c-0.7-0.2-1.2-0.8-1.2-1.5c0-0.7,0.5-1.3,1.2-1.5c0.7-0.2,1.4-0.3,2.1-0.5    c0.7-0.2,1.4-0.3,2.1-0.5c2.7-0.7,4.4-3.3,3.8-5.9l0,0c-0.4-1.6-1.2-2.7-2.6-3.3c-1.8-0.8-4.1-0.2-5.5,1.4    c-0.4,0.5-0.9,1-1.3,1.5c-0.5,0.6-1,1.2-1.5,1.7c-0.2,0.3-0.6,0.5-0.9,0.5c-0.5,0.1-1,0-1.3-0.4c-0.3-0.4-0.5-0.9-0.3-1.4    c0.2-0.6,0.4-1.1,0.6-1.7c0.1-0.4,0.3-0.8,0.4-1.1l0,0c1.9-3.8,1.1-6.2,0.8-6.8l0,0c0,0,0,0,0-0.1l0,0c0,0,0-0.1,0-0.1l0-0.1    c0,0,0,0,0-0.1c-1.1-1.8-3.4-2.5-5.4-1.7c-2.1,0.8-3.4,3-3.1,5.2c0.2,1.4,0.4,2.8,0.7,4.2c0.1,0.7,0.2,1.5,0.4,2.2    c0.1,0.7-0.1,1.2-0.7,1.3c-0.6,0.2-1.1-0.1-1.3-0.8c-0.1-0.2-0.1-0.4-0.2-0.6c-0.2-0.4-0.3-0.9-0.5-1.3c-0.8-1.7-2.8-2.6-4.4-1.9    c-1,0.4-1.7,1.3-1.9,2.3c-0.2,1,0.1,2.1,0.8,2.8c0.6,0.6,1.2,1.1,1.8,1.7c0.4,0.3,0.7,0.7,1.1,1c0.2,0.1,0.3,0.4,0.3,0.7    c0,0.2-0.1,0.3-0.3,0.4c-0.2,0.1-0.5,0.1-0.7,0c-0.4-0.2-0.9-0.4-1.3-0.6c-0.8-0.4-1.6-0.7-2.4-1.1c-1.7-0.7-3.7-0.3-4.9,1.1    c-1.2,1.4-1.5,3.4-0.6,5c1.1,2,3.5,2.9,5.8,2.3c0.6-0.2,1.2-0.4,1.8-0.6c0.6-0.2,1.2-0.4,1.8-0.6c0.2-0.1,0.5-0.1,0.7,0    c0.3,0.1,0.5,0.4,0.6,0.8c0,0.4-0.1,0.7-0.5,0.9c-0.3,0.2-0.6,0.3-1,0.5c-0.4,0.2-0.8,0.4-1.3,0.6c-1.4,0.7-2.2,1.8-2.5,3.3    c-0.4,2.3,1.1,4.5,3.3,5c2.3,0.5,4.5-0.8,5.2-3c0.2-0.7,0.4-1.4,0.5-2c0.1-0.2,0.1-0.4,0.2-0.7C45.2,58.2,45.3,57.8,45.8,57.8z"></path>		</g>		<g>			<path class="st2" d="M60.8,46.6c-1.4,0.3-2.8,0.7-4.1,1c-1.3,0.3-2.2,1.5-2.2,2.8c0,1.3,0.9,2.4,2.2,2.7c0.6,0.2,1.2,0.3,1.8,0.4    c0.7,0.2,1.1,0.7,1.1,1.4c0,0.7-0.4,1.3-1,1.5c-0.7,0.3-1.5,0.2-2.2-0.2c-0.8-0.4-1.5-0.8-2.3-1.2c-0.8-0.4-1.7-0.3-2.3,0.3    c-0.8,0.8-0.9,2-0.1,2.9c0.8,0.8,1.6,1.6,2.3,2.5c0.7,0.7,0.9,1.6,0.7,2.5c-0.2,1.2-1.1,2.2-2.3,2.5c-1.9,0.4-3.7-0.9-4-2.8    c-0.3-1.5-0.5-3.1-0.8-4.6c-0.2-1.1-0.9-1.7-1.9-1.8c-1,0-1.8,0.6-2,1.7c-0.2,0.9-0.4,1.8-0.7,2.7c-0.3,0.9-0.9,1.6-1.8,1.8    c-1.3,0.4-2.5,0.1-3.3-0.9c-1.3-1.5-0.9-3.8,0.9-4.8c0.7-0.4,1.5-0.8,2.3-1.2c1.2-0.6,1.6-1.8,1.2-2.9c-0.5-1.1-1.6-1.6-2.8-1.2    c-1.2,0.4-2.4,0.8-3.6,1.1c-0.7,0.2-1.3,0.2-2,0.1c-1.7-0.4-2.8-2-2.6-3.5c0.3-2.1,2.4-3.2,4.3-2.4c1.2,0.5,2.4,1.1,3.5,1.6    c0.4,0.2,0.8,0.3,1.3,0.2c0.8-0.2,1.3-0.7,1.5-1.4c0.2-0.8,0-1.5-0.6-2c-1-0.9-1.9-1.7-2.9-2.6c-0.6-0.6-0.8-1.5-0.4-2.2    c0.4-0.7,1.2-1.1,2-0.9c0.8,0.2,1.4,0.7,1.7,1.5c0.3,0.6,0.5,1.3,0.7,1.9c0.5,1.1,1.7,1.6,2.8,1.3c1.1-0.3,1.9-1.5,1.7-2.6    c-0.2-1.5-0.5-3.1-0.7-4.6c-0.1-0.9-0.3-1.8-0.3-2.6c0-1.9,1.7-3.4,3.6-3.2c0.9,0.1,1.9,0.4,2.4,1.1c0.3,0.4,0.5,1,0.5,1.6    c0,0.6-0.1,1.1-0.2,1.6c-0.5,2-1.3,4-2,6c-0.3,0.8-0.2,1.7,0.2,2.3c1.1,1.7,3.2,1.8,4.5,0.3c1.1-1.2,2.1-2.4,3.2-3.6    c0.9-1,2.3-1.2,3.5-0.7c1.2,0.5,2,1.7,2,3C63.8,44.7,62.6,46.2,60.8,46.6z"></path>		</g>		<g>			<path class="st3" d="M67.3,63c-0.2,0.5-0.4,1-0.7,1.5c-0.9,1.3-2.5,1.7-3.9,1c-1.4-0.6-2.2-2.1-1.9-3.6c0.3-1.5,1.6-2.6,3.2-2.6    c1.5,0,2.8,1,3.2,2.5c0,0.1,0.1,0.2,0.1,0.3C67.3,62.4,67.3,62.7,67.3,63z M64,64.3c1,0,1.8-0.8,1.8-1.8c0-1-0.8-1.8-1.8-1.8    c-1,0-1.8,0.8-1.8,1.8C62.2,63.6,63,64.4,64,64.3z"></path>		</g>		<g>			<path class="st3" d="M34.1,37.7c-1.8,0-3.2-1.4-3.2-3.2c0-1.8,1.5-3.2,3.3-3.2c1.8,0,3.2,1.5,3.2,3.2    C37.3,36.3,35.8,37.7,34.1,37.7z M34.1,32.7c-1,0-1.8,0.8-1.8,1.8c0,1,0.8,1.8,1.8,1.8c1,0,1.8-0.8,1.8-1.8    C35.8,33.5,35,32.7,34.1,32.7z"></path>		</g>		<g>			<path class="st1" d="M53.3,31.9C53.3,31.9,53.3,31.9,53.3,31.9L53.3,31.9C53.3,31.9,53.3,31.9,53.3,31.9z"></path>		</g>		<g>			<path class="st3" d="M48.5,78c-16.2,0-29.4-13.2-29.4-29.4s13.2-29.4,29.4-29.4S78,32.3,78,48.5S64.8,78,48.5,78z M48.5,21.5    c-14.9,0-27,12.1-27,27s12.1,27,27,27s27-12.1,27-27S63.4,21.5,48.5,21.5z"></path>		</g>	</g></g></svg>