<svg xmlns="http://www.w3.org/2000/svg" xmlns:xlink="http://www.w3.org/1999/xlink" id="Layer_1" x="0px" y="0px" viewBox="0 0 100 100" style="enable-background:new 0 0 100 100;" xml:space="preserve"><style type="text/css">	.st0{fill:#E2E2E2;}	.st1{fill:#414042;}	.st2{fill:#FFFFFF;}	.st3{fill:#333333;}	.st4{fill:none;stroke:#333333;stroke-width:6.3584;stroke-linecap:round;stroke-miterlimit:10;}	.st5{fill:none;stroke:#59595C;stroke-width:5;stroke-miterlimit:10;}	.st6{fill:none;stroke:#59595C;stroke-width:5.45;stroke-miterlimit:10;}	.st7{fill:#333333;stroke:#333333;stroke-width:0.5;stroke-miterlimit:10;}	.st8{fill:none;stroke:#333333;stroke-width:5;stroke-miterlimit:10;}	.st9{fill:none;stroke:#333333;stroke-width:3.7565;stroke-linecap:round;stroke-linejoin:round;stroke-miterlimit:10;}	.st10{fill:#59595C;}	.st11{fill:#808184;}	.st12{fill:none;stroke:#404041;stroke-width:2.7935;stroke-miterlimit:10;}	.st13{fill:none;stroke:#404041;stroke-width:2.7935;stroke-linecap:round;stroke-miterlimit:10;}	.st14{fill:#FFFFFF;stroke:#000000;stroke-width:5.9967;stroke-linecap:round;stroke-miterlimit:10;}	.st15{fill:none;stroke:#000000;stroke-width:4.4976;stroke-linecap:round;stroke-miterlimit:10;}	.st16{fill:none;stroke:#000000;stroke-width:2.9984;stroke-linecap:round;stroke-miterlimit:10;}	.st17{fill:none;stroke:#333333;stroke-width:6.155;stroke-miterlimit:10;}	.st18{fill:none;stroke:#333333;stroke-width:3.0775;stroke-linecap:round;stroke-miterlimit:10;}	.st19{fill:none;stroke:#333333;stroke-width:6.155;stroke-linecap:round;stroke-miterlimit:10;}	.st20{fill:none;stroke:#000000;stroke-width:6.155;stroke-linecap:round;stroke-miterlimit:10;}	.st21{fill:#FFFFFF;stroke:#58595B;stroke-width:5.415;stroke-miterlimit:10;}	.st22{fill:none;stroke:#58595B;stroke-width:5.415;stroke-miterlimit:10;}	.st23{fill:#58595B;}	.st24{fill:#FEFEFE;}	.st25{fill:none;stroke:#000000;stroke-width:3.5761;stroke-miterlimit:10;}	.st26{stroke:#000000;stroke-width:2.5836;stroke-miterlimit:10;}	.st27{fill:none;stroke:#58595B;stroke-width:5.4;stroke-miterlimit:10;}	.st28{fill:#808285;}	.st29{fill:#FFFFFF;stroke:#414042;stroke-width:5.5602;stroke-linecap:round;stroke-miterlimit:10;}	.st30{fill:none;stroke:#000000;stroke-width:4.1701;stroke-linecap:round;stroke-miterlimit:10;}	.st31{fill:none;stroke:#414042;stroke-width:2.7801;stroke-linecap:round;stroke-miterlimit:10;}	.st32{fill:none;stroke:#414042;stroke-width:4.1701;stroke-linecap:round;stroke-miterlimit:10;}	.st33{fill:#FFFFFF;stroke:#414042;stroke-width:3;stroke-linecap:round;stroke-linejoin:round;stroke-miterlimit:10;}	.st34{fill:#FDFEFD;}	.st35{fill:none;stroke:#1A1A1A;stroke-width:4.2092;stroke-miterlimit:10;}	.st36{fill:#1A1A1A;}</style><circle class="st0" cx="49.9" cy="50.2" r="48.9"></circle><g>	<path class="st1" d="M50,55.2c-1.5,1.5-3,3-4.5,4.5c-0.4-0.4-0.7-0.7-1.1-1.1c1.7-1.7,3.5-3.5,5.4-5.4c-6.7,0-21.7,0-28.4,0  c0-2,0-3.9,0-5.9c6.6,0,21.7,0,28.4,0c-1.9-1.9-3.7-3.7-5.5-5.5c0.4-0.4,0.8-0.7,1.1-1.1c1.5,1.5,3,3,4.5,4.5c0,0,0.1-0.1,0.1-0.1  c0-5.3,0-10.6,0-16c0.6,0,1,0,1.6,0c0,5.3,0,10.6,0,16c1.5-1.5,3.1-3.1,4.6-4.6c0.4,0.5,0.8,0.8,1.1,1.2c-1.7,1.7-3.5,3.5-5.4,5.4  c6.7,0,21.7,0,28.3,0c0,2,0,4,0,6c-6.6,0-21.6,0-28.3,0c1.8,1.8,3.6,3.6,5.4,5.4c-0.4,0.4-0.8,0.7-1.2,1.1c-1.4-1.5-3-3-4.5-4.5  c0,0-0.1,0-0.1,0.1c0,5.3,0,10.6,0,16c-0.5,0-1,0-1.6,0c0-5.3,0-10.6,0-16C50.1,55.2,50.1,55.2,50,55.2z"></path></g></svg>