<svg xmlns="http://www.w3.org/2000/svg" xmlns:xlink="http://www.w3.org/1999/xlink" id="Layer_1" x="0px" y="0px" viewBox="0 0 100 100" style="enable-background:new 0 0 100 100;" xml:space="preserve"><style type="text/css">	.st0{fill:#E2E2E2;}	.st1{fill:#414042;}	.st2{fill:#FFFFFF;}	.st3{fill:#333333;}	.st4{fill:none;stroke:#333333;stroke-width:6.3584;stroke-linecap:round;stroke-miterlimit:10;}	.st5{fill:none;stroke:#59595C;stroke-width:5;stroke-miterlimit:10;}	.st6{fill:none;stroke:#59595C;stroke-width:5.45;stroke-miterlimit:10;}	.st7{fill:#333333;stroke:#333333;stroke-width:0.5;stroke-miterlimit:10;}	.st8{fill:none;stroke:#333333;stroke-width:5;stroke-miterlimit:10;}	.st9{fill:none;stroke:#333333;stroke-width:3.7565;stroke-linecap:round;stroke-linejoin:round;stroke-miterlimit:10;}	.st10{fill:#59595C;}	.st11{fill:#808184;}	.st12{fill:none;stroke:#404041;stroke-width:2.7935;stroke-miterlimit:10;}	.st13{fill:none;stroke:#404041;stroke-width:2.7935;stroke-linecap:round;stroke-miterlimit:10;}	.st14{fill:#FFFFFF;stroke:#000000;stroke-width:5.9967;stroke-linecap:round;stroke-miterlimit:10;}	.st15{fill:none;stroke:#000000;stroke-width:4.4976;stroke-linecap:round;stroke-miterlimit:10;}	.st16{fill:none;stroke:#000000;stroke-width:2.9984;stroke-linecap:round;stroke-miterlimit:10;}	.st17{fill:none;stroke:#333333;stroke-width:6.155;stroke-miterlimit:10;}	.st18{fill:none;stroke:#333333;stroke-width:3.0775;stroke-linecap:round;stroke-miterlimit:10;}	.st19{fill:none;stroke:#333333;stroke-width:6.155;stroke-linecap:round;stroke-miterlimit:10;}	.st20{fill:none;stroke:#000000;stroke-width:6.155;stroke-linecap:round;stroke-miterlimit:10;}	.st21{fill:#FFFFFF;stroke:#58595B;stroke-width:5.415;stroke-miterlimit:10;}	.st22{fill:none;stroke:#58595B;stroke-width:5.415;stroke-miterlimit:10;}	.st23{fill:#58595B;}	.st24{fill:#FEFEFE;}	.st25{fill:none;stroke:#000000;stroke-width:3.5761;stroke-miterlimit:10;}	.st26{stroke:#000000;stroke-width:2.5836;stroke-miterlimit:10;}	.st27{fill:none;stroke:#58595B;stroke-width:5.4;stroke-miterlimit:10;}	.st28{fill:#808285;}	.st29{fill:#FFFFFF;stroke:#414042;stroke-width:5.5602;stroke-linecap:round;stroke-miterlimit:10;}	.st30{fill:none;stroke:#000000;stroke-width:4.1701;stroke-linecap:round;stroke-miterlimit:10;}	.st31{fill:none;stroke:#414042;stroke-width:2.7801;stroke-linecap:round;stroke-miterlimit:10;}	.st32{fill:none;stroke:#414042;stroke-width:4.1701;stroke-linecap:round;stroke-miterlimit:10;}	.st33{fill:#FFFFFF;stroke:#414042;stroke-width:3;stroke-linecap:round;stroke-linejoin:round;stroke-miterlimit:10;}	.st34{fill:#FDFEFD;}	.st35{fill:none;stroke:#1A1A1A;stroke-width:4.2092;stroke-miterlimit:10;}	.st36{fill:#1A1A1A;}</style><g>	<g>		<circle class="st0" cx="50.5" cy="50.2" r="48.5"></circle>	</g>	<g>		<g>			<g>				<path class="st3" d="M33.3,76.8c0,0.6,0.1,1.2,0.1,1.8h11c0.1-1.8,0.3-3.6,0.3-5.4c0.1-2.8-0.7-5.5-1.7-8.1     c-0.3-0.9-0.3-0.9-1.3-0.9c-2,0-4,0-6,0c-0.3,0-0.5,0.1-0.6,0.4c-0.9,2.3-1.7,4.5-1.8,7C33.2,73.4,33.2,75.1,33.3,76.8z"></path>			</g>			<g>				<path class="st3" d="M20.3,53.8c0.4,0.2,0.7,0.4,0.9,0.5c0.8-0.9,1.5-1.8,2.3-2.5c2.2-1.9,4.7-2.8,7.7-2.2     c2.3,0.5,3.9,2.3,4,4.7c0.1,2.5,0,5,0.1,7.5v0.6h7.5v-0.6c0-2.2,0-4.3,0-6.5c0-1.2,0.2-2.3,0.7-3.5c1.1-2.6,4.1-3.3,6.1-1.4     c0.6,0.6,1.2,0.8,2,0.8c1.6,0,3.3,0,4.9,0c0.9,0,1.2-0.3,1.2-1.2c0-2.3,0-4.6,0-6.9c0-0.9-0.3-1.2-1.2-1.2c-1.6,0-3.2,0-4.8,0     c-0.8,0-1.5,0.2-2,0.8c-1.3,1.3-3.1,1.4-4.6,0.4c-0.3-0.2-0.5-0.4-0.7-0.6c-0.5-0.5-1-0.7-1.7-0.7c-2,0-4,0.1-6.1,0     c-2.7-0.1-5.1,0.7-7.4,2c-3.1,1.8-5.6,4.2-7.4,7.3C21.1,52,20.8,52.9,20.3,53.8z"></path>			</g>		</g>		<g>			<polyline class="st2" points="34.5,31.8 38.7,18.8 46.8,28.7 58.2,20 59.8,33.6 73.4,31.5 67.3,44 80.7,48.4 68.6,56.6     77.3,66.4 63.3,68.1 64.9,80.9 52.6,74.1 62,76.8 60.5,64.5 70.8,63.8 63.2,55.9 72.4,49.6 61.8,45.9 67.7,36.1 55.9,37.8     54.5,27.5 46.4,34.8 39.6,24.5 34.5,32.2    "></polyline>		</g>	</g></g></svg>