<svg xmlns="http://www.w3.org/2000/svg" xmlns:xlink="http://www.w3.org/1999/xlink" id="Layer_1" x="0px" y="0px" viewBox="0 0 100 100" style="enable-background:new 0 0 100 100;" xml:space="preserve"><style type="text/css">	.st0{fill:#E2E2E2;}	.st1{fill:#414042;}	.st2{fill:#FFFFFF;}	.st3{fill:#333333;}	.st4{fill:none;stroke:#333333;stroke-width:6.3584;stroke-linecap:round;stroke-miterlimit:10;}	.st5{fill:none;stroke:#59595C;stroke-width:5;stroke-miterlimit:10;}	.st6{fill:none;stroke:#59595C;stroke-width:5.45;stroke-miterlimit:10;}	.st7{fill:#333333;stroke:#333333;stroke-width:0.5;stroke-miterlimit:10;}	.st8{fill:none;stroke:#333333;stroke-width:5;stroke-miterlimit:10;}	.st9{fill:none;stroke:#333333;stroke-width:3.7565;stroke-linecap:round;stroke-linejoin:round;stroke-miterlimit:10;}	.st10{fill:#59595C;}	.st11{fill:#808184;}	.st12{fill:none;stroke:#404041;stroke-width:2.7935;stroke-miterlimit:10;}	.st13{fill:none;stroke:#404041;stroke-width:2.7935;stroke-linecap:round;stroke-miterlimit:10;}	.st14{fill:#FFFFFF;stroke:#000000;stroke-width:5.9967;stroke-linecap:round;stroke-miterlimit:10;}	.st15{fill:none;stroke:#000000;stroke-width:4.4976;stroke-linecap:round;stroke-miterlimit:10;}	.st16{fill:none;stroke:#000000;stroke-width:2.9984;stroke-linecap:round;stroke-miterlimit:10;}	.st17{fill:none;stroke:#333333;stroke-width:6.155;stroke-miterlimit:10;}	.st18{fill:none;stroke:#333333;stroke-width:3.0775;stroke-linecap:round;stroke-miterlimit:10;}	.st19{fill:none;stroke:#333333;stroke-width:6.155;stroke-linecap:round;stroke-miterlimit:10;}	.st20{fill:none;stroke:#000000;stroke-width:6.155;stroke-linecap:round;stroke-miterlimit:10;}	.st21{fill:#FFFFFF;stroke:#58595B;stroke-width:5.415;stroke-miterlimit:10;}	.st22{fill:none;stroke:#58595B;stroke-width:5.415;stroke-miterlimit:10;}	.st23{fill:#58595B;}	.st24{fill:#FEFEFE;}	.st25{fill:none;stroke:#000000;stroke-width:3.5761;stroke-miterlimit:10;}	.st26{stroke:#000000;stroke-width:2.5836;stroke-miterlimit:10;}	.st27{fill:none;stroke:#58595B;stroke-width:5.4;stroke-miterlimit:10;}	.st28{fill:#808285;}	.st29{fill:#FFFFFF;stroke:#414042;stroke-width:5.5602;stroke-linecap:round;stroke-miterlimit:10;}	.st30{fill:none;stroke:#000000;stroke-width:4.1701;stroke-linecap:round;stroke-miterlimit:10;}	.st31{fill:none;stroke:#414042;stroke-width:2.7801;stroke-linecap:round;stroke-miterlimit:10;}	.st32{fill:none;stroke:#414042;stroke-width:4.1701;stroke-linecap:round;stroke-miterlimit:10;}	.st33{fill:#FFFFFF;stroke:#414042;stroke-width:3;stroke-linecap:round;stroke-linejoin:round;stroke-miterlimit:10;}	.st34{fill:#FDFEFD;}	.st35{fill:none;stroke:#1A1A1A;stroke-width:4.2092;stroke-miterlimit:10;}	.st36{fill:#1A1A1A;}</style><circle class="st0" cx="50.1" cy="50" r="48.5"></circle><g>	<path class="st2" d="M48.2,60.5c0,2.9,0,5.7,0,8.6c0,1.2-1.2,2-2.4,1.7c-0.9-0.2-1.9-0.5-2.8-0.8c-10.8-4-16.3-15.6-12.7-26.5  c3.4-10.3,14.5-16.3,25-13.5c10.3,2.7,16.9,12.4,15.5,23c-0.7,5.5-3.3,10.1-7.6,13.6c-1.5,1.2-3.2,2.2-5,3C57.3,70,56.8,71,57.2,72  c0.4,1.1,1.6,1.5,2.8,1c10.6-4.6,16.6-15.9,14.5-27.3C72,31.6,57.8,22.6,44,26.1c-12.8,3.3-20.9,16-18.2,28.9  c2.1,10.1,8.4,16.5,18.3,19.3c1,0.3,2,0.5,3.1,0.3c2.9-0.5,4.9-2.9,4.9-5.8c0-2.6,0-5.2,0-7.9c0-0.3,0-0.4,0.4-0.5  c4.3-1.1,7.2-4.8,7.2-9.3c0-1.6,0-3.1,0-4.7c0-1.3-0.8-2.1-2.1-2.1c-0.5,0-1,0-1.5,0c0-1.7,0-3.3,0-4.9c0-1.2-0.8-2-2-2  c-1.1,0-1.9,0.8-1.9,2c0,1.4,0,2.8,0,4.2c0,0.2,0,0.4,0,0.6c-1.3,0-2.6,0-3.9,0c0-1.6,0-3.2,0-4.8c0-1.2-0.8-2-1.9-2  c-1.1,0-2,0.8-2,2c0,1.4,0,2.9,0,4.3c0,0.2,0,0.3,0,0.6c-0.6,0-1.1,0-1.7,0c-1.2,0-2,0.8-2,2c0,1.7,0,3.3,0,5c0,1.8,0.5,3.5,1.5,5  C43.6,58.5,45.6,59.9,48.2,60.5z"></path>	<path class="st1" d="M48.2,60.5c-2.5-0.6-4.5-2-5.9-4.1c-1-1.5-1.5-3.2-1.5-5c0-1.7,0-3.3,0-5c0-1.2,0.8-2,2-2c0.5,0,1.1,0,1.7,0  c0-0.2,0-0.4,0-0.6c0-1.4,0-2.9,0-4.3c0-1.2,0.8-2,2-2c1.1,0,1.9,0.9,1.9,2c0,1.6,0,3.2,0,4.8c1.3,0,2.6,0,3.9,0c0-0.2,0-0.4,0-0.6  c0-1.4,0-2.8,0-4.2c0-1.2,0.8-2,1.9-2c1.1,0,2,0.8,2,2c0,1.6,0,3.2,0,4.9c0.5,0,1,0,1.5,0c1.3,0,2.1,0.8,2.1,2.1c0,1.6,0,3.1,0,4.7  c0,4.5-2.9,8.2-7.2,9.3c-0.3,0.1-0.4,0.2-0.4,0.5c0,2.6,0,5.2,0,7.9c0,3-2,5.3-4.9,5.8c-1,0.2-2.1,0-3.1-0.3  c-9.9-2.9-16.2-9.2-18.3-19.3C23.1,42.1,31.2,29.4,44,26.1c13.9-3.6,28.1,5.5,30.6,19.5C76.6,57.1,70.6,68.4,60,73  c-1.2,0.5-2.4,0.1-2.8-1c-0.4-1,0.1-2,1.1-2.5c1.8-0.8,3.5-1.8,5-3c4.3-3.6,6.9-8.1,7.6-13.6c1.3-10.6-5.3-20.3-15.5-23  c-10.5-2.7-21.6,3.3-25,13.5C26.7,54.4,32.2,65.9,43,69.9c0.9,0.3,1.8,0.6,2.8,0.8c1.2,0.3,2.4-0.5,2.4-1.7  C48.2,66.2,48.2,63.4,48.2,60.5z M44.6,48.2c0,1.1,0,2.1,0,3.1c0.1,2.6,1.9,4.8,4.5,5.3c2.4,0.5,5-0.7,6.1-3  c0.9-1.7,0.5-3.6,0.6-5.4C52,48.2,48.3,48.2,44.6,48.2z"></path>	<path class="st2" d="M44.6,48.2c3.7,0,7.4,0,11.2,0c-0.1,1.8,0.3,3.7-0.6,5.4c-1.1,2.3-3.7,3.6-6.1,3c-2.6-0.6-4.4-2.7-4.5-5.3  C44.6,50.3,44.6,49.3,44.6,48.2z"></path></g></svg>