<svg width="26" height="26" viewBox="0 0 26 26" fill="none" xmlns="http://www.w3.org/2000/svg">
<path d="M12.587 0.434326C5.67386 0.434326 0.0695801 6.03083 0.0695801 12.9343C0.0695801 18.7963 4.11119 23.7153 9.56327 25.0663V16.7543H6.98218V12.9343H9.56327V11.2883C9.56327 7.03383 11.4914 5.06183 15.6743 5.06183C16.4674 5.06183 17.8358 5.21733 18.3955 5.37233V8.83483C18.1001 8.80383 17.5869 8.78833 16.9495 8.78833C14.8972 8.78833 14.1041 9.56483 14.1041 11.5833V12.9343H18.1928L17.4903 16.7543H14.1041V25.3428C20.3022 24.5953 25.1049 19.3253 25.1049 12.9343C25.1044 6.03083 19.5001 0.434326 12.587 0.434326Z" fill="#FFBC37"/>
</svg>
