<?xml version="1.0" encoding="utf-8"?>
<!-- Generator: Adobe Illustrator 19.2.1, SVG Export Plug-In . SVG Version: 6.00 Build 0)  -->
<svg version="1.1" id="layer" xmlns="http://www.w3.org/2000/svg" xmlns:xlink="http://www.w3.org/1999/xlink" x="0px" y="0px"
	 viewBox="0 0 652 652" style="enable-background:new 0 0 652 652;" xml:space="preserve">
<style type="text/css">
	.st0{fill-rule:evenodd;clip-rule:evenodd;fill:#00B5E5;}
	.st1{fill-rule:evenodd;clip-rule:evenodd;fill:#80BE43;}
	.st2{fill-rule:evenodd;clip-rule:evenodd;fill:#618EC2;}
	.st3{fill-rule:evenodd;clip-rule:evenodd;fill:#FFFFFF;}
	.st4{fill-rule:evenodd;clip-rule:evenodd;}
</style>
<path class="st0" d="M263.3,146.3c0,28.2-0.8,55.6-0.8,83c0,13.6-0.5,27.4-0.5,40.9c0,13.8,0.5,27.4,0,41.2
	c-0.8,12.2-1.7,28.8-0.8,40.7c0,2.2,7.5,9.1,9.9,11.3c3,3.9,6.1,7.7,9.1,11.6c5.3,8.3,10.5,16.6,15.8,25.7c1.7,2.2,13,28.2,13,28.2
	l3-355.7c-0.8,0.6-8.3,18.3-9.9,20.5c-3.6,7.5-6.6,13-11.3,19.9C287.6,118.9,267.2,145.5,263.3,146.3 M276.3,198v-18.2
	c0-4.7-1.7-13.8,0.8-16.9c5.3-3.6,14.4-13.6,19.6-16.6l-0.8,44.8L276.3,198z M293.7,266.3h-17.4v-35.7c0-1.4,3.9-1.4,5.3-1.4
	c1.7,0,3.9-0.8,5.3-1.7c3-1.4,6.1-3.9,8.6-6.1c0,8.3-0.8,16-0.8,23C294.6,247.5,295.4,266.3,293.7,266.3 M294.6,350.7h-0.8
	c-0.8,0-17.4-5.3-17.4-5.8v-36.5h6.1h2.2c3.9,0,8.3-1.7,10.8-1.7L294.6,350.7z"/>
<path class="st0" d="M320.3,429.8c0-0.8,7.7-18.3,8.6-19.9c3-6.9,6.6-13,9.7-19.1c6.1-10.5,16-23.5,24.3-32.6c3-3,5.5-3.9,5.5-9.1
	c-0.8-3.6-0.8-8.9-0.8-13.3v-28.2c0-19.1-0.8-38.2-0.8-57c0-18.3-0.8-37.3-0.8-55.6v-28.2v-14.4c0-7.7-0.6-6.1-4.4-9.9
	c-9.1-9.1-18.2-20.5-25.2-32.1c-3.9-6.1-6.9-11.3-10-18.2c-1.4-2.2-9.1-19.6-9.1-19.6L320.3,429.8z M332.4,146.3
	c5.5,3,13.8,12.2,19.1,16.6c3,3,1.6,12.2,1.6,17.7V198l-19.9-6.1L332.4,146.3z M334.1,222.3c0.8,0,6.1,3.9,8.3,5.3
	c1.7,0.8,3,0.8,5.3,1.7c1.7,0.6,5.5,0,5.5,1.4v35.7h-4.7h-13.6v-3.6L334.1,222.3z M334.1,306.7c3.9,0,6.9,1.7,11.3,1.7l3,0.6
	l4.7-0.6v37l-18.2,5.3L334.1,306.7z"/>
<path class="st1" d="M186.4,320.5v3c0,20.5,6.1,40.7,13.8,53.6c9.1,18.3,16,25.2,28.8,37.9c10,9.9,27.4,21.3,39,28.2
	c7.5,4.7,14.4,8.3,21.3,13c7.5,4.4,13.6,8.3,20.5,13c0-43.4-26.5-84.6-48.7-107.3c-32.6-31.8-50.3-39.3-62.5-93.2H198
	c0,0.6-3.9,10.5-3.9,11.3c-1.7,3.9-3,9.1-3.9,12.2C188.9,300.6,186.4,310.6,186.4,320.5"/>
<path class="st1" d="M319.7,469.3c0.6,0,17.4-11.6,20.5-13c6.9-4.7,13.6-8.3,20.5-12.2c15.2-9.1,26-17.4,38.7-28.2
	c20.7-16.6,42.6-51.7,42.6-90.2v-5.3c0-10.8-1.4-19.1-3-28.2c-1.4-3.9-2.2-7.7-3.6-12.2c-0.8-3.9-3-8.3-3.9-11.3
	c-0.8,0.6-3.9,12.7-4.7,15.2c-1.4,4.4-3,9.7-5.3,14.4c-3.9,9.1-7.5,16.6-13.6,25.2c-11.6,14.4-26,25.5-39,38.4
	C346.3,384.1,319.7,425.1,319.7,469.3"/>
<path class="st1" d="M372.8,349.8c0,0,6.9-7.5,8.3-8.9c3-3,5.5-5.3,8.6-8.3c6.6-6.1,11.3-10.8,16.6-18.2
	c9.1-11.6,17.4-31.3,17.4-51.2v-3c0-24.9-8.3-46.2-17.4-61.4c-5.3-9.1-9.1-16.9-16-24.3c-2.2-3.9-15.8-20.7-18.3-21.3L372.8,349.8z"
	/>
<path class="st1" d="M205.5,259.7v3.6c0,19.1,9.1,40.4,17.4,51.2c3.9,6.1,10.8,13.6,16,18.3c3,2.2,6.9,6.1,9.1,8.3
	c1.7,0.8,8.3,8.9,8.3,8.9l0.8-196.7c-2.2,0.6-16.6,18.2-19.1,20.5c-5.3,7.5-10.5,16-15.2,24.3C214.6,214.6,205.5,234.5,205.5,259.7"
	/>
<path class="st2" d="M336.3,189.7l13.8,4.4c0-3.9,0.6-26.5,0-28.2c0-0.6-13.8-12.7-14.7-12.7L336.3,189.7z"/>
<path class="st2" d="M279.3,194.1c2.2-0.8,6.9-2.2,10-3.9c3-0.6,3.6,0,3.6-3v-6.6c0-9.1,0.8-18.3,0.8-27.4l-14.4,12.7V194.1z"/>
<path class="st2" d="M338,346.8c1.4,0,12.2-3.6,12.2-4.4v-31h-2.5l-10.5-0.8L338,346.8z"/>
<path class="st2" d="M292.3,310.6l-10,1.4l-3-0.6v31.8h0.8c0.5,0,9.1,3.6,12.2,3.6V310.6z"/>
<polygon class="st2" points="337.1,264.1 350.1,264.1 350.1,232.9 337.1,227.6 "/>
<polygon class="st2" points="279.3,232.9 279.3,264.1 292.3,264.1 292.3,227.6 "/>
<path class="st3" d="M333.3,191.9l19.9,6.1v-17.4c0-5.5,1.4-14.7-1.7-17.7c-5.3-4.4-13.6-13.6-19.1-16.6L333.3,191.9z M335.5,153.2
	c0.8,0,14.7,12.2,14.7,12.7c0.6,1.7,0,24.3,0,28.2l-13.8-4.4L335.5,153.2z"/>
<path class="st3" d="M276.3,198l19.6-6.9l0.8-44.8c-5.3,3-14.4,13-19.6,16.6c-2.5,3-0.8,12.2-0.8,16.9V198 M279.3,194.1v-28.2
	l14.4-12.7c0,9.1-0.8,18.2-0.8,27.4v6.6c0,3-0.6,2.5-3.6,3C286.3,191.9,281.6,193.3,279.3,194.1"/>
<path class="st3" d="M293.7,266.3c1.7,0,0.8-18.8,0.8-21.9c0-6.9,0.8-14.7,0.8-23c-2.5,2.2-5.5,4.7-8.6,6.1
	c-1.4,0.8-3.6,1.7-5.3,1.7c-1.4,0-5.3,0-5.3,1.4v35.7H293.7z M292.3,227.6L292.3,227.6v36.5h-13v-31.2L292.3,227.6z"/>
<path class="st3" d="M295.4,306.7c-2.5,0-6.9,1.6-10.8,1.6h-2.2h-6.1v36.5c0,0.6,16.6,5.8,17.4,5.8h0.8L295.4,306.7z M292.3,346.8
	c-3,0-11.6-3.6-12.2-3.6h-0.8v-31.8l3,0.6l10-1.4V346.8z"/>
<path class="st3" d="M334.9,350.7l18.3-5.3v-37.1l-4.7,0.6l-3-0.6c-4.4,0-7.5-1.6-11.3-1.6L334.9,350.7z M337.1,310.6l10.5,0.8h2.5
	v31c0,0.8-10.8,4.4-12.2,4.4L337.1,310.6z"/>
<path class="st3" d="M334.9,262.7v3.6h13.6h4.7v-35.7c0-1.4-3.9-0.8-5.5-1.4c-2.2-0.8-3.6-0.8-5.3-1.7c-2.2-1.4-7.5-5.3-8.3-5.3
	L334.9,262.7z M337.1,227.6l13,5.3v31.2h-13V227.6z"/>
<path class="st4" d="M354.6,80h3.5c0.9,0,1.8,0.2,2.6,0.4c0.7,0.4,1.1,1.1,1.1,2.2c0,0.7-0.1,1.2-0.3,1.6c-0.2,0.4-0.6,0.7-1,0.9
	c-0.9,0.3-1.9,0.5-3.1,0.5h-2.7V80z M352,95.3h2.6v-7.5h2.8l4.6,7.5h2.8l-4.8-7.7c1.3-0.1,2.4-0.6,3.2-1.3c0.8-0.8,1.2-1.9,1.2-3.4
	c0-3.3-2-5-5.9-5H352V95.3z M345.7,86.5c0-3.7,1.2-6.7,3.5-9c2.2-2.4,5-3.6,8.4-3.6c3.5,0.1,6.3,1.3,8.5,3.6c2.2,2.3,3.3,5.3,3.4,9
	c-0.1,3.7-1.2,6.7-3.4,9.1c-2.2,2.4-5,3.7-8.5,3.7c-3.4,0-6.2-1.3-8.4-3.7C346.9,93.2,345.7,90.2,345.7,86.5 M343.1,86.5
	c0.1,4.4,1.5,7.9,4.3,10.7c2.8,2.8,6.2,4.2,10.2,4.3c4-0.1,7.5-1.5,10.2-4.3c2.8-2.8,4.2-6.3,4.2-10.7c0-4.3-1.5-7.8-4.2-10.6
	c-2.8-2.8-6.2-4.2-10.2-4.2c-4,0.1-7.4,1.5-10.2,4.2C344.6,78.7,343.1,82.2,343.1,86.5"/>
<path d="M484.7,542.4h3.2V565h-3.2V542.4z M478.1,548.6h3.2V565h-3.2V548.6z M478.1,542.4h3.2v4h-3.2V542.4z M475.7,553.5l-3.2,0.8
	c-0.1-0.8-0.3-1.5-0.7-1.9c-0.4-0.4-0.9-0.7-1.5-0.7c-0.8,0-1.5,0.4-1.9,1.1c-0.5,0.7-0.7,2-0.7,3.7c0,2,0.2,3.3,0.7,4.1
	c0.5,0.8,1.1,1.2,2,1.2c0.6,0,1.1-0.2,1.5-0.7c0.4-0.5,0.7-1.3,0.8-2.4l3.2,0.7c-0.3,2-1,3.4-1.9,4.4c-0.9,1-2.2,1.5-3.8,1.5
	c-1.8,0-3.2-0.8-4.3-2.3c-1.1-1.5-1.6-3.6-1.6-6.3c0-2.7,0.5-4.8,1.6-6.3s2.5-2.3,4.3-2.3c1.5,0,2.7,0.4,3.6,1.3
	C474.6,550.4,475.3,551.7,475.7,553.5 M461.7,565h-3.2v-8.4c0-1.8-0.1-2.9-0.2-3.4c-0.1-0.5-0.4-0.9-0.7-1.2
	c-0.3-0.3-0.7-0.4-1.1-0.4c-0.6,0-1.1,0.2-1.5,0.6c-0.4,0.4-0.7,1-0.9,1.6c-0.2,0.7-0.2,1.9-0.2,3.8v7.4h-3.2v-16.4h3v2.4
	c1.1-1.9,2.4-2.8,4-2.8c0.7,0,1.4,0.2,2,0.5c0.6,0.3,1,0.8,1.3,1.3c0.3,0.5,0.5,1.2,0.6,1.8s0.2,1.6,0.2,2.9V565z M444.3,565v-2.5
	c-0.4,0.9-1,1.6-1.8,2.1c-0.7,0.5-1.5,0.8-2.3,0.8c-0.8,0-1.6-0.2-2.2-0.7c-0.7-0.5-1.1-1.2-1.4-2.1c-0.3-0.9-0.4-2.1-0.4-3.6v-10.4
	h3.2v7.5c0,2.3,0.1,3.7,0.2,4.3c0.1,0.5,0.3,0.9,0.7,1.2c0.3,0.3,0.7,0.4,1.2,0.4c0.6,0,1.1-0.2,1.5-0.6c0.4-0.4,0.7-0.9,0.9-1.5
	c0.2-0.6,0.2-2.1,0.2-4.4v-6.9h3.2V565H444.3z M424.4,556.8c0,1.6,0.3,2.9,0.9,3.7c0.6,0.9,1.3,1.3,2.1,1.3s1.6-0.4,2.1-1.3
	c0.6-0.9,0.9-2.1,0.9-3.8c0-1.6-0.3-2.8-0.9-3.7c-0.6-0.9-1.3-1.3-2.1-1.3s-1.6,0.4-2.1,1.3C424.7,554,424.4,555.2,424.4,556.8
	 M421.1,556.6c0-1.4,0.3-2.8,0.8-4.2c0.5-1.3,1.3-2.4,2.2-3.1c1-0.7,2.1-1.1,3.2-1.1c1.9,0,3.4,0.8,4.5,2.4c1.2,1.6,1.8,3.7,1.8,6.1
	c0,2.5-0.6,4.5-1.8,6.2c-1.2,1.6-2.7,2.5-4.5,2.5c-1.1,0-2.2-0.3-3.2-1c-1-0.7-1.8-1.7-2.3-3C421.4,560.1,421.1,558.5,421.1,556.6
	 M415.7,556.7l3.3,1.4c-0.5,2.5-1.3,4.3-2.5,5.5s-2.7,1.8-4.5,1.8c-2.2,0-4.1-1-5.5-3.1c-1.4-2.1-2.2-4.9-2.2-8.4
	c0-3.8,0.7-6.7,2.2-8.8c1.5-2.1,3.4-3.1,5.7-3.1c2.1,0,3.7,0.8,5,2.5c0.8,1,1.3,2.4,1.7,4.2l-3.4,1.1c-0.2-1.2-0.6-2.1-1.2-2.8
	c-0.6-0.7-1.4-1-2.3-1c-1.2,0-2.3,0.6-3,1.8c-0.8,1.2-1.2,3.2-1.2,5.8c0,2.9,0.4,4.9,1.1,6.1c0.8,1.2,1.8,1.8,3,1.8
	c0.9,0,1.7-0.4,2.3-1.2C414.9,559.6,415.4,558.4,415.7,556.7 M386.5,556.5c0,1.7,0.2,3,0.7,3.8c0.5,0.8,1.1,1.2,1.9,1.2
	c0.8,0,1.5-0.4,2-1.2c0.5-0.8,0.8-2.1,0.8-3.7c0-1.7-0.3-3-0.8-3.8c-0.5-0.8-1.2-1.2-2-1.2c-0.8,0-1.4,0.4-1.9,1.2
	C386.8,553.6,386.5,554.8,386.5,556.5 M383.6,566.1l3.7,0.6c0.1,0.6,0.2,1,0.4,1.2c0.3,0.3,0.8,0.5,1.4,0.5c0.8,0,1.5-0.2,1.9-0.5
	c0.3-0.2,0.5-0.6,0.7-1.1c0.1-0.4,0.1-1,0.1-2v-2.4c-1,1.8-2.2,2.7-3.7,2.7c-1.6,0-2.9-0.9-3.9-2.8c-0.7-1.5-1.1-3.3-1.1-5.5
	c0-2.8,0.5-4.8,1.5-6.3c1-1.4,2.2-2.2,3.7-2.2c1.5,0,2.8,0.9,3.7,2.7v-2.3h3v14.7c0,1.9-0.1,3.4-0.4,4.3c-0.2,1-0.6,1.7-1,2.3
	c-0.4,0.5-1,1-1.7,1.3c-0.7,0.3-1.6,0.5-2.7,0.5c-2.1,0-3.5-0.5-4.4-1.4c-0.9-1-1.3-2.2-1.3-3.6
	C383.6,566.5,383.6,566.3,383.6,566.1 M380.6,565h-3.2v-8.4c0-1.8-0.1-2.9-0.2-3.4c-0.1-0.5-0.4-0.9-0.7-1.2
	c-0.3-0.3-0.7-0.4-1.1-0.4c-0.6,0-1.1,0.2-1.5,0.6c-0.4,0.4-0.7,1-0.9,1.6c-0.2,0.7-0.2,1.9-0.2,3.8v7.4h-3.2v-16.4h3v2.4
	c1.1-1.9,2.4-2.8,4-2.8c0.7,0,1.4,0.2,2,0.5c0.6,0.3,1,0.8,1.3,1.3c0.3,0.5,0.5,1.2,0.6,1.8c0.1,0.7,0.2,1.6,0.2,2.9V565z
	 M363,548.6h3.2V565H363V548.6z M363,542.4h3.2v4H363V542.4z M351.2,556.5c0,1.7,0.2,3,0.5,3.8c0.5,1.1,1.2,1.7,2.2,1.7
	c0.7,0,1.4-0.4,1.9-1.3c0.5-0.9,0.8-2.1,0.8-3.8c0-1.9-0.2-3.2-0.7-4.1c-0.5-0.8-1.2-1.2-2-1.2c-0.8,0-1.4,0.4-1.9,1.2
	C351.4,553.6,351.2,554.8,351.2,556.5 M359.8,565h-3v-2.4c-0.5,0.9-1.1,1.6-1.8,2.1c-0.7,0.5-1.4,0.7-2.1,0.7
	c-1.4,0-2.6-0.8-3.6-2.3c-1-1.5-1.5-3.6-1.5-6.3c0-2.8,0.5-4.9,1.5-6.3c1-1.4,2.2-2.2,3.7-2.2c1.4,0,2.5,0.8,3.5,2.3v-8.1h3.2V565z
	 M342.1,542.4h3.2V565h-3.2V542.4z M335.5,548.6h3.2V565h-3.2V548.6z M335.5,542.4h3.2v4h-3.2V542.4z M329.2,565v-2.5
	c-0.4,0.9-1,1.6-1.7,2.1c-0.7,0.5-1.5,0.8-2.3,0.8c-0.8,0-1.6-0.2-2.2-0.7c-0.7-0.5-1.1-1.2-1.4-2.1c-0.3-0.9-0.4-2.1-0.4-3.6v-10.4
	h3.2v7.5c0,2.3,0.1,3.7,0.2,4.3c0.1,0.5,0.3,0.9,0.7,1.2c0.3,0.3,0.7,0.4,1.2,0.4c0.6,0,1.1-0.2,1.5-0.6c0.4-0.4,0.7-0.9,0.9-1.5
	c0.2-0.6,0.2-2.1,0.2-4.4v-6.9h3.2V565H329.2z M307.6,555.2v6.1h3.1c1.2,0,2,0,2.3-0.1c0.5-0.1,0.9-0.4,1.2-0.9
	c0.3-0.5,0.5-1.1,0.5-1.9c0-0.7-0.1-1.2-0.4-1.7c-0.2-0.5-0.6-0.8-1.1-1c-0.5-0.2-1.5-0.3-3-0.3H307.6z M307.6,546.2v5.2h2.2
	c1.3,0,2.1,0,2.5-0.1c0.6-0.1,1-0.3,1.4-0.8c0.3-0.4,0.5-1,0.5-1.8c0-0.7-0.1-1.3-0.4-1.7c-0.3-0.4-0.7-0.7-1.3-0.8
	c-0.3-0.1-1.3-0.1-2.9-0.1H307.6z M304.1,542.4h6.7c1.3,0,2.3,0.1,3,0.2c0.7,0.2,1.2,0.5,1.8,0.9c0.5,0.5,0.9,1.1,1.3,1.9
	c0.3,0.8,0.5,1.7,0.5,2.6c0,1.1-0.2,2-0.6,2.9c-0.4,0.9-1,1.5-1.7,2c1,0.4,1.8,1.1,2.4,2.1c0.6,1,0.8,2.1,0.8,3.4c0,1-0.2,2-0.5,3
	c-0.4,1-0.8,1.8-1.5,2.3c-0.6,0.6-1.4,0.9-2.3,1.1c-0.6,0.1-1.9,0.1-4.1,0.2h-5.7V542.4z M294.3,565h-3.2v-8.4
	c0-1.8-0.1-2.9-0.2-3.4c-0.1-0.5-0.4-0.9-0.7-1.2c-0.3-0.3-0.7-0.4-1.1-0.4c-0.6,0-1.1,0.2-1.5,0.6c-0.4,0.4-0.7,1-0.9,1.6
	c-0.2,0.7-0.2,1.9-0.2,3.8v7.4h-3.2v-16.4h3v2.4c1.1-1.9,2.4-2.8,4-2.8c0.7,0,1.4,0.2,2,0.5c0.6,0.3,1,0.8,1.3,1.3
	c0.3,0.5,0.5,1.2,0.6,1.8s0.2,1.6,0.2,2.9V565z M277.3,555.4c0-1.3-0.3-2.2-0.7-2.9c-0.5-0.7-1-1-1.7-1c-0.7,0-1.3,0.4-1.7,1
	c-0.5,0.7-0.7,1.6-0.7,2.8H277.3z M277.2,559.8l3.2,0.7c-0.4,1.6-1.1,2.8-2,3.6c-0.9,0.8-2,1.2-3.4,1.2c-2.1,0-3.7-0.9-4.7-2.8
	c-0.8-1.5-1.2-3.4-1.2-5.7c0-2.7,0.5-4.8,1.6-6.4c1.1-1.5,2.4-2.3,4-2.3c1.8,0,3.2,0.8,4.3,2.4c1.1,1.6,1.6,4.1,1.5,7.4h-8.1
	c0,1.3,0.3,2.3,0.8,3c0.5,0.7,1.1,1.1,1.9,1.1c0.5,0,0.9-0.2,1.3-0.6C276.7,561.2,277,560.6,277.2,559.8 M264.2,555.4
	c0-1.3-0.3-2.2-0.7-2.9c-0.5-0.7-1-1-1.7-1c-0.7,0-1.3,0.4-1.8,1c-0.5,0.7-0.7,1.6-0.7,2.8H264.2z M264.1,559.8l3.2,0.7
	c-0.4,1.6-1.1,2.8-2,3.6c-0.9,0.8-2,1.2-3.3,1.2c-2.1,0-3.7-0.9-4.7-2.8c-0.8-1.5-1.2-3.4-1.2-5.7c0-2.7,0.5-4.8,1.6-6.4
	c1.1-1.5,2.4-2.3,4-2.3c1.8,0,3.3,0.8,4.3,2.4c1,1.6,1.6,4.1,1.5,7.4h-8.1c0,1.3,0.3,2.3,0.8,3c0.5,0.7,1.1,1.1,1.9,1.1
	c0.5,0,0.9-0.2,1.3-0.6C263.6,561.2,263.9,560.6,264.1,559.8 M250.9,565h-3.2v-16.4h3v2.3c0.5-1.1,1-1.8,1.4-2.2
	c0.4-0.3,0.9-0.5,1.4-0.5c0.7,0,1.5,0.3,2.1,0.8l-1,3.8c-0.6-0.5-1.1-0.7-1.5-0.7c-0.5,0-0.8,0.2-1.2,0.5c-0.3,0.3-0.6,0.9-0.7,1.8
	c-0.2,0.9-0.3,2.7-0.3,5.5V565z M237.4,556.7v-3.8h7.3v9c-0.7,0.9-1.7,1.7-3.1,2.5c-1.4,0.7-2.7,1.1-4.1,1.1c-1.8,0-3.3-0.5-4.6-1.5
	c-1.3-1-2.3-2.4-3-4.3c-0.7-1.9-1-3.9-1-6c0-2.4,0.4-4.5,1.1-6.3c0.7-1.8,1.8-3.2,3.2-4.2c1.1-0.7,2.4-1.1,4-1.1
	c2.1,0,3.7,0.6,4.9,1.8c1.2,1.2,1.9,2.8,2.3,4.9l-3.4,0.9c-0.2-1.1-0.7-2-1.3-2.6c-0.7-0.6-1.5-1-2.5-1c-1.5,0-2.7,0.6-3.5,1.9
	c-0.9,1.3-1.3,3.1-1.3,5.6c0,2.7,0.4,4.7,1.3,6c0.9,1.3,2.1,2,3.5,2c0.7,0,1.4-0.2,2.2-0.6c0.7-0.4,1.3-0.8,1.8-1.4v-2.9H237.4z
	 M219.7,565h-3.2v-8.4c0-1.8-0.1-2.9-0.2-3.4c-0.2-0.5-0.4-0.9-0.7-1.2c-0.3-0.3-0.7-0.4-1.1-0.4c-0.6,0-1.1,0.2-1.5,0.6
	c-0.4,0.4-0.7,1-0.9,1.6c-0.2,0.7-0.2,1.9-0.2,3.8v7.4h-3.2v-16.4h3v2.4c1.1-1.9,2.4-2.8,4-2.8c0.7,0,1.4,0.2,2,0.5
	c0.6,0.3,1,0.8,1.3,1.3c0.3,0.5,0.5,1.2,0.6,1.8c0.1,0.7,0.2,1.6,0.2,2.9V565z M202.2,557.2c-0.4,0.2-1.1,0.4-2,0.7
	c-0.9,0.2-1.5,0.5-1.8,0.7c-0.4,0.4-0.6,0.9-0.6,1.5c0,0.6,0.2,1.1,0.5,1.6c0.3,0.4,0.8,0.7,1.3,0.7c0.6,0,1.1-0.2,1.7-0.8
	c0.4-0.4,0.7-0.9,0.8-1.4c0.1-0.4,0.1-1.1,0.1-2.1V557.2z M197.9,553.6l-2.9-0.7c0.3-1.6,0.9-2.8,1.7-3.5c0.8-0.7,2-1.1,3.6-1.1
	c1.4,0,2.5,0.2,3.2,0.7c0.7,0.5,1.2,1,1.5,1.7c0.3,0.7,0.4,2,0.4,3.9l0,5.1c0,1.4,0.1,2.5,0.2,3.2c0.1,0.7,0.3,1.4,0.6,2.2h-3.2
	c-0.1-0.3-0.2-0.7-0.3-1.3c0-0.3-0.1-0.4-0.1-0.5c-0.6,0.7-1.1,1.3-1.8,1.6c-0.6,0.4-1.3,0.5-2,0.5c-1.3,0-2.2-0.5-3-1.4
	c-0.7-0.9-1.1-2.1-1.1-3.5c0-0.9,0.2-1.7,0.5-2.5c0.3-0.7,0.8-1.3,1.4-1.7c0.6-0.4,1.4-0.7,2.6-1c1.5-0.4,2.6-0.7,3.1-1.1v-0.4
	c0-0.8-0.2-1.4-0.5-1.8c-0.3-0.4-0.9-0.5-1.7-0.5c-0.6,0-1,0.2-1.3,0.5C198.3,552.3,198.1,552.9,197.9,553.6 M188.9,548.6h3.2V565
	h-3.2V548.6z M188.9,542.4h3.2v4h-3.2V542.4z M177.1,556.5c0,1.7,0.2,3,0.5,3.8c0.5,1.1,1.2,1.7,2.2,1.7c0.7,0,1.4-0.4,1.9-1.3
	c0.5-0.9,0.8-2.1,0.8-3.8c0-1.9-0.2-3.2-0.8-4.1c-0.5-0.8-1.1-1.2-1.9-1.2c-0.8,0-1.4,0.4-1.9,1.2
	C177.4,553.6,177.1,554.8,177.1,556.5 M185.7,565h-3v-2.4c-0.5,0.9-1.1,1.6-1.8,2.1c-0.7,0.5-1.4,0.7-2.1,0.7
	c-1.4,0-2.6-0.8-3.6-2.3c-1-1.5-1.5-3.6-1.5-6.3c0-2.8,0.5-4.9,1.5-6.3c1-1.4,2.2-2.2,3.7-2.2c1.4,0,2.5,0.8,3.5,2.3v-8.1h3.2V565z
	 M171.3,565H168v-8.4c0-1.8-0.1-2.9-0.2-3.4c-0.1-0.5-0.4-0.9-0.7-1.2c-0.3-0.3-0.7-0.4-1.1-0.4c-0.6,0-1.1,0.2-1.5,0.6
	c-0.4,0.4-0.7,1-0.9,1.6c-0.2,0.7-0.2,1.9-0.2,3.8v7.4h-3.2v-16.4h3v2.4c1.1-1.9,2.4-2.8,4-2.8c0.7,0,1.4,0.2,2,0.5
	c0.6,0.3,1,0.8,1.3,1.3c0.3,0.5,0.5,1.2,0.6,1.8c0.1,0.7,0.2,1.6,0.2,2.9V565z M153.5,542.4h3.4V565h-3.4V542.4z"/>
<path d="M382.2,492.3c-0.7-2.1-2.1-2.9-4.2-2.2c-0.6,0.2-1.1,0.6-1.6,1.1c-0.5,0.6-0.9,1.2-1.2,2c-0.3,0.8-0.4,1.7-0.4,2.6
	c0,1,0.2,1.9,0.5,2.8l1.3,3.9l-2.6-0.4l-3.5-10.1l2.3-0.8l0.6,1.6c0.1-0.2,0.4-0.6,0.7-1c0.3-0.5,0.7-1,1.3-1.5
	c0.5-0.5,1.2-0.9,1.9-1.1c0.7-0.2,1.4-0.3,2.2-0.2c0.8,0.1,1.5,0.3,2.2,0.7c0.7,0.4,1.3,0.9,1.9,1.5c0.6,0.6,1,1.4,1.3,2.2
	c0.3,1,0.5,2,0.4,3.1c-0.1,1.1-0.4,2.3-1,3.6l-3.2-0.7c0.1-0.3,0.3-0.7,0.6-1.3c0.3-0.6,0.5-1.1,0.7-1.6c0.2-0.5,0.3-1.2,0.3-1.9
	C382.6,494,382.5,493.2,382.2,492.3 M383,485.4l-14.5,5l-0.6-1.6l14.5-5L383,485.4z M370.4,504.1l-2.6-0.7l-2.8-10.6l2.3-0.6
	L370.4,504.1z M368.3,490.1l-5.6,1.5l-0.5-1.7l5.6-1.5L368.3,490.1z M366.7,487.2c0,0-0.1,0.1-0.3,0.1c-0.1,0-0.3,0.1-0.4,0.1
	c-1-1.1-1.6-1.8-1.9-2c-0.3-0.2-0.6-0.3-0.9-0.3c-0.3,0-0.7,0-0.9,0c-0.3,0-0.6-0.1-0.8-0.4c-0.1,0-0.2-0.2-0.4-0.6
	c-0.2-0.3-0.5-0.7-0.9-1.2l-0.1-0.3l0.5-0.1c1.2,0,2,0.1,2.5,0.3c0.5,0.2,0.9,0.3,1.1,0.6c0.2,0.2,0.5,0.7,0.9,1.4s0.9,1.4,1.4,1.9
	c0,0.1,0.1,0.2,0.1,0.2C366.6,486.9,366.6,487,366.7,487.2 M358.6,499.1c-0.1-0.6-0.6-1.1-1.4-1.5c-0.8-0.4-1.6-0.5-2.6-0.3
	c-0.3,0.1-0.9,0.4-1.6,0.9c-0.7,0.5-1.3,1.2-1.8,2.1c-0.5,0.9-0.6,1.8-0.4,2.8c0.2,1,0.6,1.7,1.3,2.2c0.7,0.5,1.3,0.7,2,0.5
	c0.8-0.2,1.6-0.7,2.3-1.5c0.7-0.9,1.3-1.8,1.7-2.8C358.5,500.5,358.7,499.7,358.6,499.1 M362.3,491.7l-1.8,0.4l2.9,13.6l-2.8-0.5
	l-0.4-2c-0.5,1.1-1.1,2-1.7,2.6c-0.6,0.6-1.3,1-2.1,1.2c-0.8,0.2-1.8,0.1-3-0.4c-1.2-0.4-2.2-1.1-3.1-2c-0.9-0.9-1.5-1.8-1.7-2.8
	c-0.1-0.4,0-0.9,0.1-1.5c0.1-0.6,0.4-1.3,0.7-1.9c0.4-0.7,0.8-1.3,1.4-1.8c0.6-0.5,1.3-0.9,2.1-1.1c1-0.2,1.9-0.1,2.7,0.3
	c0.8,0.4,2,1.2,3.4,2.2l-1.2-5.5l-11.9,2.5l-0.4-1.7l11.9-2.5c-0.2-1-0.4-1.8-0.6-2.4c-0.2-0.6-0.5-1.3-0.9-2
	c-0.4-0.7-0.9-1.5-1.7-2.3c-0.7-0.8-1.7-1.8-2.8-2.8c0,0-0.1-0.1-0.1-0.2c0-0.1,0-0.2,0-0.2l2.7-0.6c1.1,0.8,2.2,1.9,3.3,3.4
	c1.1,1.5,2,3.7,2.6,6.6l1.8-0.4L362.3,491.7z M342.3,491.9l2.1,17.4c0,0-0.2,0-0.4-0.1c-0.2-0.1-0.5-0.2-0.8-0.3
	c-0.3-0.1-0.6-0.2-0.9-0.3s-0.5-0.2-0.5-0.2l-2-16.2c-0.2-1.1-0.5-2.1-1-3.1c-0.5-0.9-0.9-1.7-1.4-2.3c-0.5-0.6-1-1.1-1.6-1.6
	c-0.6-0.5-0.9-0.8-1-0.9l3-0.4c0.9,0.7,1.7,1.5,2.3,2.5c0.6,1,1.1,1.9,1.5,2.9C342,490.3,342.2,491.1,342.3,491.9 M339.8,495.7
	l-1.6,0.2l-0.2-1.7l1.6-0.2L339.8,495.7z M344.7,495.1l-1.5,0.2l-0.2-1.7l1.5-0.2L344.7,495.1z M338.6,509.9l-2.5-1l-1.3-10.9
	l2.4-0.3L338.6,509.9z M338.5,495.7l-5.8,0.7l-0.2-1.7l5.8-0.7L338.5,495.7z M337.2,492.6c0,0-0.1,0.1-0.3,0.1c-0.2,0-0.3,0-0.4,0
	c-0.8-1.2-1.4-2-1.6-2.3c-0.2-0.3-0.5-0.4-0.9-0.5c-0.3,0-0.6-0.1-0.9-0.1c-0.3,0-0.5-0.2-0.7-0.5c0,0-0.1-0.2-0.3-0.6
	c-0.2-0.4-0.4-0.8-0.8-1.3l0-0.3l0.6-0.1c1.2,0.2,2,0.4,2.5,0.6c0.5,0.2,0.8,0.5,1,0.7c0.2,0.2,0.4,0.7,0.7,1.5
	c0.3,0.8,0.7,1.5,1.1,2.1c0,0.1,0,0.2,0.1,0.2C337.2,492.3,337.2,492.4,337.2,492.6 M333.7,496.1l-11.9,0.8l0.7,9.1
	c0.1,0.7,0.2,1.3,0.5,1.9c0.3,0.6,0.7,1,1.1,1.4c0.5,0.3,1,0.5,1.6,0.4c0.9-0.1,1.6-0.3,2.2-0.7c0.6-0.4,1.1-1,1.4-1.5
	c0.3-0.6,0.5-1.1,0.6-1.7c0.1-0.5,0.2-1,0.1-1.3l-0.4-5.7l2.9-0.2l0.8,12.1c-0.2-0.1-0.7-0.3-1.3-0.5c-0.7-0.2-1.2-0.5-1.7-0.6
	l-0.1-1.1c-0.5,0.4-0.9,0.7-1.4,1.1c-0.5,0.3-0.9,0.5-1.4,0.7c-0.5,0.2-1.1,0.3-1.7,0.3c-0.9,0.1-1.9-0.1-2.8-0.6
	c-0.9-0.4-1.7-1-2.3-1.9c-0.6-0.8-0.9-1.7-1-2.7l-0.6-8.2l-1.7,0.1l-0.1-1.7l16.3-1.2L333.7,496.1z M313.9,505.7
	c0-0.4-0.1-0.8-0.4-1.4c-0.2-0.5-0.6-1-1-1.5c-0.4-0.5-1-0.9-1.7-1.3c-0.7-0.4-1.4-0.5-2.1-0.6c-0.5,0-0.9,0.1-1.4,0.4
	c-0.5,0.3-0.9,0.6-1.2,0.9c-0.3,0.3-0.5,0.6-0.5,0.8c0,0.7,0.2,1.5,0.8,2.5c0.5,1,1.2,1.8,2.1,2.6c0.9,0.7,1.7,1.1,2.5,1.2
	c0.5,0,0.9-0.2,1.4-0.5c0.4-0.3,0.8-0.8,1-1.3C313.7,506.9,313.9,506.3,313.9,505.7 M316.4,497.2l-10.8-0.4l-0.2,5.3
	c0.2-0.2,0.5-0.6,1-1.1c0.5-0.5,1.1-0.9,1.9-1.4c0.8-0.5,1.5-0.7,2.3-0.7c0.8,0,1.5,0.2,2.1,0.6c0.6,0.3,1.2,0.8,1.6,1.3
	c0.5,0.5,0.8,1.1,1,1.7c0.2,0.6,0.3,1.2,0.3,1.7c0,0.8-0.3,1.6-0.7,2.4c-0.5,0.8-1,1.5-1.7,2c-0.7,0.6-1.4,1.1-2.1,1.4
	c-0.7,0.3-1.4,0.5-1.9,0.5c-0.7,0-1.2-0.2-1.8-0.7c-0.5-0.4-1.3-1.2-2.3-2.2l-0.1,2.9l-2.5-1.2l0.5-12.8l-2.3-0.1l0.1-1.7l2.3,0.1
	c0-1.2-0.1-2.4-0.4-3.6c-0.3-1.2-0.7-2.2-1.2-3.1c-0.5-0.9-1-1.7-1.5-2.4c-0.5-0.7-0.9-1.2-1.2-1.5l3.1,0.1c0.4,0.3,0.7,0.7,1.1,1.2
	c0.4,0.4,0.8,1.1,1.3,2c0.5,0.9,0.8,1.9,1.1,3.2c0.3,1.2,0.4,2.7,0.4,4.3l10.8,0.4L316.4,497.2z M289.3,501.3
	c0.4-2.3-0.5-3.5-2.7-3.9c-0.6-0.1-1.3,0-2,0.2c-0.7,0.3-1.4,0.7-2,1.2c-0.6,0.6-1.2,1.3-1.6,2.1c-0.5,0.8-0.8,1.7-0.9,2.7l-0.7,4.1
	l-2.1-1.6l1.7-10.6l2.4,0.4l-0.3,1.7c0.2-0.1,0.6-0.3,1.1-0.6c0.5-0.3,1.1-0.5,1.8-0.7c0.7-0.2,1.4-0.2,2.2-0.1
	c0.7,0.1,1.4,0.4,2.1,0.8c0.6,0.4,1.2,1,1.6,1.6c0.4,0.7,0.8,1.4,1,2.2c0.2,0.8,0.2,1.7,0.1,2.6c-0.2,1-0.5,2-1.1,3
	c-0.6,1-1.4,1.9-2.5,2.8l-2.4-2.1c0.2-0.2,0.6-0.5,1.1-0.8c0.5-0.4,1-0.7,1.4-1.1c0.4-0.4,0.8-0.9,1.2-1.5
	C288.9,503,289.1,502.2,289.3,501.3 M293.3,495.6l-15.1-2.4l0.3-1.7l15.1,2.4L293.3,495.6z M277,493.1l-3.8-1l-0.7,2.7
	c0.2,0.1,0.4,0.2,0.6,0.4c0.2,0.1,0.2,0.2,0.3,0.2l-0.4,1.6c-1-0.7-2.1-1.2-3.3-1.5c-0.8-0.2-1.7-0.3-2.8-0.2
	c-1,0.1-1.7,0.5-1.9,1.1c-0.2,0.7,0.7,1.4,2.8,2c0.2,0,0.5,0.1,0.9,0.2c0.4,0.1,0.7,0.2,0.8,0.2l-0.3,1.3c-0.7-0.2-1.4-0.3-2.3-0.5
	c-0.9-0.2-1.7-0.2-2.5-0.1c-0.8,0.1-1.2,0.5-1.4,1.1c-0.1,0.5,0.1,1.1,0.6,1.6c0.5,0.5,1.2,0.9,2,1.1c1.6,0.4,3.1,0.4,4.5,0
	c1.4-0.4,2.7-1.1,3.8-2.1l-0.9,3.5c-1.1,0.4-2.2,0.5-3.2,0.5c-1-0.1-1.9-0.2-2.9-0.5c-0.9-0.2-1.9-0.7-3-1.3c-1.1-0.6-2-1.3-2.7-2
	c-0.7-0.7-0.9-1.5-0.7-2.2c0.2-0.7,0.6-1.2,1.3-1.5c0.7-0.3,1.4-0.5,2.1-0.6c-0.3-0.3-0.6-0.6-0.8-0.8c-0.2-0.2-0.3-0.4-0.4-0.7
	c-0.1-0.2-0.1-0.5,0-0.8c0.2-0.6,0.5-1.1,1.1-1.3c0.6-0.3,1.3-0.4,2.1-0.4c0.8,0,1.6,0,2.4,0.2c0.8,0.1,1.5,0.3,2.2,0.4l0.6-2.2
	l-8.8-2.4l0.5-1.7l14.7,3.9L277,493.1z M263.7,489.7l-3.7-1.3l-0.9,2.6c0.2,0.1,0.4,0.3,0.5,0.4c0.1,0.1,0.2,0.2,0.3,0.3l-0.6,1.6
	c-0.9-0.7-2-1.3-3.2-1.7c-0.8-0.3-1.7-0.4-2.7-0.4c-1,0-1.7,0.3-2,1c-0.2,0.7,0.7,1.4,2.7,2.1c0.2,0.1,0.5,0.1,0.9,0.3
	c0.4,0.1,0.7,0.2,0.8,0.2l-0.4,1.2c-0.7-0.2-1.4-0.4-2.3-0.7c-0.9-0.2-1.7-0.3-2.4-0.3c-0.8,0-1.3,0.4-1.5,1c-0.2,0.5,0,1.1,0.5,1.6
	c0.5,0.5,1.1,0.9,1.9,1.2c1.6,0.5,3,0.7,4.5,0.3c1.4-0.3,2.7-0.9,3.9-1.8l-1.2,3.4c-1.1,0.3-2.2,0.4-3.2,0.2c-1-0.1-1.9-0.3-2.8-0.7
	c-0.9-0.3-1.9-0.8-2.9-1.5c-1.1-0.7-1.9-1.4-2.5-2.2c-0.6-0.8-0.8-1.5-0.6-2.2c0.2-0.7,0.7-1.2,1.4-1.4c0.7-0.2,1.4-0.4,2.2-0.5
	c-0.3-0.3-0.5-0.6-0.7-0.8c-0.2-0.2-0.3-0.4-0.4-0.7c-0.1-0.2-0.1-0.5,0-0.8c0.2-0.6,0.6-1,1.2-1.2c0.6-0.2,1.3-0.3,2.1-0.3
	c0.8,0,1.6,0.2,2.3,0.3c0.8,0.2,1.5,0.4,2.1,0.6l0.7-2.2l-8.6-3l0.6-1.6l14.4,4.9L263.7,489.7z M244.7,488.5c-0.3,0.6-0.8,1-1.8,1.3
	c-0.9,0.3-1.6,0.4-2.1,0.5l-0.9-3.1c0.8,0.3,1.5,0.3,2.2,0.1c0.7-0.2,1.2-0.6,1.4-1c0.1-0.2,0-0.5-0.1-0.8c-0.2-0.4-0.5-0.7-0.9-0.9
	c-0.6-0.2-1.3-0.3-2.3-0.1c-0.9,0.2-1.9,0.6-2.7,1.2c-0.9,0.6-1.5,1.3-1.9,2.1l-2.6,5.5l-1.9-2.5l4.5-9.6l2.5,1.2l-0.5,1
	c0.1,0,0.4-0.1,1-0.1c0.6,0,1.2,0,1.9,0c0.7,0.1,1.3,0.2,1.9,0.5c0.5,0.2,1,0.6,1.5,1.1c0.5,0.5,0.8,1.1,1,1.8
	C245.1,487.3,245,487.9,244.7,488.5 M248,484.4l-13.1-6.1l0.7-1.6l13.1,6.1L248,484.4z M228.4,480.3c0.6-1,0.3-1.8-0.7-2.4
	c-0.6-0.3-1.3-0.5-2.1-0.5c-0.8,0-1.5,0.1-2.1,0.4c-0.6,0.3-1.1,0.7-1.4,1.1c-0.2,0.3-0.2,0.7-0.2,1.3c0.1,0.6,0.4,1,0.9,1.3
	c0.4,0.2,0.9,0.3,1.6,0.4c0.7,0.1,1.5,0,2.2-0.3C227.5,481.4,228,481,228.4,480.3 M227.5,493c-0.5,0.9-1.1,1.4-1.7,1.5
	c-0.6,0.1-1.2-0.1-1.9-0.5c-0.5-0.3-0.9-0.6-1.1-0.9c-0.2-0.3-0.6-0.9-1.2-1.6c-0.5-0.8-1-1.4-1.4-1.9c-0.4-0.5-0.9-0.9-1.5-1.2
	c-0.9-0.5-2-0.9-3.2-1c-1.3-0.2-2.5-0.1-3.9,0.1c-1.3,0.3-2.5,0.8-3.6,1.6c0-0.2,0.1-0.4,0.3-0.7c0.4-0.6,0.9-1.2,1.6-1.7
	c0.7-0.6,1.5-1,2.5-1.3c0.9-0.3,1.9-0.5,2.9-0.4c1,0.1,2,0.4,3,0.9c0.9,0.5,1.6,1.1,1.9,1.6c0.4,0.6,0.8,1.4,1.3,2.4
	c0.5,1.1,1,1.7,1.4,2c0.5,0.3,1.1,0.4,1.7,0.5c0.6,0,1.2-0.1,1.7-0.3c0.5-0.2,0.9-0.5,1.1-0.9c0.2-0.4,0.4-0.8,0.4-1.3
	c0-0.5-0.1-0.9-0.2-1.3c-0.2-0.4-0.5-0.7-1-1c-0.4-0.2-1.1-0.4-2-0.6c-0.9-0.2-1.9-0.3-2.8-0.4c-0.9-0.1-1.6-0.3-2-0.6
	c-0.4-0.2-0.8-0.7-1.1-1.4c-0.4-0.7-0.6-1.4-0.7-2.1c-0.1-0.8-0.1-1.3,0.2-1.7c0.2-0.4,0.7-0.6,1.3-0.7c0.7-0.1,1.3-0.1,1.8,0.2
	l0.1-0.1c-0.1-0.5-0.1-0.9-0.1-1.2c0-0.3,0-0.6,0-0.9c0-0.3,0.2-0.6,0.4-0.9c0.6-1,1.5-1.5,2.6-1.4c1.1,0.1,2.4,0.5,3.7,1.3
	c0.1,0,0.1,0,0.2,0c0.1,0,0.1-0.1,0.1-0.1l0.8-1.4l-6.4-3.7l0.9-1.5l12.7,7.3l-0.9,1.5l-4.4-2.5l-1.2,2.1c-0.1,0.1-0.1,0.2-0.2,0.4
	c-0.1,0.2,0,0.3,0.1,0.5c0.1,0.1,0.4,0.1,0.7-0.1c0.3-0.1,0.6-0.2,0.8-0.3c0.2-0.1,0.5,0,0.8,0.1c0.2,0.1,0.4,0.4,0.6,0.7
	c0.2,0.3,0.3,0.7,0.3,1.1c0,0.4,0,0.7-0.1,1.1l-2.1,0.7c0.2-0.3,0.3-0.8,0.4-1.2c0.1-0.5-0.1-0.8-0.4-1c-0.1,0-0.2-0.1-0.5-0.1
	s-0.4,0.1-0.5,0.2c0,0,0,0.1,0,0.3c0,0.2,0,0.5-0.1,0.7c-0.1,0.2-0.2,0.5-0.3,0.8c-0.6,1.1-1.4,1.6-2.4,1.5
	c-0.9-0.1-2.1-0.5-3.4-1.3c-1.3-0.7-2.4-1.1-3.2-1c-0.8,0.1-1.4,0.3-1.6,0.6c-0.2,0.3-0.1,0.7,0.1,1c0.2,0.3,0.4,0.5,0.5,0.6
	c0.3,0.2,0.7,0.3,1.2,0.4c0.5,0.1,1.1,0.1,2.1,0.2c0.9,0.1,1.7,0.2,2.5,0.3c0.7,0.2,1.4,0.4,2,0.7c0.9,0.5,1.5,1.4,1.5,2.4
	c0.1,1.1,0,2.1-0.3,3.1C228,491.9,227.7,492.6,227.5,493 M209.5,470.9c1.3-1.9,1.1-3.4-0.7-4.7c-0.5-0.4-1.2-0.6-1.9-0.7
	c-0.7-0.1-1.5,0-2.3,0.2c-0.8,0.2-1.6,0.6-2.4,1.2c-0.8,0.6-1.4,1.2-2,2l-2.4,3.4l-1.2-2.3l6.2-8.8l2,1.4l-1,1.4
	c0.2,0,0.7,0,1.2-0.1c0.6,0,1.2,0,2,0.1c0.7,0.1,1.4,0.4,2,0.9c0.6,0.4,1.1,1,1.5,1.6c0.4,0.7,0.6,1.4,0.7,2.2
	c0.1,0.8,0.1,1.6-0.1,2.4c-0.2,0.8-0.6,1.6-1.1,2.3c-0.6,0.8-1.3,1.5-2.3,2.1c-1,0.6-2.1,1.1-3.5,1.4l-1.3-3
	c0.3-0.1,0.7-0.2,1.4-0.3c0.6-0.1,1.2-0.2,1.8-0.4c0.6-0.2,1.1-0.5,1.7-0.9C208.4,472.2,208.9,471.6,209.5,470.9 M215.6,467.5
	l-12.6-8.8l1-1.4l12.6,8.8L215.6,467.5z M194.7,463.3c0.3-0.3,0.2-0.9-0.4-1.8c-0.6-0.9-1-1.4-1.3-1.7c-0.8-0.7-1.6-1.1-2.6-1.3
	c-0.9-0.2-1.8-0.3-2.5-0.1c-0.7,0.1-1.2,0.3-1.5,0.6c-0.2,0.4-0.1,0.8,0.2,1.2c0.3,0.4,0.6,0.8,1,1.1c0.7,0.6,1.5,1.1,2.3,1.4
	c0.8,0.3,1.6,0.6,2.3,0.7c0.7,0.1,1.3,0.1,1.8,0.1C194.4,463.5,194.7,463.4,194.7,463.3 M203,458.5l-7.3-6.1l-1.5,1.7
	c0,0,0.1,0.1,0.1,0.1c0,0,0,0.1,0,0.1c0,0,0.2,0.1,0.6,0.2c0.4,0.2,0.8,0.4,1.3,0.7c0.5,0.3,0.9,0.6,1.3,0.9
	c0.9,0.7,1.5,1.4,1.8,2.1c0.3,0.7,0.4,1.3,0.2,1.9c-0.1,0.6-0.4,1.2-0.8,1.8c-0.4,0.6-1,1.3-1.8,2.3l-3.6,4.3
	c-0.3-0.5-0.5-1-0.7-1.4c-0.2-0.4-0.3-0.7-0.4-0.9c0.2-0.2,0.3-0.4,0.2-0.6c-0.4-0.1-0.7-0.2-1.2-0.2c-0.4-0.1-0.9-0.3-1.5-0.5
	c-0.6-0.3-1.2-0.7-1.9-1.3c-0.6-0.5-1.1-1.2-1.6-1.9c-0.4-0.7-0.6-1.5-0.6-2.2c0-0.8,0.2-1.4,0.7-2c0.4-0.5,1.1-0.8,2.1-1
	c0.9-0.2,2-0.1,3.1,0.2c1.1,0.3,2.1,0.8,3,1.6c0.5,0.4,0.9,0.9,1.3,1.4c0.3,0.5,0.5,1,0.6,1.4l0.8-1c0-0.6,0-1.1-0.2-1.5
	c-0.2-0.4-0.5-0.8-1.1-1.3c-0.8-0.6-1.5-1.1-2-1.3c-0.5-0.3-1.1-0.5-1.8-0.7c-0.7-0.2-1.2-0.4-1.7-0.6l0.7-0.8c0.1,0,0.2,0,0.4,0
	c0.2,0,0.3,0,0.3,0c0.1,0,0.1,0,0.1,0l2.4-2.8l-2.2-1.9l1.1-1.3l10.9,9.2L203,458.5z M180.3,457.1l-0.7-2.6l7.9-7.6l1.7,1.7
	L180.3,457.1z M191.6,448.5l-4-4.2l1.2-1.2l4,4.2L191.6,448.5z M193.3,445.7c-0.1,0-0.1-0.1-0.3-0.2c-0.1-0.1-0.2-0.2-0.2-0.3
	c0.5-1.4,0.8-2.3,0.8-2.6c0.1-0.3,0-0.7-0.1-1c-0.2-0.3-0.3-0.6-0.5-0.8c-0.1-0.2-0.2-0.6-0.1-0.9c0-0.1,0.1-0.3,0.3-0.6
	c0.2-0.3,0.4-0.8,0.5-1.4l0.2-0.2l0.4,0.4c0.5,1,0.9,1.8,1,2.4c0.1,0.5,0.1,0.9,0,1.2c-0.1,0.3-0.4,0.8-0.8,1.5
	c-0.4,0.7-0.7,1.4-1,2.1c-0.1,0.1-0.1,0.1-0.2,0.2C193.5,445.5,193.4,445.5,193.3,445.7 M178.8,444.6c0.4-0.4,0.7-1,0.7-1.9
	c0-0.9-0.3-1.7-0.9-2.4c-0.2-0.3-0.8-0.6-1.6-0.9c-0.8-0.4-1.7-0.6-2.7-0.6c-1,0-1.9,0.3-2.6,1c-0.7,0.7-1.2,1.4-1.3,2.2
	c-0.1,0.8,0.1,1.5,0.5,2c0.5,0.6,1.4,1,2.5,1.2c1.1,0.2,2.2,0.3,3.3,0.1C177.6,445.2,178.4,444.9,178.8,444.6 M187.1,444.2l-1.2-1.4
	l-10.5,9.1l-0.9-2.7l1.6-1.3c-1.2,0.1-2.3,0-3.1-0.2c-0.8-0.2-1.5-0.6-2.1-1.3c-0.6-0.6-0.9-1.6-1.1-2.8c-0.2-1.2-0.1-2.4,0.2-3.7
	c0.3-1.2,0.8-2.2,1.6-2.9c0.3-0.2,0.8-0.5,1.4-0.7c0.6-0.2,1.3-0.3,2.1-0.3c0.8,0,1.5,0.1,2.3,0.4c0.7,0.2,1.4,0.7,2,1.4
	c0.7,0.7,1,1.6,1,2.5c0,0.9-0.1,2.3-0.3,4.1l4.2-3.7l-8-9.2l1.3-1.1l8,9.2c0.7-0.7,1.4-1.2,1.8-1.7c0.5-0.5,0.9-1,1.3-1.7
	c0.4-0.7,0.8-1.5,1.2-2.6c0.4-1.1,0.7-2.3,1.1-3.8c0,0,0-0.1,0.1-0.2c0.1-0.1,0.2-0.1,0.2-0.1l1.8,2.1c-0.2,1.3-0.6,2.8-1.4,4.5
	c-0.7,1.7-2.2,3.5-4.5,5.5l1.2,1.4L187.1,444.2z M168,430.9c1.9-1.2,2.3-2.8,1.1-4.6c-0.3-0.5-0.8-1-1.5-1.3
	c-0.7-0.4-1.4-0.6-2.2-0.6c-0.8-0.1-1.7,0-2.6,0.2c-0.9,0.2-1.8,0.6-2.6,1.1l-3.5,2.3l-0.2-2.6l9-5.8l1.3,2l-1.4,0.9
	c0.2,0.1,0.6,0.2,1.2,0.4c0.6,0.2,1.1,0.5,1.8,0.9c0.6,0.4,1.1,0.9,1.6,1.6c0.4,0.6,0.7,1.3,0.8,2.1c0.1,0.7,0.1,1.5-0.1,2.3
	c-0.2,0.8-0.5,1.5-1,2.2c-0.5,0.7-1.1,1.3-1.9,1.8c-0.8,0.5-1.8,0.9-2.9,1.1c-1.1,0.2-2.4,0.2-3.8,0l-0.1-3.2c0.3,0,0.7,0.1,1.4,0.2
	c0.6,0.2,1.2,0.3,1.8,0.3c0.6,0.1,1.2,0,1.9-0.2C166.5,431.7,167.2,431.4,168,430.9 M174.9,430.1l-8.3-12.9l1.4-0.9l8.4,12.9
	L174.9,430.1z M153.3,422.3l-0.1-2.7l9.5-5.5l1.2,2.1L153.3,422.3z M166.3,416.7l-2.9-5l1.5-0.9l2.9,5L166.3,416.7z M168.7,414.4
	c-0.1,0-0.1-0.1-0.2-0.2c-0.1-0.1-0.1-0.3-0.2-0.4c0.8-1.3,1.3-2.1,1.5-2.4c0.1-0.3,0.2-0.7,0.1-1c-0.1-0.3-0.2-0.6-0.2-0.9
	c-0.1-0.3,0-0.6,0.2-0.9c0-0.1,0.2-0.2,0.5-0.5c0.3-0.3,0.6-0.7,0.9-1.2l0.3-0.2l0.3,0.5c0.3,1.1,0.4,2,0.4,2.5
	c0,0.5-0.1,0.9-0.3,1.2c-0.2,0.2-0.5,0.7-1.1,1.3c-0.6,0.6-1.1,1.2-1.5,1.8c-0.1,0.1-0.1,0.1-0.2,0.1
	C168.9,414.2,168.8,414.3,168.7,414.4"/>
<path d="M467.6,410.4l15.2,8.8c0,0-0.1,0.1-0.3,0.2c-0.2,0.1-0.4,0.3-0.7,0.4c-0.3,0.2-0.5,0.3-0.8,0.5c-0.3,0.2-0.4,0.3-0.4,0.3
	l-14.1-8.2c-1-0.5-2-0.9-3-1.1c-1-0.2-1.9-0.3-2.7-0.2c-0.8,0-1.5,0.1-2.2,0.3c-0.7,0.2-1.2,0.2-1.3,0.3l1.5-2.6
	c1.1-0.3,2.2-0.4,3.4-0.3c1.2,0.1,2.2,0.3,3.2,0.6C466.1,409.7,466.9,410,467.6,410.4 M469.2,414.6l-0.8,1.4l-1.5-0.9l0.8-1.4
	L469.2,414.6z M471.6,410.4l-0.8,1.3l-1.5-0.9l0.8-1.3L471.6,410.4z M479.7,424.1l-2.3,1.4l-9.5-5.5l1.2-2.1L479.7,424.1z
	 M468.4,415.6l-2.9,5l-1.5-0.9l2.9-5L468.4,415.6z M465.1,414.8c0,0.1,0,0.2-0.1,0.3c-0.1,0.1-0.2,0.2-0.2,0.3
	c-1.5-0.1-2.4-0.1-2.8-0.1c-0.4,0-0.7,0.2-0.9,0.4c-0.2,0.2-0.5,0.5-0.7,0.7c-0.2,0.2-0.5,0.3-0.8,0.3c-0.1,0-0.3,0-0.7-0.1
	c-0.4-0.1-0.9-0.2-1.5-0.2l-0.3-0.2l0.3-0.5c0.9-0.8,1.5-1.3,2-1.6c0.5-0.2,0.9-0.4,1.1-0.4c0.3,0,0.8,0.1,1.7,0.3
	c0.8,0.2,1.6,0.3,2.3,0.4c0.1,0,0.2,0.1,0.2,0.1C464.9,414.6,465,414.7,465.1,414.8 M465.8,420.6l-1.7,2.4l3.2,2.3
	c0.8-0.2,1.4-0.2,1.7-0.2c0.3,0,0.8,0.1,1.5,0.2l-1.1,1.5c-0.9-0.7-1.7-0.9-2.5-0.7c-0.8,0.2-1.5,0.7-2.1,1.4c-0.7,0.9-1,1.9-1.1,3
	c0,1.1,0.2,2.1,0.6,3.1c0.4,1,1,1.7,1.7,2.2c0.4,0.3,0.9,0.5,1.4,0.6c0.5,0.1,1.1,0,1.6-0.3c0.5-0.3,1.1-0.8,1.6-1.5
	c0.6-0.9,1-1.7,1-2.4c0.1-0.7,0-1.2-0.1-1.5l1.8-2.5c0.3,0.4,0.5,0.9,0.6,1.6c0.1,0.7,0,1.4-0.2,2.2c-0.2,0.8-0.5,1.4-0.8,1.9
	c-0.7,1-1.7,1.7-3,2.3c-1.3,0.6-2.5,0.9-3.8,0.9c-1.3,0-2.3-0.3-3.2-0.9c-0.5-0.3-0.9-1-1.3-1.9c-0.4-1-0.6-2-0.6-3.2
	c0-1.2,0.4-2.2,1.1-3.2c0.4-0.6,0.9-1.1,1.4-1.4c0.5-0.3,0.9-0.5,1.1-0.6l-1.9-1.4l-5.9,8.1l-1.4-1l9-12.4L465.8,420.6z
	 M458.9,440.3c-1.7-1.5-3.3-1.5-4.7,0.1c-0.4,0.5-0.7,1.1-0.9,1.8c-0.2,0.7-0.2,1.5,0,2.3c0.1,0.8,0.4,1.7,0.9,2.5
	c0.5,0.8,1,1.6,1.8,2.2l3.1,2.8l-2.5,0.9l-8-7.2l1.6-1.8l1.3,1.1c0-0.2,0.1-0.7,0.1-1.3c0-0.6,0.2-1.2,0.4-1.9
	c0.2-0.7,0.6-1.3,1.1-1.9c0.5-0.6,1.1-1,1.8-1.3c0.7-0.3,1.5-0.5,2.3-0.5c0.8,0,1.6,0.1,2.4,0.4c0.8,0.3,1.5,0.7,2.2,1.3
	c0.7,0.7,1.4,1.5,1.9,2.6c0.5,1,0.8,2.2,0.9,3.6l-3.1,0.9c-0.1-0.3-0.1-0.7-0.1-1.4c0-0.6-0.1-1.2-0.2-1.8c-0.1-0.6-0.3-1.2-0.7-1.8
	C460.1,441.5,459.6,440.9,458.9,440.3 M456.3,433.8L446,445.2l-1.3-1.2l10.3-11.4L456.3,433.8z M444.8,446.2l-8.7,8.1l6.2,6.7
	c0.5,0.5,1,0.8,1.6,1.1c0.6,0.3,1.1,0.4,1.7,0.3c0.6,0,1.1-0.3,1.5-0.7c0.6-0.6,1.1-1.3,1.2-2c0.2-0.7,0.2-1.4,0.1-2
	c-0.1-0.6-0.3-1.2-0.6-1.7c-0.2-0.5-0.5-0.9-0.7-1.1l-3.9-4.1l2.1-2l8.3,8.9c-0.2,0.1-0.7,0.2-1.4,0.4c-0.7,0.2-1.2,0.4-1.7,0.6
	l-0.8-0.8c-0.1,0.6-0.2,1.2-0.4,1.7c-0.2,0.5-0.4,1-0.6,1.4c-0.3,0.4-0.7,0.9-1.1,1.3c-0.7,0.7-1.5,1.1-2.5,1.4c-1,0.2-2,0.2-3,0
	c-1-0.2-1.8-0.7-2.5-1.5l-5.6-6l-1.3,1.2l-1.2-1.3l12-11.2L444.8,446.2z M433.2,464.7c-0.4-0.6-0.9-0.9-1.5-1.1
	c-0.6-0.1-1.1-0.1-1.5,0c-0.5,0.1-0.8,0.3-1.1,0.5c-0.3,0.3-0.7,0.7-1.1,1.4c-0.4,0.6-0.7,1.4-0.9,2.2c-0.2,0.8-0.2,1.7-0.1,2.6
	c0.1,0.9,0.5,1.8,1.2,2.6c0.2,0.3,0.6,0.6,1.1,0.7c0.5,0.1,1,0.2,1.5,0.1c0.5-0.1,1-0.3,1.3-0.6c0.4-0.3,0.8-0.8,1.2-1.5
	c0.4-0.7,0.7-1.4,0.9-2.3c0.2-0.8,0.2-1.6,0.1-2.5C434.1,466.1,433.8,465.4,433.2,464.7 M432,457.7l-2.5,2l2.4,3.1
	c0.1,0.1,0.3,0.1,0.6,0.2c0.4,0,0.7,0.1,1,0.1c0.3,0.1,0.7,0.2,1.2,0.5c0.5,0.3,0.9,0.7,1.4,1.3c0.6,0.8,1,1.7,1.1,2.7
	c0.1,1,0,2-0.4,2.9c-0.4,0.9-1,1.7-1.9,2.4c-0.6,0.4-1.3,0.8-2.2,1c-0.9,0.2-1.9,0.3-2.9,0.3c-1,0-1.9-0.2-2.8-0.6
	c-0.9-0.4-1.6-0.9-2.1-1.6c-0.4-0.5-0.7-1.2-0.8-2.1c-0.1-0.9-0.1-1.9,0.3-2.9c0.3-1,0.9-1.9,1.9-2.6c0.5-0.4,1.4-0.9,2.6-1.4
	c0,0,0.1-0.1,0-0.2l-1.4-1.8l-7.7,6l-1.1-1.4l12.2-9.5L432,457.7z M418,468.1l-2.6,1.5l2,3.4c0.8,0.2,1.4,0.3,1.7,0.5
	c0.3,0.1,0.7,0.4,1.2,0.8l-1.6,1c-0.5-1-1.2-1.5-2-1.7c-0.8-0.2-1.6,0-2.5,0.5c-1,0.6-1.7,1.3-2.2,2.3c-0.5,1-0.7,2-0.7,3.1
	c0,1.1,0.2,2,0.7,2.7c0.3,0.5,0.6,0.8,1.1,1.1c0.4,0.3,1,0.4,1.6,0.4c0.6,0,1.3-0.2,2-0.7c0.9-0.5,1.6-1.1,1.9-1.7
	c0.3-0.6,0.5-1.1,0.5-1.4l2.6-1.5c0.1,0.5,0.1,1-0.1,1.7c-0.2,0.7-0.6,1.3-1.1,2c-0.5,0.7-1,1.1-1.5,1.4c-1,0.6-2.3,0.9-3.7,1
	c-1.4,0-2.7-0.2-3.9-0.7c-1.2-0.5-2-1.2-2.5-2.1c-0.3-0.5-0.4-1.3-0.4-2.3c0-1.1,0.2-2.1,0.7-3.1c0.5-1.1,1.2-1.9,2.3-2.5
	c0.7-0.4,1.3-0.6,1.9-0.7c0.6-0.1,1-0.1,1.3-0.1l-1.2-2l-8.7,5l-0.9-1.5l13.3-7.7L418,468.1z M395.1,485.3c-0.5-1.1-1.3-1.3-2.4-0.8
	c-0.6,0.3-1.2,0.7-1.6,1.3c-0.4,0.6-0.7,1.2-0.9,1.9c-0.1,0.7-0.1,1.3,0.1,1.7c0.1,0.3,0.5,0.6,0.9,0.9c0.5,0.3,1,0.3,1.6,0
	c0.4-0.2,0.8-0.5,1.3-1.1c0.5-0.6,0.8-1.2,1.1-1.9C395.5,486.6,395.4,486,395.1,485.3 M404.8,493.5c0.4,1,0.5,1.7,0.2,2.2
	c-0.3,0.5-0.8,1-1.5,1.3c-0.5,0.2-1,0.3-1.4,0.4c-0.4,0-1.1,0-2,0c-1,0-1.7,0-2.4,0.1c-0.6,0.1-1.2,0.2-1.9,0.5
	c-0.9,0.4-1.9,1.1-2.7,2c-0.9,0.9-1.6,2-2.1,3.2c-0.6,1.2-0.8,2.5-0.9,3.8c-0.1-0.1-0.2-0.3-0.3-0.6c-0.3-0.6-0.4-1.4-0.5-2.3
	c0-0.9,0.1-1.8,0.4-2.8c0.3-0.9,0.7-1.8,1.4-2.6c0.6-0.8,1.5-1.4,2.5-1.9c1-0.4,1.8-0.6,2.5-0.6c0.7,0,1.6,0.2,2.7,0.4
	c1.1,0.2,2,0.2,2.4,0c0.5-0.2,1-0.6,1.4-1.1c0.4-0.5,0.6-1,0.7-1.6c0.1-0.6,0.1-1-0.1-1.4c-0.2-0.4-0.5-0.8-0.8-1.1
	c-0.4-0.3-0.7-0.5-1.2-0.6c-0.4-0.1-0.9,0-1.3,0.2c-0.5,0.2-1,0.6-1.7,1.3c-0.7,0.7-1.3,1.3-2,2c-0.7,0.7-1.2,1.1-1.7,1.3
	c-0.4,0.2-1,0.2-1.7,0.1c-0.7-0.1-1.5-0.3-2.2-0.7c-0.7-0.3-1.1-0.7-1.3-1.2c-0.2-0.4-0.1-0.9,0.2-1.5c0.3-0.6,0.7-1.1,1.2-1.3
	l0-0.2c-0.4-0.2-0.8-0.5-1.1-0.6c-0.3-0.2-0.5-0.3-0.7-0.5c-0.2-0.2-0.4-0.5-0.5-0.8c-0.5-1.1-0.3-2.1,0.4-3
	c0.7-0.9,1.8-1.6,3.2-2.2c0.1,0,0.1-0.1,0.1-0.2c0-0.1,0-0.1,0-0.2l-0.6-1.4l-6.7,3l-0.7-1.6l13.4-6l0.7,1.6l-4.6,2l1,2.2
	c0.1,0.1,0.1,0.2,0.2,0.4c0.1,0.2,0.2,0.2,0.4,0.2c0.2-0.1,0.3-0.3,0.4-0.6c0.1-0.3,0.2-0.6,0.3-0.8c0.1-0.2,0.3-0.4,0.6-0.6
	c0.3-0.1,0.6-0.2,0.9-0.1c0.3,0,0.7,0.2,1.1,0.3c0.3,0.2,0.6,0.4,0.8,0.7l-0.7,2.2c-0.2-0.4-0.4-0.7-0.8-1c-0.4-0.3-0.7-0.4-1-0.3
	c-0.1,0-0.2,0.2-0.3,0.3c-0.1,0.2-0.2,0.3-0.1,0.5c0,0,0.1,0.1,0.3,0.2c0.2,0.1,0.3,0.3,0.5,0.5c0.2,0.2,0.3,0.4,0.4,0.7
	c0.5,1.2,0.5,2.1-0.2,2.8c-0.6,0.7-1.6,1.4-3,2c-1.3,0.6-2.2,1.3-2.7,2c-0.4,0.7-0.6,1.3-0.4,1.7c0.2,0.3,0.4,0.5,0.8,0.5
	c0.4,0,0.6,0,0.8-0.1c0.4-0.2,0.7-0.4,1-0.7c0.3-0.3,0.8-0.8,1.4-1.6c0.6-0.7,1.2-1.3,1.7-1.8c0.5-0.5,1.1-0.9,1.7-1.2
	c1-0.4,2-0.4,2.9,0.2c0.9,0.6,1.7,1.2,2.3,2.1C404.2,492.4,404.6,493.1,404.8,493.5"/>
</svg>
