<svg width="26" height="26" viewBox="0 0 26 26" fill="none" xmlns="http://www.w3.org/2000/svg">
<g clip-path="url(#clip0_153_263)">
<path d="M13.2894 2.95435C16.6338 2.95435 17.0299 2.96899 18.3452 3.02759C19.5676 3.0813 20.2277 3.28638 20.6678 3.45728C21.2496 3.68189 21.6701 3.95532 22.1053 4.38989C22.5454 4.82935 22.8143 5.24439 23.0392 5.82544C23.2104 6.26489 23.4157 6.92896 23.4695 8.14478C23.5282 9.46313 23.5429 9.85864 23.5429 13.1936C23.5429 16.5334 23.5282 16.929 23.4695 18.2424C23.4157 19.4631 23.2104 20.1223 23.0392 20.5618C22.8143 21.1428 22.5405 21.5627 22.1053 21.9973C21.6653 22.4368 21.2496 22.7053 20.6678 22.9299C20.2277 23.1008 19.5627 23.3059 18.3452 23.3596C17.025 23.4182 16.629 23.4329 13.2894 23.4329C9.94487 23.4329 9.54881 23.4182 8.23351 23.3596C7.01111 23.3059 6.35101 23.1008 5.91095 22.9299C5.32908 22.7053 4.90858 22.4319 4.4734 21.9973C4.03334 21.5579 3.76441 21.1428 3.53949 20.5618C3.36835 20.1223 3.16299 19.4583 3.1092 18.2424C3.05053 16.9241 3.03586 16.5286 3.03586 13.1936C3.03586 9.85376 3.05053 9.45825 3.1092 8.14478C3.16299 6.92407 3.36835 6.26489 3.53949 5.82544C3.76441 5.24439 4.03823 4.82446 4.4734 4.38989C4.91347 3.95044 5.32908 3.68189 5.91095 3.45728C6.35101 3.28638 7.016 3.0813 8.23351 3.02759C9.54881 2.96899 9.94487 2.95435 13.2894 2.95435ZM13.2894 0.703369C9.89108 0.703369 9.46569 0.718018 8.13083 0.776611C6.80085 0.835205 5.8865 1.05005 5.09438 1.35767C4.26804 1.67993 3.56883 2.10474 2.8745 2.80298C2.17529 3.49634 1.74989 4.19458 1.42718 5.01489C1.11913 5.81079 0.903992 6.71899 0.845317 8.04712C0.786641 9.38501 0.771973 9.80982 0.771973 13.2034C0.771973 16.5969 0.786641 17.0217 0.845317 18.3547C0.903992 19.6829 1.11913 20.5959 1.42718 21.387C1.74989 22.2122 2.17529 22.9104 2.8745 23.6038C3.56883 24.2971 4.26804 24.7268 5.08949 25.0442C5.8865 25.3518 6.79596 25.5667 8.12594 25.6252C9.4608 25.6838 9.88619 25.6985 13.2845 25.6985C16.6827 25.6985 17.1081 25.6838 18.443 25.6252C19.773 25.5667 20.6873 25.3518 21.4794 25.0442C22.3009 24.7268 23.0001 24.2971 23.6944 23.6038C24.3888 22.9104 24.819 22.2122 25.1369 21.3918C25.4449 20.596 25.6601 19.6877 25.7187 18.3596C25.7774 17.0266 25.7921 16.6018 25.7921 13.2083C25.7921 9.8147 25.7774 9.38989 25.7187 8.05689C25.6601 6.72876 25.4449 5.81567 25.1369 5.02466C24.8288 4.19458 24.4034 3.49634 23.7042 2.80298C23.0099 2.10962 22.3107 1.67993 21.4892 1.36255C20.6922 1.05493 19.7828 0.840088 18.4528 0.781494C17.113 0.718018 16.6876 0.703369 13.2894 0.703369Z" fill="#FFBC37"/>
<path d="M13.2894 6.78247C9.73953 6.78247 6.85956 9.65845 6.85956 13.2034C6.85956 16.7483 9.73953 19.6243 13.2894 19.6243C16.8392 19.6243 19.7192 16.7483 19.7192 13.2034C19.7192 9.65845 16.8392 6.78247 13.2894 6.78247ZM13.2894 17.3684C10.9864 17.3684 9.11855 15.5032 9.11855 13.2034C9.11855 10.9036 10.9864 9.03833 13.2894 9.03833C15.5924 9.03833 17.4602 10.9036 17.4602 13.2034C17.4602 15.5032 15.5924 17.3684 13.2894 17.3684Z" fill="#FFBC37"/>
<path d="M21.4746 6.52857C21.4746 7.35865 20.7998 8.02759 19.9735 8.02759C19.1422 8.02759 18.4724 7.35376 18.4724 6.52857C18.4724 5.69849 19.1471 5.02954 19.9735 5.02954C20.7998 5.02954 21.4746 5.70337 21.4746 6.52857Z" fill="#FFBC37"/>
</g>
<defs>
<clipPath id="clip0_153_263">
<rect width="25.0348" height="25" fill="white" transform="translate(0.771973 0.703369)"/>
</clipPath>
</defs>
</svg>
