<svg width="26" height="26" viewBox="0 0 26 26" fill="none" xmlns="http://www.w3.org/2000/svg">
<path d="M23.4973 0.703369H2.16394C1.14202 0.703369 0.315674 1.50903 0.315674 2.50513V23.8967C0.315674 24.8928 1.14202 25.7034 2.16394 25.7034H23.4973C24.5192 25.7034 25.3504 24.8928 25.3504 23.9016V2.50513C25.3504 1.50903 24.5192 0.703369 23.4973 0.703369ZM7.74298 22.0071H4.02688V10.0735H7.74298V22.0071ZM5.88493 8.44751C4.69187 8.44751 3.72862 7.4856 3.72862 6.29907C3.72862 5.11255 4.69187 4.15063 5.88493 4.15063C7.07311 4.15063 8.03636 5.11255 8.03636 6.29907C8.03636 7.48071 7.07311 8.44751 5.88493 8.44751ZM21.649 22.0071H17.9378V16.2063C17.9378 14.8245 17.9134 13.0422 16.0064 13.0422C14.075 13.0422 13.7816 14.551 13.7816 16.1086V22.0071H10.0753V10.0735H13.635V11.7043H13.6839C14.1777 10.7668 15.3903 9.77563 17.1946 9.77563C20.9547 9.77563 21.649 12.2463 21.649 15.4592V22.0071Z" fill="#FFBC37"/>
</svg>
