<svg width="26" height="26" viewBox="0 0 26 26" fill="none" xmlns="http://www.w3.org/2000/svg">
<path d="M0.13504 25.7034L1.89477 19.2836C0.808891 17.4044 0.238308 15.2742 0.239352 13.0898C0.242481 6.26066 5.80749 0.703369 12.6451 0.703369C15.9632 0.704411 19.078 1.99504 21.4208 4.3367C23.7626 6.67837 25.0519 9.79087 25.0508 13.1013C25.0477 19.9315 19.4827 25.4888 12.6451 25.4888C10.5693 25.4877 8.52376 24.968 6.71187 23.9805L0.13504 25.7034ZM7.01646 21.7377C8.76471 22.7742 10.4337 23.395 12.6409 23.3961C18.3238 23.3961 22.9531 18.7773 22.9563 13.0992C22.9584 7.40962 18.3509 2.79712 12.6493 2.79504C6.96222 2.79504 2.33601 7.41379 2.33392 13.0909C2.33288 15.4086 3.01299 17.144 4.1552 18.9596L3.11313 22.7596L7.01646 21.7377ZM18.8944 16.0461C18.8172 15.9169 18.6107 15.8398 18.2998 15.6846C17.99 15.5294 16.466 14.7805 16.1812 14.6773C15.8975 14.5742 15.691 14.5221 15.4834 14.8325C15.2769 15.1419 14.6823 15.8398 14.5018 16.0461C14.3214 16.2523 14.1399 16.2784 13.8301 16.1232C13.5203 15.968 12.521 15.6419 11.337 14.5867C10.416 13.7659 9.79322 12.7523 9.61277 12.4419C9.43231 12.1325 9.59399 11.9648 9.74837 11.8107C9.88815 11.6721 10.0582 11.4492 10.2136 11.268C10.3711 11.0888 10.4222 10.9596 10.5265 10.7523C10.6298 10.5461 10.5787 10.3648 10.5005 10.2096C10.4222 10.0555 9.80261 8.53149 9.54496 7.9117C9.29253 7.30858 9.03697 7.38983 8.84712 7.38045L8.25255 7.37004C8.04601 7.37004 7.71013 7.44712 7.4264 7.75754C7.14267 8.06795 6.34156 8.81587 6.34156 10.3398C6.34156 11.8638 7.45248 13.3357 7.60686 13.5419C7.76228 13.7482 9.79218 16.8752 12.9017 18.2159C13.6413 18.5346 14.2192 18.7252 14.6687 18.868C15.4114 19.1034 16.0874 19.07 16.6214 18.9909C17.2171 18.9023 18.4552 18.2419 18.7139 17.519C18.9726 16.795 18.9726 16.1752 18.8944 16.0461Z" fill="#5b3524"/>
</svg>
