<svg width="26" height="26" viewBox="0 0 26 26" fill="none" xmlns="http://www.w3.org/2000/svg">
<g clip-path="url(#clip0_153_262)">
<path d="M25.7395 8.20337C25.7395 8.20337 25.495 6.47974 24.742 5.7229C23.7886 4.72681 22.7226 4.72192 22.2337 4.66333C18.7327 4.40942 13.4764 4.40942 13.4764 4.40942H13.4666C13.4666 4.40942 8.21027 4.40942 4.70932 4.66333C4.22036 4.72192 3.15442 4.72681 2.20095 5.7229C1.44795 6.47974 1.20836 8.20337 1.20836 8.20337C1.20836 8.20337 0.954102 10.2297 0.954102 12.2512V14.1458C0.954102 16.1672 1.20347 18.1936 1.20347 18.1936C1.20347 18.1936 1.44795 19.9172 2.19606 20.6741C3.14953 21.6702 4.40127 21.636 4.95869 21.7434C6.96343 21.9338 13.4715 21.9924 13.4715 21.9924C13.4715 21.9924 18.7327 21.9827 22.2337 21.7336C22.7226 21.675 23.7886 21.6702 24.742 20.6741C25.495 19.9172 25.7395 18.1936 25.7395 18.1936C25.7395 18.1936 25.9889 16.1721 25.9889 14.1458V12.2512C25.9889 10.2297 25.7395 8.20337 25.7395 8.20337ZM10.8849 16.4456V9.41919L17.6472 12.9446L10.8849 16.4456Z" fill="#FFBC37"/>
</g>
<defs>
<clipPath id="clip0_153_262">
<rect width="25.0348" height="25" fill="white" transform="translate(0.954102 0.703369)"/>
</clipPath>
</defs>
</svg>
