<svg width="36" height="36" viewBox="0 0 36 36" fill="none" xmlns="http://www.w3.org/2000/svg">
<g clip-path="url(#clip0_41_255)">
<path d="M17.9633 0C8.04252 0 0 8.03135 0 17.9383C0 26.3507 5.79999 33.4098 13.6241 35.3486V23.4203H9.92005V17.9383H13.6241V15.5762C13.6241 9.47073 16.3911 6.64077 22.3938 6.64077C23.5319 6.64077 25.4957 6.86393 26.299 7.08636V12.0553C25.875 12.0108 25.1385 11.9886 24.2239 11.9886C21.2786 11.9886 20.1404 13.1029 20.1404 15.9996V17.9383H26.008L24.9999 23.4203H20.1404V35.7454C29.0351 34.6727 35.9273 27.1099 35.9273 17.9383C35.9266 8.03135 27.8841 0 17.9633 0Z" fill="#5B3524"/>
</g>
<defs>
<clipPath id="clip0_41_255">
<rect width="35.9266" height="35.8767" fill="white"/>
</clipPath>
</defs>
</svg>
