<svg width="23" height="23" viewBox="0 0 23 23" fill="none" xmlns="http://www.w3.org/2000/svg">
<g clip-path="url(#clip0_945_138)">
<path d="M11.5045 0C5.15081 0 0 5.14366 0 11.4886C0 16.8762 3.71458 21.3972 8.7255 22.6389V14.9995H6.35326V11.4886H8.7255V9.97574C8.7255 6.0655 10.4977 4.25306 14.342 4.25306C15.0709 4.25306 16.3286 4.39598 16.8431 4.53844V7.72077C16.5716 7.69228 16.0999 7.67803 15.5141 7.67803C13.6278 7.67803 12.8989 8.3917 12.8989 10.2469V11.4886H16.6567L16.0111 14.9995H12.8989V22.893C18.5955 22.206 23.0095 17.3624 23.0095 11.4886C23.0091 5.14366 17.8583 0 11.5045 0Z" fill="white"/>
</g>
<defs>
<clipPath id="clip0_945_138">
<rect width="23.0091" height="22.9771" fill="white"/>
</clipPath>
</defs>
</svg>
