<svg width="62" height="62" viewBox="0 0 62 62" fill="none" xmlns="http://www.w3.org/2000/svg">
<circle cx="31" cy="31" r="30.5" stroke="#5B3524"/>
<rect x="12.5" y="13.5" width="36" height="36" stroke="#5B3524"/>
<path d="M13.1562 17.3359V37.9316C13.1562 38.5303 13.6416 39.0156 14.2402 39.0156H38.0879C38.6865 39.0156 39.1719 38.5303 39.1719 37.9316V16.252C39.1719 15.0272 39.5957 13.9087 40.2835 13H17.4922C15.0975 13 13.1562 14.9412 13.1562 17.3359ZM17.4922 35.7637C16.8935 35.7637 16.4082 35.2783 16.4082 34.6797C16.4082 34.0809 16.8935 33.5957 17.4922 33.5957C18.0908 33.5957 18.5762 34.0809 18.5762 34.6797C18.5762 35.2783 18.0908 35.7637 17.4922 35.7637ZM17.4922 31.4277C16.8935 31.4277 16.4082 30.9424 16.4082 30.3438C16.4082 29.745 16.8935 29.2598 17.4922 29.2598C18.0908 29.2598 18.5762 29.745 18.5762 30.3438C18.5762 30.9424 18.0908 31.4277 17.4922 31.4277ZM17.4922 27.0918C16.8935 27.0918 16.4082 26.6065 16.4082 26.0078C16.4082 25.409 16.8935 24.9238 17.4922 24.9238C18.0908 24.9238 18.5762 25.409 18.5762 26.0078C18.5762 26.6065 18.0908 27.0918 17.4922 27.0918ZM17.4922 22.7559C16.8935 22.7559 16.4082 22.2705 16.4082 21.6719C16.4082 21.0731 16.8935 20.5879 17.4922 20.5879C18.0908 20.5879 18.5762 21.0731 18.5762 21.6719C18.5762 22.2705 18.0908 22.7559 17.4922 22.7559ZM34.8359 16.252C35.4346 16.252 35.9199 16.7371 35.9199 17.3359C35.9199 17.9346 35.4346 18.4199 34.8359 18.4199C34.2373 18.4199 33.752 17.9346 33.752 17.3359C33.752 16.7371 34.2373 16.252 34.8359 16.252ZM34.8359 20.5879C35.4346 20.5879 35.9199 21.0731 35.9199 21.6719C35.9199 22.2705 35.4346 22.7559 34.8359 22.7559C34.2373 22.7559 33.752 22.2705 33.752 21.6719C33.752 21.0731 34.2373 20.5879 34.8359 20.5879ZM34.8359 24.9238C35.4346 24.9238 35.9199 25.409 35.9199 26.0078C35.9199 26.6065 35.4346 27.0918 34.8359 27.0918C34.2373 27.0918 33.752 26.6065 33.752 26.0078C33.752 25.409 34.2373 24.9238 34.8359 24.9238ZM34.8359 29.2598C35.4346 29.2598 35.9199 29.745 35.9199 30.3438C35.9199 30.9424 35.4346 31.4277 34.8359 31.4277C34.2373 31.4277 33.752 30.9424 33.752 30.3438C33.752 29.745 34.2373 29.2598 34.8359 29.2598ZM34.8359 33.5957C35.4346 33.5957 35.9199 34.0809 35.9199 34.6797C35.9199 35.2783 35.4346 35.7637 34.8359 35.7637C34.2373 35.7637 33.752 35.2783 33.752 34.6797C33.752 34.0809 34.2373 33.5957 34.8359 33.5957ZM30.5 16.252C31.0986 16.252 31.584 16.7371 31.584 17.3359C31.584 17.9346 31.0986 18.4199 30.5 18.4199C29.9014 18.4199 29.416 17.9346 29.416 17.3359C29.416 16.7371 29.9014 16.252 30.5 16.252ZM30.5 20.5879C31.0986 20.5879 31.584 21.0731 31.584 21.6719C31.584 22.2705 31.0986 22.7559 30.5 22.7559C29.9014 22.7559 29.416 22.2705 29.416 21.6719C29.416 21.0731 29.9014 20.5879 30.5 20.5879ZM30.5 24.9238C31.0986 24.9238 31.584 25.409 31.584 26.0078C31.584 26.6065 31.0986 27.0918 30.5 27.0918C29.9014 27.0918 29.416 26.6065 29.416 26.0078C29.416 25.409 29.9014 24.9238 30.5 24.9238ZM30.5 29.2598C31.0986 29.2598 31.584 29.745 31.584 30.3438C31.584 30.9424 31.0986 31.4277 30.5 31.4277C29.9014 31.4277 29.416 30.9424 29.416 30.3438C29.416 29.745 29.9014 29.2598 30.5 29.2598ZM30.5 33.5957C31.0986 33.5957 31.584 34.0809 31.584 34.6797C31.584 35.2783 31.0986 35.7637 30.5 35.7637C29.9014 35.7637 29.416 35.2783 29.416 34.6797C29.416 34.0809 29.9014 33.5957 30.5 33.5957ZM26.1641 16.252C26.7627 16.252 27.248 16.7371 27.248 17.3359C27.248 17.9346 26.7627 18.4199 26.1641 18.4199C25.5654 18.4199 25.0801 17.9346 25.0801 17.3359C25.0801 16.7371 25.5654 16.252 26.1641 16.252ZM26.1641 20.5879C26.7627 20.5879 27.248 21.0731 27.248 21.6719C27.248 22.2705 26.7627 22.7559 26.1641 22.7559C25.5654 22.7559 25.0801 22.2705 25.0801 21.6719C25.0801 21.0731 25.5654 20.5879 26.1641 20.5879ZM26.1641 24.9238C26.7627 24.9238 27.248 25.409 27.248 26.0078C27.248 26.6065 26.7627 27.0918 26.1641 27.0918C25.5654 27.0918 25.0801 26.6065 25.0801 26.0078C25.0801 25.409 25.5654 24.9238 26.1641 24.9238ZM26.1641 29.2598C26.7627 29.2598 27.248 29.745 27.248 30.3438C27.248 30.9424 26.7627 31.4277 26.1641 31.4277C25.5654 31.4277 25.0801 30.9424 25.0801 30.3438C25.0801 29.745 25.5654 29.2598 26.1641 29.2598ZM26.1641 33.5957C26.7627 33.5957 27.248 34.0809 27.248 34.6797C27.248 35.2783 26.7627 35.7637 26.1641 35.7637C25.5654 35.7637 25.0801 35.2783 25.0801 34.6797C25.0801 34.0809 25.5654 33.5957 26.1641 33.5957ZM21.8281 16.252C22.4268 16.252 22.9121 16.7371 22.9121 17.3359C22.9121 17.9346 22.4268 18.4199 21.8281 18.4199C21.2295 18.4199 20.7441 17.9346 20.7441 17.3359C20.7441 16.7371 21.2295 16.252 21.8281 16.252ZM21.8281 20.5879C22.4268 20.5879 22.9121 21.0731 22.9121 21.6719C22.9121 22.2705 22.4268 22.7559 21.8281 22.7559C21.2295 22.7559 20.7441 22.2705 20.7441 21.6719C20.7441 21.0731 21.2295 20.5879 21.8281 20.5879ZM21.8281 24.9238C22.4268 24.9238 22.9121 25.409 22.9121 26.0078C22.9121 26.6065 22.4268 27.0918 21.8281 27.0918C21.2295 27.0918 20.7441 26.6065 20.7441 26.0078C20.7441 25.409 21.2295 24.9238 21.8281 24.9238ZM21.8281 29.2598C22.4268 29.2598 22.9121 29.745 22.9121 30.3438C22.9121 30.9424 22.4268 31.4277 21.8281 31.4277C21.2295 31.4277 20.7441 30.9424 20.7441 30.3438C20.7441 29.745 21.2295 29.2598 21.8281 29.2598ZM21.8281 33.5957C22.4268 33.5957 22.9121 34.0809 22.9121 34.6797C22.9121 35.2783 22.4268 35.7637 21.8281 35.7637C21.2295 35.7637 20.7441 35.2783 20.7441 34.6797C20.7441 34.0809 21.2295 33.5957 21.8281 33.5957ZM18.5762 17.3359C18.5762 17.9346 18.0908 18.4199 17.4922 18.4199C16.8935 18.4199 16.4082 17.9346 16.4082 17.3359C16.4082 16.7371 16.8935 16.252 17.4922 16.252C18.0908 16.252 18.5762 16.7371 18.5762 17.3359Z" fill="#5B3524"/>
<path d="M47.8438 48.916V16.252C47.8438 14.4525 46.3913 13 44.5918 13C42.6239 13 41.3398 14.6867 41.3398 16.252V37.9316C41.3398 39.731 39.8874 41.1836 38.0879 41.1836H19.6602V48.916C19.6602 49.523 20.137 50 20.7441 50H46.7598C47.3669 50 47.8438 49.523 47.8438 48.916Z" fill="#5B3524"/>
</svg>
