<svg width="41" height="31" viewBox="0 0 41 31" fill="none" xmlns="http://www.w3.org/2000/svg">
<path d="M30.6306 5.75553C30.4955 5.22277 30.016 4.84961 29.4663 4.84961H26.09V4.44922C26.09 2.02069 24.1142 0.0449219 21.6857 0.0449219H19.3139C16.8854 0.0449219 14.9096 2.02069 14.9096 4.44922V4.84961H11.5305C10.9811 4.84961 10.5019 5.22221 10.3664 5.75457C9.83571 7.84037 6.76527 19.9222 6.40332 21.3457H34.5963C34.2424 19.9539 31.0952 7.58788 30.6306 5.75553ZM23.6876 4.84961H17.312V4.44922C17.312 3.34534 18.21 2.44727 19.3139 2.44727H21.6857C22.7895 2.44727 23.6876 3.34534 23.6876 4.44922V4.84961Z" fill="#5B3524"/>
<path d="M23.8207 23.748L19.6597 30.9551H27.4683L31.6293 23.748H23.8207Z" fill="#5B3524"/>
<path d="M13.2625 23.748L9.10156 30.9551H16.8856L21.0466 23.748H13.2625Z" fill="#5B3524"/>
<path d="M1.20117 23.748C0.537805 23.748 0 24.2859 0 24.9492V29.7539C0 30.4173 0.537805 30.9551 1.20117 30.9551H6.32769L10.4886 23.748H1.20117Z" fill="#5B3524"/>
<path d="M39.7987 23.748H34.4032L30.2422 30.9551H39.7987C40.4621 30.9551 40.9999 30.4173 40.9999 29.7539V24.9492C40.9999 24.2858 40.4621 23.748 39.7987 23.748Z" fill="#5B3524"/>
</svg>
