<svg width="23" height="23" viewBox="0 0 23 23" fill="none" xmlns="http://www.w3.org/2000/svg">
<g clip-path="url(#clip0_945_136)">
<path d="M11.5045 2.06884C14.5784 2.06884 14.9424 2.0823 16.1513 2.13615C17.2748 2.18552 17.8815 2.374 18.2859 2.53107C18.8207 2.73751 19.2072 2.98882 19.6071 3.38823C20.0116 3.79212 20.2588 4.17358 20.4655 4.70761C20.6228 5.11151 20.8115 5.72184 20.861 6.83928C20.9149 8.05096 20.9284 8.41447 20.9284 11.4796C20.9284 14.5492 20.9149 14.9127 20.861 16.1199C20.8115 17.2418 20.6228 17.8477 20.4655 18.2515C20.2588 18.7856 20.0071 19.1715 19.6071 19.5709C19.2027 19.9748 18.8207 20.2217 18.2859 20.4281C17.8815 20.5852 17.2703 20.7736 16.1513 20.823C14.9379 20.8769 14.5739 20.8903 11.5045 20.8903C8.43067 20.8903 8.06666 20.8769 6.85778 20.823C5.73429 20.7736 5.12761 20.5852 4.72315 20.4281C4.18837 20.2217 3.80189 19.9703 3.40193 19.5709C2.99747 19.167 2.7503 18.7856 2.54358 18.2515C2.38629 17.8477 2.19755 17.2373 2.14811 16.1199C2.09418 14.9082 2.0807 14.5447 2.0807 11.4796C2.0807 8.40998 2.09418 8.04648 2.14811 6.83928C2.19755 5.71735 2.38629 5.11151 2.54358 4.70761C2.7503 4.17358 3.00196 3.78763 3.40193 3.38823C3.80638 2.98433 4.18837 2.73751 4.72315 2.53107C5.12761 2.374 5.73878 2.18552 6.85778 2.13615C8.06666 2.0823 8.43067 2.06884 11.5045 2.06884ZM11.5045 0C8.38123 0 7.99026 0.0134631 6.76341 0.0673157C5.54105 0.121168 4.70068 0.318628 3.97266 0.601354C3.21318 0.897543 2.57054 1.28797 1.9324 1.92972C1.28977 2.56697 0.898792 3.20872 0.60219 3.96265C0.319071 4.69415 0.121337 5.52887 0.0674094 6.74953C0.0134819 7.97916 0 8.36959 0 11.4886C0 14.6075 0.0134819 14.9979 0.0674094 16.2231C0.121337 17.4438 0.319071 18.283 0.60219 19.01C0.898792 19.7684 1.28977 20.4101 1.9324 21.0474C2.57054 21.6846 3.21318 22.0796 3.96817 22.3713C4.70068 22.654 5.53656 22.8515 6.75891 22.9053C7.98576 22.9592 8.37674 22.9726 11.5 22.9726C14.6233 22.9726 15.0143 22.9592 16.2412 22.9053C17.4635 22.8515 18.3039 22.654 19.0319 22.3713C19.7869 22.0796 20.4295 21.6846 21.0677 21.0474C21.7058 20.4101 22.1013 19.7684 22.3934 19.0145C22.6765 18.283 22.8742 17.4482 22.9282 16.2276C22.9821 15.0024 22.9956 14.612 22.9956 11.493C22.9956 8.37408 22.9821 7.98365 22.9282 6.7585C22.8742 5.53784 22.6765 4.69864 22.3934 3.97163C22.1103 3.20872 21.7193 2.56697 21.0767 1.92972C20.4385 1.29246 19.7959 0.897543 19.0409 0.605842C18.3084 0.323116 17.4725 0.125656 16.2502 0.0718035C15.0188 0.0134632 14.6278 0 11.5045 0Z" fill="white"/>
<path d="M11.5048 5.58716C8.24216 5.58716 5.59521 8.23042 5.59521 11.4885C5.59521 14.7466 8.24216 17.3899 11.5048 17.3899C14.7674 17.3899 17.4143 14.7466 17.4143 11.4885C17.4143 8.23042 14.7674 5.58716 11.5048 5.58716ZM11.5048 15.3165C9.38812 15.3165 7.67142 13.6022 7.67142 11.4885C7.67142 9.37479 9.38812 7.66048 11.5048 7.66048C13.6214 7.66048 15.3381 9.37479 15.3381 11.4885C15.3381 13.6022 13.6214 15.3165 11.5048 15.3165Z" fill="white"/>
<path d="M19.0274 5.3538C19.0274 6.11672 18.4072 6.73154 17.6477 6.73154C16.8837 6.73154 16.2681 6.11223 16.2681 5.3538C16.2681 4.59089 16.8882 3.97607 17.6477 3.97607C18.4072 3.97607 19.0274 4.59538 19.0274 5.3538Z" fill="white"/>
</g>
<defs>
<clipPath id="clip0_945_136">
<rect width="23.0091" height="22.9771" fill="white"/>
</clipPath>
</defs>
</svg>
