<svg width="37" height="36" viewBox="0 0 37 36" fill="none" xmlns="http://www.w3.org/2000/svg">
<g clip-path="url(#clip0_41_258)">
<path d="M18.8341 3.2303C23.6337 3.2303 24.2021 3.25132 26.0896 3.33541C27.8439 3.41249 28.7911 3.70679 29.4227 3.95204C30.2577 4.27437 30.8611 4.66677 31.4856 5.29041C32.1171 5.92105 32.5031 6.51666 32.8259 7.35051C33.0714 7.98116 33.3662 8.93413 33.4433 10.6789C33.5275 12.5709 33.5486 13.1384 33.5486 17.9243C33.5486 22.7172 33.5275 23.2848 33.4433 25.1697C33.3662 26.9215 33.0714 27.8675 32.8259 28.4981C32.5031 29.332 32.1101 29.9346 31.4856 30.5582C30.8541 31.1889 30.2577 31.5743 29.4227 31.8966C28.7911 32.1419 27.8368 32.4362 26.0896 32.5132C24.1951 32.5973 23.6267 32.6183 18.8341 32.6183C14.0346 32.6183 13.4662 32.5973 11.5787 32.5132C9.82443 32.4362 8.87714 32.1419 8.24562 31.8966C7.41061 31.5743 6.80716 31.1819 6.18265 30.5582C5.55113 29.9276 5.1652 29.332 4.84242 28.4981C4.59683 27.8675 4.30212 26.9145 4.22493 25.1697C4.14073 23.2778 4.11968 22.7102 4.11968 17.9243C4.11968 13.1314 4.14073 12.5638 4.22493 10.6789C4.30212 8.92713 4.59683 7.98116 4.84242 7.35051C5.1652 6.51666 5.55815 5.91405 6.18265 5.29041C6.81417 4.65976 7.41061 4.27437 8.24562 3.95204C8.87714 3.70679 9.83144 3.41249 11.5787 3.33541C13.4662 3.25132 14.0346 3.2303 18.8341 3.2303ZM18.8341 0C13.9574 0 13.3469 0.0210215 11.4313 0.105107C9.5227 0.189193 8.21054 0.497509 7.0738 0.93896C5.88794 1.40143 4.88452 2.01106 3.88812 3.01308C2.8847 4.0081 2.27423 5.01012 1.81112 6.18733C1.36905 7.32949 1.06031 8.63282 0.976103 10.5388C0.8919 12.4587 0.87085 13.0684 0.87085 17.9383C0.87085 22.8083 0.8919 23.4179 0.976103 25.3309C1.06031 27.2368 1.36905 28.5472 1.81112 29.6823C2.27423 30.8666 2.8847 31.8686 3.88812 32.8636C4.88452 33.8586 5.88794 34.4752 7.06678 34.9307C8.21054 35.3722 9.51568 35.6805 11.4243 35.7646C13.3399 35.8486 13.9504 35.8697 18.8271 35.8697C23.7039 35.8697 24.3143 35.8486 26.23 35.7646C28.1386 35.6805 29.4507 35.3722 30.5875 34.9307C31.7663 34.4752 32.7697 33.8586 33.7661 32.8636C34.7625 31.8686 35.38 30.8666 35.8361 29.6894C36.2782 28.5472 36.5869 27.2439 36.6711 25.3379C36.7553 23.4249 36.7764 22.8153 36.7764 17.9453C36.7764 13.0754 36.7553 12.4657 36.6711 10.5528C36.5869 8.64684 36.2782 7.3365 35.8361 6.20134C35.394 5.01012 34.7836 4.0081 33.7802 3.01308C32.7838 2.01806 31.7803 1.40143 30.6015 0.945967C29.4577 0.504516 28.1526 0.196201 26.244 0.112115C24.3214 0.0210215 23.7109 0 18.8341 0Z" fill="#5B3524"/>
<path d="M18.8341 8.72412C13.7399 8.72412 9.6069 12.8513 9.6069 17.9385C9.6069 23.0257 13.7399 27.153 18.8341 27.153C23.9284 27.153 28.0614 23.0257 28.0614 17.9385C28.0614 12.8513 23.9284 8.72412 18.8341 8.72412ZM18.8341 23.9157C15.5292 23.9157 12.8487 21.2389 12.8487 17.9385C12.8487 14.6382 15.5292 11.9614 18.8341 11.9614C22.1391 11.9614 24.8196 14.6382 24.8196 17.9385C24.8196 21.2389 22.1391 23.9157 18.8341 23.9157Z" fill="#5B3524"/>
<path d="M30.5804 8.3597C30.5804 9.55092 29.6121 10.5109 28.4263 10.5109C27.2334 10.5109 26.2721 9.54391 26.2721 8.3597C26.2721 7.16848 27.2404 6.2085 28.4263 6.2085C29.6121 6.2085 30.5804 7.17549 30.5804 8.3597Z" fill="#5B3524"/>
</g>
<defs>
<clipPath id="clip0_41_258">
<rect width="35.9266" height="35.8767" fill="white" transform="translate(0.87085)"/>
</clipPath>
</defs>
</svg>
