<svg width="23" height="23" viewBox="0 0 23 23" fill="none" xmlns="http://www.w3.org/2000/svg">
<path d="M21.3059 0H1.69872C0.759479 0 0 0.740473 0 1.65597V21.3167C0 22.2321 0.759479 22.9771 1.69872 22.9771H21.3059C22.2451 22.9771 23.0091 22.2321 23.0091 21.3211V1.65597C23.0091 0.740473 22.2451 0 21.3059 0ZM6.82632 19.5799H3.41091V8.61193H6.82632V19.5799ZM5.11862 7.11752C4.02209 7.11752 3.13678 6.23344 3.13678 5.14292C3.13678 4.05241 4.02209 3.16833 5.11862 3.16833C6.21065 3.16833 7.09596 4.05241 7.09596 5.14292C7.09596 6.22895 6.21065 7.11752 5.11862 7.11752ZM19.6071 19.5799H16.1962V14.2485C16.1962 12.9785 16.1738 11.3405 14.4211 11.3405C12.646 11.3405 12.3764 12.7272 12.3764 14.1587V19.5799H8.96994V8.61193H12.2415V10.1108H12.2865C12.7404 9.24918 13.8549 8.33818 15.5131 8.33818C18.969 8.33818 19.6071 10.609 19.6071 13.5619V19.5799Z" fill="white"/>
</svg>
