<svg width="37" height="36" viewBox="0 0 37 36" fill="none" xmlns="http://www.w3.org/2000/svg">
<path d="M33.8797 0H3.26494C1.79841 0 0.612549 1.15618 0.612549 2.58564V33.284C0.612549 34.7135 1.79841 35.8767 3.26494 35.8767H33.8797C35.3463 35.8767 36.5391 34.7135 36.5391 33.291V2.58564C36.5391 1.15618 35.3463 0 33.8797 0ZM11.2712 30.5723H5.93838V13.4467H11.2712V30.5723ZM8.60481 11.1134C6.89268 11.1134 5.51035 9.73295 5.51035 8.03021C5.51035 6.32747 6.89268 4.94706 8.60481 4.94706C10.3099 4.94706 11.6922 6.32747 11.6922 8.03021C11.6922 9.72594 10.3099 11.1134 8.60481 11.1134ZM31.2273 30.5723H25.9015V22.2477C25.9015 20.2647 25.8664 17.7071 23.1298 17.7071C20.3581 17.7071 19.9371 19.8723 19.9371 22.1076V30.5723H14.6183V13.4467H19.7266V15.7871H19.7968C20.5055 14.4418 22.2457 13.0193 24.8349 13.0193C30.2309 13.0193 31.2273 16.5649 31.2273 21.1756V30.5723Z" fill="#5B3524"/>
</svg>
