<svg width="27" height="21" viewBox="0 0 27 21" fill="none" xmlns="http://www.w3.org/2000/svg">
<path d="M21.375 7.90351V2.25002C21.375 1.00913 20.3659 0 19.125 0H2.24996C1.00907 0 0 1.00907 0 2.25002V13.5C0 14.7409 1.00907 15.75 2.25002 15.75H14.8649C15.6019 18.3431 17.9863 20.25 20.8125 20.25C21.9002 20.25 22.9697 19.9638 23.9068 19.4216C24.1754 19.2662 24.2677 18.9223 24.1117 18.6532C23.9562 18.384 23.6118 18.2911 23.3432 18.4483C22.5774 18.891 21.7024 19.125 20.8125 19.125C18.0208 19.125 15.75 16.8541 15.75 14.0625C15.75 11.2709 18.0209 9.00002 20.8125 9.00002C23.6041 9.00002 25.875 11.2709 25.875 14.0625V14.625C25.875 15.2452 25.3701 15.75 24.75 15.75C24.1298 15.75 23.625 15.2452 23.625 14.625V12.375C23.625 12.0641 23.3734 11.8125 23.0625 11.8125C22.9112 11.8125 22.7752 11.8737 22.6743 11.9707C22.1771 11.5277 21.5292 11.25 20.8125 11.25C19.2618 11.25 18 12.5118 18 14.0625C18 15.6132 19.2618 16.875 20.8125 16.875C21.6508 16.875 22.3961 16.499 22.9119 15.9151C23.3194 16.494 23.9898 16.875 24.75 16.875C25.9909 16.875 27 15.8659 27 14.625V14.0625C27 10.8406 24.5238 8.18902 21.375 7.90351ZM2.25002 1.12498H19.125C19.1484 1.12498 19.168 1.13695 19.1911 1.13838L11.1501 7.73877C10.8639 7.91896 10.4491 7.88157 10.2629 7.76735L2.18457 1.13827C2.20741 1.1369 2.22681 1.12498 2.25002 1.12498ZM20.25 7.90351C17.1012 8.18902 14.625 10.8406 14.625 14.0625C14.625 14.2524 14.6366 14.4395 14.6535 14.625H2.25002C1.62986 14.625 1.12504 14.1202 1.12504 13.5001V2.25002C1.12504 2.09071 1.16021 1.94026 1.22022 1.80283L9.59882 8.67375C9.92619 8.88743 10.3025 9.00007 10.6876 9.00007C11.0578 9.00007 11.4198 8.89571 11.7384 8.69796C11.7703 8.68092 11.8005 8.66062 11.8291 8.63699L20.1548 1.80272C20.2148 1.94026 20.2501 2.09071 20.2501 2.25007L20.25 7.90351ZM20.8125 15.75C19.882 15.75 19.125 14.9931 19.125 14.0625C19.125 13.132 19.882 12.375 20.8125 12.375C21.7431 12.375 22.5 13.132 22.5 14.0625C22.5 14.9931 21.7431 15.75 20.8125 15.75Z" fill="#5B3524"/>
</svg>
