<svg width="34" height="48" viewBox="0 0 34 48" fill="none" xmlns="http://www.w3.org/2000/svg">
<path d="M20.5789 0H13.4211C9.86284 0.00411692 6.45155 1.4102 3.93551 3.90979C1.41947 6.40938 0.004144 9.79838 0 13.3333V34.6667C0.004144 38.2016 1.41947 41.5906 3.93551 44.0902C6.45155 46.5898 9.86284 47.9959 13.4211 48H20.5789C24.1372 47.9959 27.5484 46.5898 30.0645 44.0902C32.5805 41.5906 33.9959 38.2016 34 34.6667V13.3333C33.9959 9.79838 32.5805 6.40938 30.0645 3.90979C27.5484 1.4102 24.1372 0.00411692 20.5789 0ZM32.2105 34.6667C32.207 37.7303 30.9804 40.6675 28.7998 42.8338C26.6192 45.0001 23.6627 46.2187 20.5789 46.2222H13.4211C10.3373 46.2187 7.38078 45.0001 5.20021 42.8338C3.01963 40.6675 1.79303 37.7303 1.78947 34.6667V13.3333C1.79303 10.2697 3.01963 7.33254 5.20021 5.16622C7.38078 2.9999 10.3373 1.78131 13.4211 1.77778H20.5789C23.6627 1.78131 26.6192 2.9999 28.7998 5.16622C30.9804 7.33254 32.207 10.2697 32.2105 13.3333V34.6667ZM17.8947 11.9244V36.0756L21.7354 32.26C21.9033 32.0932 22.131 31.9995 22.3684 31.9995C22.6059 31.9995 22.8336 32.0932 23.0014 32.26C23.1693 32.4268 23.2637 32.653 23.2637 32.8889C23.2637 33.1248 23.1693 33.351 23.0014 33.5178L17.633 38.8511C17.5499 38.9338 17.4513 38.9993 17.3426 39.0441C17.234 39.0888 17.1176 39.1118 17 39.1118C16.8824 39.1118 16.766 39.0888 16.6574 39.0441C16.5487 38.9993 16.4501 38.9338 16.367 38.8511L10.9986 33.5178C10.8307 33.351 10.7363 33.1248 10.7363 32.8889C10.7363 32.653 10.8307 32.4268 10.9986 32.26C11.1664 32.0932 11.3941 31.9995 11.6316 31.9995C11.869 31.9995 12.0967 32.0932 12.2646 32.26L16.1053 36.0756V11.9244L12.2646 15.74C12.0967 15.9068 11.869 16.0005 11.6316 16.0005C11.3941 16.0005 11.1664 15.9068 10.9986 15.74C10.8307 15.5732 10.7363 15.347 10.7363 15.1111C10.7363 14.8752 10.8307 14.649 10.9986 14.4822L16.367 9.14889C16.4501 9.06624 16.5487 9.00068 16.6574 8.95595C16.766 8.91121 16.8824 8.88819 17 8.88819C17.1176 8.88819 17.234 8.91121 17.3426 8.95595C17.4513 9.00068 17.5499 9.06624 17.633 9.14889L23.0014 14.4822C23.1693 14.649 23.2637 14.8752 23.2637 15.1111C23.2637 15.347 23.1693 15.5732 23.0014 15.74C22.8336 15.9068 22.6059 16.0005 22.3684 16.0005C22.131 16.0005 21.9033 15.9068 21.7354 15.74L17.8947 11.9244Z" fill="#5B3524"/>
</svg>
