<svg width="23" height="23" viewBox="0 0 23 23" fill="none" xmlns="http://www.w3.org/2000/svg">
<path d="M0 22.9771L1.61734 17.0768C0.619326 15.3497 0.0949122 13.3918 0.0958709 11.3842C0.098747 5.10762 5.21346 0 11.4978 0C14.5474 0.00095738 17.4102 1.18715 19.5634 3.33934C21.7157 5.49153 22.9007 8.35218 22.8997 11.3947C22.8968 17.6723 17.7821 22.7799 11.4978 22.7799C9.58997 22.7789 7.70994 22.3012 6.04466 21.3936L0 22.9771ZM6.3246 19.3324C7.9314 20.285 9.46533 20.8556 11.494 20.8565C16.717 20.8565 20.9718 16.6115 20.9746 11.3928C20.9766 6.16361 16.7419 1.92433 11.5016 1.92242C6.27475 1.92242 2.02288 6.16744 2.02096 11.3852C2.02 13.5153 2.64508 15.1103 3.69486 16.779L2.73711 20.2716L6.3246 19.3324ZM17.2414 14.1012C17.1705 13.9825 16.9807 13.9117 16.695 13.769C16.4102 13.6264 15.0095 12.938 14.7478 12.8432C14.4871 12.7485 14.2972 12.7006 14.1064 12.9859C13.9166 13.2702 13.3702 13.9117 13.2043 14.1012C13.0384 14.2908 12.8716 14.3147 12.5869 14.1721C12.3022 14.0294 11.3837 13.7298 10.2956 12.76C9.44903 12.0055 8.87669 11.074 8.71083 10.7887C8.54497 10.5044 8.69357 10.3502 8.83546 10.2085C8.96393 10.0812 9.1202 9.87633 9.26305 9.70974C9.40781 9.54507 9.45479 9.42636 9.55066 9.23584C9.64557 9.04628 9.59859 8.8797 9.52669 8.73705C9.45479 8.59535 8.88531 7.19471 8.64851 6.62507C8.41651 6.07074 8.18162 6.14542 8.00714 6.1368L7.46067 6.12723C7.27085 6.12723 6.96214 6.19807 6.70138 6.48337C6.44061 6.76867 5.70432 7.45607 5.70432 8.85672C5.70432 10.2574 6.72534 11.6101 6.86723 11.7997C7.01008 11.9893 8.87573 14.8633 11.7336 16.0955C12.4134 16.3884 12.9445 16.5636 13.3577 16.6948C14.0403 16.9112 14.6615 16.8805 15.1524 16.8078C15.6998 16.7264 16.8378 16.1194 17.0756 15.455C17.3133 14.7896 17.3133 14.22 17.2414 14.1012Z" fill="white"/>
</svg>
