<svg width="37" height="36" viewBox="0 0 37 36" fill="none" xmlns="http://www.w3.org/2000/svg">
<path d="M0.483429 35.8767L3.00876 26.6638C1.45045 23.9671 0.631626 20.9101 0.633123 17.7754C0.637614 7.97509 8.62378 0 18.4362 0C23.198 0.00149486 27.6678 1.85363 31.0299 5.21408C34.3906 8.57453 36.2408 13.0412 36.2393 17.7918C36.2348 27.5937 28.2486 35.5687 18.4362 35.5687C15.4573 35.5672 12.5218 34.8213 9.92162 33.4042L0.483429 35.8767ZM10.3587 30.1857C12.8676 31.6731 15.2627 32.5641 18.4302 32.5656C26.5855 32.5656 33.2289 25.9373 33.2334 17.7889C33.2364 9.62392 26.6244 3.00467 18.4422 3.00168C10.2809 3.00168 3.64197 9.6299 3.63897 17.7769C3.63748 21.103 4.61348 23.5934 6.25263 26.1989L4.75719 31.6522L10.3587 30.1857ZM27.4044 22.0178C27.2936 21.8325 26.9972 21.7218 26.5511 21.4991C26.1065 21.2764 23.9195 20.2016 23.5108 20.0536C23.1037 19.9056 22.8073 19.8308 22.5094 20.2763C22.213 20.7203 21.3597 21.7218 21.1007 22.0178C20.8418 22.3138 20.5813 22.3512 20.1367 22.1284C19.6921 21.9057 18.2581 21.4378 16.559 19.9235C15.2372 18.7456 14.3436 17.2911 14.0846 16.8456C13.8256 16.4016 14.0577 16.1609 14.2792 15.9397C14.4798 15.7409 14.7238 15.421 14.9468 15.1609C15.1729 14.9038 15.2462 14.7184 15.3959 14.4209C15.5441 14.1249 15.4708 13.8648 15.3585 13.6421C15.2462 13.4209 14.357 11.2339 13.9873 10.3444C13.625 9.47892 13.2583 9.59552 12.9859 9.58206L12.1326 9.56711C11.8362 9.56711 11.3542 9.67773 10.947 10.1232C10.5399 10.5687 9.39021 11.642 9.39021 13.829C9.39021 16.0159 10.9844 18.1282 11.206 18.4242C11.429 18.7202 14.3421 23.2077 18.8044 25.1316C19.8658 25.589 20.6951 25.8626 21.3403 26.0674C22.4061 26.4052 23.3761 26.3574 24.1425 26.2438C24.9973 26.1167 26.7741 25.169 27.1454 24.1315C27.5166 23.0926 27.5166 22.2032 27.4044 22.0178Z" fill="#5B3524"/>
</svg>
