<svg width="37" height="26" viewBox="0 0 37 26" fill="none" xmlns="http://www.w3.org/2000/svg">
<path d="M36.3104 5.88695C36.3104 5.88695 35.9596 3.41342 34.879 2.32731C33.5107 0.897849 31.981 0.890841 31.2793 0.806755C26.2552 0.442383 18.712 0.442383 18.712 0.442383H18.698C18.698 0.442383 11.1548 0.442383 6.13069 0.806755C5.429 0.890841 3.89931 0.897849 2.53101 2.32731C1.45041 3.41342 1.10658 5.88695 1.10658 5.88695C1.10658 5.88695 0.741699 8.79492 0.741699 11.6959V14.4147C0.741699 17.3156 1.09956 20.2236 1.09956 20.2236C1.09956 20.2236 1.45041 22.6971 2.52399 23.7832C3.89229 25.2127 5.68862 25.1637 6.48855 25.3178C9.36548 25.5911 18.705 25.6752 18.705 25.6752C18.705 25.6752 26.2552 25.6612 31.2793 25.3038C31.981 25.2197 33.5107 25.2127 34.879 23.7832C35.9596 22.6971 36.3104 20.2236 36.3104 20.2236C36.3104 20.2236 36.6683 17.3226 36.6683 14.4147V11.6959C36.6683 8.79492 36.3104 5.88695 36.3104 5.88695ZM14.993 17.715V7.63173L24.6974 12.6909L14.993 17.715Z" fill="#5B3524"/>
</svg>
