<svg width="23" height="23" viewBox="0 0 23 23" fill="none" xmlns="http://www.w3.org/2000/svg">
<g clip-path="url(#clip0_945_134)">
<path d="M22.7799 6.89321C22.7799 6.89321 22.5552 5.30904 21.8631 4.61345C20.9868 3.69795 20.0071 3.69346 19.5577 3.63961C16.34 3.40625 11.509 3.40625 11.509 3.40625H11.5C11.5 3.40625 6.66903 3.40625 3.45136 3.63961C3.00196 3.69346 2.02228 3.69795 1.14596 4.61345C0.45389 5.30904 0.233686 6.89321 0.233686 6.89321C0.233686 6.89321 0 8.75561 0 10.6135V12.3548C0 14.2127 0.229192 16.0751 0.229192 16.0751C0.229192 16.0751 0.45389 17.6592 1.14147 18.3548C2.01779 19.2703 3.16824 19.2389 3.68055 19.3376C5.52307 19.5127 11.5045 19.5665 11.5045 19.5665C11.5045 19.5665 16.34 19.5575 19.5577 19.3287C20.0071 19.2748 20.9868 19.2703 21.8631 18.3548C22.5552 17.6592 22.7799 16.0751 22.7799 16.0751C22.7799 16.0751 23.0091 14.2172 23.0091 12.3548V10.6135C23.0091 8.75561 22.7799 6.89321 22.7799 6.89321ZM9.12723 14.4685V8.01065L15.3424 11.2508L9.12723 14.4685Z" fill="white"/>
</g>
<defs>
<clipPath id="clip0_945_134">
<rect width="23.0091" height="22.9771" fill="white"/>
</clipPath>
</defs>
</svg>
